<svg viewBox="0 0 761.4000244140625 400" xmlns="http://www.w3.org/2000/svg"><g><g><g><g><g><line x1="50" y1="378" x2="45" y2="378" style="visibility: inherit;" fill="rgb(0, 0, 0)" stroke="rgb(204, 204, 204)" stroke-width="1px"></line><line x1="50" y1="330.75" x2="45" y2="330.75" style="visibility: inherit;" fill="rgb(0, 0, 0)" stroke="rgb(204, 204, 204)" stroke-width="1px"></line><line x1="50" y1="283.5" x2="45" y2="283.5" style="visibility: inherit;" fill="rgb(0, 0, 0)" stroke="rgb(204, 204, 204)" stroke-width="1px"></line><line x1="50" y1="236.25" x2="45" y2="236.25" style="visibility: inherit;" fill="rgb(0, 0, 0)" stroke="rgb(204, 204, 204)" stroke-width="1px"></line><line x1="50" y1="189" x2="45" y2="189" style="visibility: inherit;" fill="rgb(0, 0, 0)" stroke="rgb(204, 204, 204)" stroke-width="1px"></line><line x1="50" y1="141.75" x2="45" y2="141.75" style="visibility: inherit;" fill="rgb(0, 0, 0)" stroke="rgb(204, 204, 204)" stroke-width="1px"></line><line x1="50" y1="94.5" x2="45" y2="94.5" style="visibility: inherit;" fill="rgb(0, 0, 0)" stroke="rgb(204, 204, 204)" stroke-width="1px"></line><line x1="50" y1="47.25" x2="45" y2="47.25" style="visibility: inherit;" fill="rgb(0, 0, 0)" stroke="rgb(204, 204, 204)" stroke-width="1px"></line><line x1="50" y1="0" x2="45" y2="0" style="visibility: inherit;" fill="rgb(0, 0, 0)" stroke="rgb(204, 204, 204)" stroke-width="1px"></line></g><g transform="translate(40, 0)"><text x="0" y="378" dx="0em" dy="0.3em" style="text-anchor: end; visibility: hidden; font-family: Roboto, sans-serif; font-size: 12px; font-weight: 200;" fill="rgb(50, 49, 63)" stroke="none" stroke-width="1px">0.82</text><text x="0" y="330.75" dx="0em" dy="0.3em" style="text-anchor: end; visibility: inherit; font-family: Roboto, sans-serif; font-size: 12px; font-weight: 200;" fill="rgb(50, 49, 63)" stroke="none" stroke-width="1px">0.83</text><text x="0" y="283.5" dx="0em" dy="0.3em" style="text-anchor: end; visibility: inherit; font-family: Roboto, sans-serif; font-size: 12px; font-weight: 200;" fill="rgb(50, 49, 63)" stroke="none" stroke-width="1px">0.84</text><text x="0" y="236.25" dx="0em" dy="0.3em" style="text-anchor: end; visibility: inherit; font-family: Roboto, sans-serif; font-size: 12px; font-weight: 200;" fill="rgb(50, 49, 63)" stroke="none" stroke-width="1px">0.85</text><text x="0" y="189" dx="0em" dy="0.3em" style="text-anchor: end; visibility: inherit; font-family: Roboto, sans-serif; font-size: 12px; font-weight: 200;" fill="rgb(50, 49, 63)" stroke="none" stroke-width="1px">0.86</text><text x="0" y="141.75" dx="0em" dy="0.3em" style="text-anchor: end; visibility: inherit; font-family: Roboto, sans-serif; font-size: 12px; font-weight: 200;" fill="rgb(50, 49, 63)" stroke="none" stroke-width="1px">0.87</text><text x="0" y="94.5" dx="0em" dy="0.3em" style="text-anchor: end; visibility: inherit; font-family: Roboto, sans-serif; font-size: 12px; font-weight: 200;" fill="rgb(50, 49, 63)" stroke="none" stroke-width="1px">0.88</text><text x="0" y="47.25" dx="0em" dy="0.3em" style="text-anchor: end; visibility: inherit; font-family: Roboto, sans-serif; font-size: 12px; font-weight: 200;" fill="rgb(50, 49, 63)" stroke="none" stroke-width="1px">0.89</text><text x="0" y="0" dx="0em" dy="0.3em" style="text-anchor: end; visibility: hidden; font-family: Roboto, sans-serif; font-size: 12px; font-weight: 200;" fill="rgb(50, 49, 63)" stroke="none" stroke-width="1px">0.9</text></g><line x1="50" y1="0" x2="50" y2="378" fill="rgb(0, 0, 0)" stroke="rgb(204, 204, 204)" stroke-width="1px"></line></g></g><g transform="translate(50, 0)" clip-path="url(#clip_0)"><clipPath id="clip_0"><rect width="711" height="378"></rect></clipPath><g><g><g><line x1="0" y1="0" x2="0" y2="378" fill="rgb(0, 0, 0)" stroke="rgb(60, 60, 60)" stroke-width="1px" opacity="0.25"></line><line x1="59.28333333333333" y1="0" x2="59.28333333333333" y2="378" fill="rgb(0, 0, 0)" stroke="rgb(60, 60, 60)" stroke-width="1px" opacity="0.25"></line><line x1="118.56666666666666" y1="0" x2="118.56666666666666" y2="378" fill="rgb(0, 0, 0)" stroke="rgb(60, 60, 60)" stroke-width="1px" opacity="0.25"></line><line x1="177.85" y1="0" x2="177.85" y2="378" fill="rgb(0, 0, 0)" stroke="rgb(60, 60, 60)" stroke-width="1px" opacity="0.25"></line><line x1="237.13333333333333" y1="0" x2="237.13333333333333" y2="378" fill="rgb(0, 0, 0)" stroke="rgb(60, 60, 60)" stroke-width="1px" opacity="0.25"></line><line x1="296.4166666666667" y1="0" x2="296.4166666666667" y2="378" fill="rgb(0, 0, 0)" stroke="rgb(60, 60, 60)" stroke-width="1px" opacity="0.25"></line><line x1="355.7" y1="0" x2="355.7" y2="378" fill="rgb(0, 0, 0)" stroke="rgb(60, 60, 60)" stroke-width="1px" opacity="0.25"></line><line x1="414.98333333333335" y1="0" x2="414.98333333333335" y2="378" fill="rgb(0, 0, 0)" stroke="rgb(60, 60, 60)" stroke-width="1px" opacity="0.25"></line><line x1="474.26666666666665" y1="0" x2="474.26666666666665" y2="378" fill="rgb(0, 0, 0)" stroke="rgb(60, 60, 60)" stroke-width="1px" opacity="0.25"></line><line x1="533.55" y1="0" x2="533.55" y2="378" fill="rgb(0, 0, 0)" stroke="rgb(60, 60, 60)" stroke-width="1px" opacity="0.25"></line><line x1="592.8333333333334" y1="0" x2="592.8333333333334" y2="378" fill="rgb(0, 0, 0)" stroke="rgb(60, 60, 60)" stroke-width="1px" opacity="0.25"></line><line x1="652.1166666666667" y1="0" x2="652.1166666666667" y2="378" fill="rgb(0, 0, 0)" stroke="rgb(60, 60, 60)" stroke-width="1px" opacity="0.25"></line><line x1="711.4" y1="0" x2="711.4" y2="378" fill="rgb(0, 0, 0)" stroke="rgb(60, 60, 60)" stroke-width="1px" opacity="0.25"></line></g><g><line x1="0" y1="378" x2="711.4" y2="378" fill="rgb(0, 0, 0)" stroke="rgb(60, 60, 60)" stroke-width="1px" opacity="0.25"></line><line x1="0" y1="330.75" x2="711.4" y2="330.75" fill="rgb(0, 0, 0)" stroke="rgb(60, 60, 60)" stroke-width="1px" opacity="0.25"></line><line x1="0" y1="283.5" x2="711.4" y2="283.5" fill="rgb(0, 0, 0)" stroke="rgb(60, 60, 60)" stroke-width="1px" opacity="0.25"></line><line x1="0" y1="236.25" x2="711.4" y2="236.25" fill="rgb(0, 0, 0)" stroke="rgb(60, 60, 60)" stroke-width="1px" opacity="0.25"></line><line x1="0" y1="189" x2="711.4" y2="189" fill="rgb(0, 0, 0)" stroke="rgb(60, 60, 60)" stroke-width="1px" opacity="0.25"></line><line x1="0" y1="141.75" x2="711.4" y2="141.75" fill="rgb(0, 0, 0)" stroke="rgb(60, 60, 60)" stroke-width="1px" opacity="0.25"></line><line x1="0" y1="94.5" x2="711.4" y2="94.5" fill="rgb(0, 0, 0)" stroke="rgb(60, 60, 60)" stroke-width="1px" opacity="0.25"></line><line x1="0" y1="47.25" x2="711.4" y2="47.25" fill="rgb(0, 0, 0)" stroke="rgb(60, 60, 60)" stroke-width="1px" opacity="0.25"></line><line x1="0" y1="0" x2="711.4" y2="0" fill="rgb(0, 0, 0)" stroke="rgb(60, 60, 60)" stroke-width="1px" opacity="0.25"></line></g></g></g><g><g><line x1="0" y1="4252.499999999996" x2="711.4" y2="4252.499999999996" fill="rgb(0, 0, 0)" stroke="rgb(153, 153, 153)" stroke-width="1.5px"></line></g></g><g><g><line x1="59.28333333333333" y1="0" x2="59.28333333333333" y2="378" fill="rgb(0, 0, 0)" stroke="rgb(153, 153, 153)" stroke-width="1.5px"></line></g></g><g><g><g><g><g><path stroke="rgb(0, 119, 187)" stroke-width="2px" d="M71.14,472.0079326629635L82.99666666666667,312.13026434183104L94.85333333333332,280.15489965677244L106.71,234.6513444185256L118.56666666666666,223.58264565467826L130.42333333333332,212.51422852277747L142.28,213.74411523342124L154.13666666666666,205.135471522808L165.99333333333334,175.61959862709043L177.85,186.6880157589912L189.70666666666665,182.9983556270599L201.56333333333333,190.3773942589759L213.42,187.91762083768842L225.27666666666664,186.6880157589912L237.13333333333333,189.14750754833213L248.98999999999998,187.91762083768842L260.84666666666664,190.3773942589759L272.7033333333333,187.91762083768842L284.56,187.91762083768842L296.4166666666667,187.91762083768842L308.2733333333333,187.91762083768842L320.13,187.91762083768842L331.9866666666667,187.91762083768842L343.8433333333333,187.91762083768842L355.7,187.91762083768842L367.5566666666667,187.91762083768842L379.4133333333333,187.91762083768842L391.27000000000004,187.91762083768842L403.12666666666667,187.91762083768842L414.98333333333335,187.91762083768842L426.84,187.91762083768842L438.69666666666666,187.91762083768842L450.5533333333333,187.91762083768842L462.41,187.91762083768842L474.26666666666665,187.91762083768842L486.12333333333333,187.91762083768842L497.97999999999996,187.91762083768842L509.83666666666664,187.91762083768842L521.6933333333333,187.91762083768842L533.55,187.91762083768842L545.4066666666666,187.91762083768842L557.2633333333333,187.91762083768842L569.12,187.91762083768842L580.9766666666667,187.91762083768842L592.8333333333334,187.91762083768842L604.6899999999999,187.91762083768842L616.5466666666666,187.91762083768842L628.4033333333333,187.91762083768842L640.26,187.91762083768842" style="fill: none;" fill="none"></path></g><g><path stroke="rgb(51, 187, 238)" stroke-width="2px" d="M59.28333333333333,485.2370300889012L71.14,348.067627251148L82.99666666666667,312.5504592061041L94.85333333333332,274.5839381217955L106.71,257.43790358304966L118.56666666666666,261.11207395791996L130.42333333333332,246.41511082649222L142.28,241.51640474796287L154.13666666666666,240.29158741235725L165.99333333333334,232.94324666261664L177.85,234.16806399822227L189.70666666666665,235.39259970188132L201.56333333333333,231.71842932701102L213.42,231.71842932701102L225.27666666666664,231.71842932701102L237.13333333333333,231.71842932701102L248.98999999999998,231.71842932701102L260.84666666666664,231.71842932701102L272.7033333333333,231.71842932701102L284.56,231.71842932701102L296.4166666666667,231.71842932701102L308.2733333333333,231.71842932701102L320.13,232.94324666261664L331.9866666666667,232.94324666261664L343.8433333333333,232.94324666261664L355.7,232.94324666261664L367.5566666666667,232.94324666261664L379.4133333333333,232.94324666261664L391.27000000000004,232.94324666261664L403.12666666666667,232.94324666261664L414.98333333333335,232.94324666261664L426.84,232.94324666261664L438.69666666666666,232.94324666261664L450.5533333333333,232.94324666261664L462.41,232.94324666261664L474.26666666666665,232.94324666261664L486.12333333333333,232.94324666261664L497.97999999999996,232.94324666261664L509.83666666666664,232.94324666261664L521.6933333333333,232.94324666261664L533.55,232.94324666261664L545.4066666666666,232.94324666261664L557.2633333333333,232.94324666261664L569.12,232.94324666261664L580.9766666666667,232.94324666261664L592.8333333333334,232.94324666261664L604.6899999999999,232.94324666261664L616.5466666666666,232.94324666261664L628.4033333333333,232.94324666261664L640.26,232.94324666261664" style="fill: none;" fill="none"></path></g><g><path stroke="rgb(204, 51, 17)" stroke-width="2px" d="M59.28333333333333,345.6182742118833L71.14,289.2806196212767L82.99666666666667,235.39259970188132L94.85333333333332,192.52709090709678L106.71,193.7519082427024L118.56666666666666,185.17875015735623L130.42333333333332,175.38105636835095L142.28,180.28004407882688L154.13666666666666,175.38105636835095L165.99333333333334,171.70688599348065L177.85,171.70688599348065L189.70666666666665,172.93170332908628L201.56333333333333,166.80789828300473L213.42,168.03271561861035L225.27666666666664,168.03271561861035L237.13333333333333,168.03271561861035L248.98999999999998,168.03271561861035L260.84666666666664,166.80789828300473L272.7033333333333,166.80789828300473L284.56,166.80789828300473L296.4166666666667,166.80789828300473L308.2733333333333,166.80789828300473L320.13,166.80789828300473L331.9866666666667,166.80789828300473L343.8433333333333,166.80789828300473L355.7,166.80789828300473L367.5566666666667,166.80789828300473L379.4133333333333,166.80789828300473L391.27000000000004,166.80789828300473L403.12666666666667,166.80789828300473L414.98333333333335,166.80789828300473L426.84,166.80789828300473L438.69666666666666,166.80789828300473L450.5533333333333,166.80789828300473L462.41,166.80789828300473L474.26666666666665,166.80789828300473L486.12333333333333,166.80789828300473L497.97999999999996,166.80789828300473L509.83666666666664,166.80789828300473L521.6933333333333,166.80789828300473L533.55,166.80789828300473L545.4066666666666,166.80789828300473L557.2633333333333,166.80789828300473L569.12,166.80789828300473L580.9766666666667,166.80789828300473L592.8333333333334,166.80789828300473L604.6899999999999,166.80789828300473L616.5466666666666,166.80789828300473L628.4033333333333,166.80789828300473L640.26,166.80789828300473" style="fill: none;" fill="none"></path></g><g><path stroke="rgb(238, 51, 119)" stroke-width="2px" d="M59.28333333333333,327.2471407055853L71.14,246.41511082649222L82.99666666666667,181.50457978248593L94.85333333333332,155.78538715839383L106.71,144.76287603378293L118.56666666666666,157.01020449399945L130.42333333333332,148.43704640865323L142.28,143.5380586981773L154.13666666666666,141.08870565891266L165.99333333333334,132.51554757356644L177.85,134.96490061283112L189.70666666666665,132.51554757356644L201.56333333333333,128.84137719869614L213.42,127.61655986309052L225.27666666666664,128.84137719869614L237.13333333333333,128.84137719869614L248.98999999999998,128.84137719869614L260.84666666666664,128.84137719869614L272.7033333333333,128.84137719869614L284.56,128.84137719869614L296.4166666666667,128.84137719869614L308.2733333333333,128.84137719869614L320.13,128.84137719869614L331.9866666666667,128.84137719869614L343.8433333333333,128.84137719869614L355.7,128.84137719869614L367.5566666666667,128.84137719869614L379.4133333333333,128.84137719869614L391.27000000000004,128.84137719869614L403.12666666666667,128.84137719869614L414.98333333333335,128.84137719869614L426.84,128.84137719869614L438.69666666666666,128.84137719869614L450.5533333333333,128.84137719869614L462.41,128.84137719869614L474.26666666666665,128.84137719869614L486.12333333333333,128.84137719869614L497.97999999999996,128.84137719869614L509.83666666666664,128.84137719869614L521.6933333333333,128.84137719869614L533.55,128.84137719869614L545.4066666666666,128.84137719869614L557.2633333333333,128.84137719869614L569.12,128.84137719869614L580.9766666666667,128.84137719869614L592.8333333333334,128.84137719869614L604.6899999999999,128.84137719869614L616.5466666666666,128.84137719869614L628.4033333333333,128.84137719869614L640.26,128.84137719869614" style="fill: none;" fill="none"></path></g><g><path stroke="rgb(255, 112, 67)" stroke-width="2px" d="M59.28333333333333,532.2695651650425L71.14,244.48987483978263L82.99666666666667,191.60728096961967L94.85333333333332,164.55089986324307L106.71,121.50711804628372L118.56666666666666,85.84209322929387L130.42333333333332,83.38231980800633L142.28,87.07169830799107L154.13666666666666,78.46305459737782L165.99333333333334,57.55582541227345L177.85,57.55582541227345L189.70666666666665,61.245485544204755L201.56333333333333,62.47537225484852L213.42,62.47537225484852L225.27666666666664,63.70497733354573L237.13333333333333,63.70497733354573L248.98999999999998,62.47537225484852L260.84666666666664,62.47537225484852L272.7033333333333,62.47537225484852L284.56,62.47537225484852L296.4166666666667,62.47537225484852L308.2733333333333,62.47537225484852L320.13,62.47537225484852L331.9866666666667,62.47537225484852L343.8433333333333,62.47537225484852L355.7,62.47537225484852L367.5566666666667,62.47537225484852L379.4133333333333,62.47537225484852L391.27000000000004,62.47537225484852L403.12666666666667,62.47537225484852L414.98333333333335,62.47537225484852L426.84,62.47537225484852L438.69666666666666,62.47537225484852L450.5533333333333,62.47537225484852L462.41,62.47537225484852L474.26666666666665,62.47537225484852L486.12333333333333,62.47537225484852L497.97999999999996,62.47537225484852L509.83666666666664,62.47537225484852L521.6933333333333,62.47537225484852L533.55,62.47537225484852L545.4066666666666,62.47537225484852L557.2633333333333,62.47537225484852L569.12,62.47537225484852L580.9766666666667,62.47537225484852L592.8333333333334,62.47537225484852L604.6899999999999,62.47537225484852L616.5466666666666,62.47537225484852L628.4033333333333,62.47537225484852L640.26,62.47537225484852" style="fill: none;" fill="none"></path></g></g></g></g></g></g><g transform="translate(50, 378)" clip-path="url(#clip_1)"><clipPath id="clip_1"><rect width="711" height="22"></rect></clipPath><g><g><line x1="0" y1="0" x2="0" y2="5" style="visibility: inherit;" fill="rgb(0, 0, 0)" stroke="rgb(204, 204, 204)" stroke-width="1px"></line><line x1="59.28333333333333" y1="0" x2="59.28333333333333" y2="5" style="visibility: inherit;" fill="rgb(0, 0, 0)" stroke="rgb(204, 204, 204)" stroke-width="1px"></line><line x1="118.56666666666666" y1="0" x2="118.56666666666666" y2="5" style="visibility: inherit;" fill="rgb(0, 0, 0)" stroke="rgb(204, 204, 204)" stroke-width="1px"></line><line x1="177.85" y1="0" x2="177.85" y2="5" style="visibility: inherit;" fill="rgb(0, 0, 0)" stroke="rgb(204, 204, 204)" stroke-width="1px"></line><line x1="237.13333333333333" y1="0" x2="237.13333333333333" y2="5" style="visibility: inherit;" fill="rgb(0, 0, 0)" stroke="rgb(204, 204, 204)" stroke-width="1px"></line><line x1="296.4166666666667" y1="0" x2="296.4166666666667" y2="5" style="visibility: inherit;" fill="rgb(0, 0, 0)" stroke="rgb(204, 204, 204)" stroke-width="1px"></line><line x1="355.7" y1="0" x2="355.7" y2="5" style="visibility: inherit;" fill="rgb(0, 0, 0)" stroke="rgb(204, 204, 204)" stroke-width="1px"></line><line x1="414.98333333333335" y1="0" x2="414.98333333333335" y2="5" style="visibility: inherit;" fill="rgb(0, 0, 0)" stroke="rgb(204, 204, 204)" stroke-width="1px"></line><line x1="474.26666666666665" y1="0" x2="474.26666666666665" y2="5" style="visibility: inherit;" fill="rgb(0, 0, 0)" stroke="rgb(204, 204, 204)" stroke-width="1px"></line><line x1="533.55" y1="0" x2="533.55" y2="5" style="visibility: inherit;" fill="rgb(0, 0, 0)" stroke="rgb(204, 204, 204)" stroke-width="1px"></line><line x1="592.8333333333334" y1="0" x2="592.8333333333334" y2="5" style="visibility: inherit;" fill="rgb(0, 0, 0)" stroke="rgb(204, 204, 204)" stroke-width="1px"></line><line x1="652.1166666666667" y1="0" x2="652.1166666666667" y2="5" style="visibility: inherit;" fill="rgb(0, 0, 0)" stroke="rgb(204, 204, 204)" stroke-width="1px"></line><line x1="711.4" y1="0" x2="711.4" y2="5" style="visibility: inherit;" fill="rgb(0, 0, 0)" stroke="rgb(204, 204, 204)" stroke-width="1px"></line></g><g transform="translate(0, 8)"><text x="0" y="0" dx="0em" dy="0.95em" style="text-anchor: middle; visibility: hidden; font-family: Roboto, sans-serif; font-size: 12px; font-weight: 200;" fill="rgb(50, 49, 63)" stroke="none" stroke-width="1px">-5</text><text x="59.28333333333333" y="0" dx="0em" dy="0.95em" style="text-anchor: middle; visibility: inherit; font-family: Roboto, sans-serif; font-size: 12px; font-weight: 200;" fill="rgb(50, 49, 63)" stroke="none" stroke-width="1px">0</text><text x="118.56666666666666" y="0" dx="0em" dy="0.95em" style="text-anchor: middle; visibility: inherit; font-family: Roboto, sans-serif; font-size: 12px; font-weight: 200;" fill="rgb(50, 49, 63)" stroke="none" stroke-width="1px">5</text><text x="177.85" y="0" dx="0em" dy="0.95em" style="text-anchor: middle; visibility: inherit; font-family: Roboto, sans-serif; font-size: 12px; font-weight: 200;" fill="rgb(50, 49, 63)" stroke="none" stroke-width="1px">10</text><text x="237.13333333333333" y="0" dx="0em" dy="0.95em" style="text-anchor: middle; visibility: inherit; font-family: Roboto, sans-serif; font-size: 12px; font-weight: 200;" fill="rgb(50, 49, 63)" stroke="none" stroke-width="1px">15</text><text x="296.4166666666667" y="0" dx="0em" dy="0.95em" style="text-anchor: middle; visibility: inherit; font-family: Roboto, sans-serif; font-size: 12px; font-weight: 200;" fill="rgb(50, 49, 63)" stroke="none" stroke-width="1px">20</text><text x="355.7" y="0" dx="0em" dy="0.95em" style="text-anchor: middle; visibility: inherit; font-family: Roboto, sans-serif; font-size: 12px; font-weight: 200;" fill="rgb(50, 49, 63)" stroke="none" stroke-width="1px">25</text><text x="414.98333333333335" y="0" dx="0em" dy="0.95em" style="text-anchor: middle; visibility: inherit; font-family: Roboto, sans-serif; font-size: 12px; font-weight: 200;" fill="rgb(50, 49, 63)" stroke="none" stroke-width="1px">30</text><text x="474.26666666666665" y="0" dx="0em" dy="0.95em" style="text-anchor: middle; visibility: inherit; font-family: Roboto, sans-serif; font-size: 12px; font-weight: 200;" fill="rgb(50, 49, 63)" stroke="none" stroke-width="1px">35</text><text x="533.55" y="0" dx="0em" dy="0.95em" style="text-anchor: middle; visibility: inherit; font-family: Roboto, sans-serif; font-size: 12px; font-weight: 200;" fill="rgb(50, 49, 63)" stroke="none" stroke-width="1px">40</text><text x="592.8333333333334" y="0" dx="0em" dy="0.95em" style="text-anchor: middle; visibility: inherit; font-family: Roboto, sans-serif; font-size: 12px; font-weight: 200;" fill="rgb(50, 49, 63)" stroke="none" stroke-width="1px">45</text><text x="652.1166666666667" y="0" dx="0em" dy="0.95em" style="text-anchor: middle; visibility: inherit; font-family: Roboto, sans-serif; font-size: 12px; font-weight: 200;" fill="rgb(50, 49, 63)" stroke="none" stroke-width="1px">50</text><text x="711.4" y="0" dx="0em" dy="0.95em" style="text-anchor: middle; visibility: hidden; font-family: Roboto, sans-serif; font-size: 12px; font-weight: 200;" fill="rgb(50, 49, 63)" stroke="none" stroke-width="1px">55</text></g><line x1="0" y1="0" x2="711.4" y2="0" fill="rgb(0, 0, 0)" stroke="rgb(204, 204, 204)" stroke-width="1px"></line></g></g></g></g></svg>