<svg viewBox="0 0 761.4000244140625 400" xmlns="http://www.w3.org/2000/svg"><g><g><g><g><g><line x1="50" y1="378" x2="45" y2="378" style="visibility: inherit;" fill="rgb(0, 0, 0)" stroke="rgb(204, 204, 204)" stroke-width="1px"></line><line x1="50" y1="351" x2="45" y2="351" style="visibility: inherit;" fill="rgb(0, 0, 0)" stroke="rgb(204, 204, 204)" stroke-width="1px"></line><line x1="50" y1="324" x2="45" y2="324" style="visibility: inherit;" fill="rgb(0, 0, 0)" stroke="rgb(204, 204, 204)" stroke-width="1px"></line><line x1="50" y1="297" x2="45" y2="297" style="visibility: inherit;" fill="rgb(0, 0, 0)" stroke="rgb(204, 204, 204)" stroke-width="1px"></line><line x1="50" y1="269.99999999999994" x2="45" y2="269.99999999999994" style="visibility: inherit;" fill="rgb(0, 0, 0)" stroke="rgb(204, 204, 204)" stroke-width="1px"></line><line x1="50" y1="242.99999999999997" x2="45" y2="242.99999999999997" style="visibility: inherit;" fill="rgb(0, 0, 0)" stroke="rgb(204, 204, 204)" stroke-width="1px"></line><line x1="50" y1="216" x2="45" y2="216" style="visibility: inherit;" fill="rgb(0, 0, 0)" stroke="rgb(204, 204, 204)" stroke-width="1px"></line><line x1="50" y1="189" x2="45" y2="189" style="visibility: inherit;" fill="rgb(0, 0, 0)" stroke="rgb(204, 204, 204)" stroke-width="1px"></line><line x1="50" y1="161.99999999999997" x2="45" y2="161.99999999999997" style="visibility: inherit;" fill="rgb(0, 0, 0)" stroke="rgb(204, 204, 204)" stroke-width="1px"></line><line x1="50" y1="135.00000000000003" x2="45" y2="135.00000000000003" style="visibility: inherit;" fill="rgb(0, 0, 0)" stroke="rgb(204, 204, 204)" stroke-width="1px"></line><line x1="50" y1="108" x2="45" y2="108" style="visibility: inherit;" fill="rgb(0, 0, 0)" stroke="rgb(204, 204, 204)" stroke-width="1px"></line><line x1="50" y1="80.99999999999996" x2="45" y2="80.99999999999996" style="visibility: inherit;" fill="rgb(0, 0, 0)" stroke="rgb(204, 204, 204)" stroke-width="1px"></line><line x1="50" y1="53.99999999999998" x2="45" y2="53.99999999999998" style="visibility: inherit;" fill="rgb(0, 0, 0)" stroke="rgb(204, 204, 204)" stroke-width="1px"></line><line x1="50" y1="26.999999999999947" x2="45" y2="26.999999999999947" style="visibility: inherit;" fill="rgb(0, 0, 0)" stroke="rgb(204, 204, 204)" stroke-width="1px"></line><line x1="50" y1="0" x2="45" y2="0" style="visibility: inherit;" fill="rgb(0, 0, 0)" stroke="rgb(204, 204, 204)" stroke-width="1px"></line></g><g transform="translate(40, 0)"><text x="0" y="378" dx="0em" dy="0.3em" style="text-anchor: end; visibility: hidden; font-family: Roboto, sans-serif; font-size: 12px; font-weight: 200;" fill="rgb(50, 49, 63)" stroke="none" stroke-width="1px">-0.4</text><text x="0" y="351" dx="0em" dy="0.3em" style="text-anchor: end; visibility: inherit; font-family: Roboto, sans-serif; font-size: 12px; font-weight: 200;" fill="rgb(50, 49, 63)" stroke="none" stroke-width="1px">-0.2</text><text x="0" y="324" dx="0em" dy="0.3em" style="text-anchor: end; visibility: inherit; font-family: Roboto, sans-serif; font-size: 12px; font-weight: 200;" fill="rgb(50, 49, 63)" stroke="none" stroke-width="1px">0</text><text x="0" y="297" dx="0em" dy="0.3em" style="text-anchor: end; visibility: inherit; font-family: Roboto, sans-serif; font-size: 12px; font-weight: 200;" fill="rgb(50, 49, 63)" stroke="none" stroke-width="1px">0.2</text><text x="0" y="269.99999999999994" dx="0em" dy="0.3em" style="text-anchor: end; visibility: inherit; font-family: Roboto, sans-serif; font-size: 12px; font-weight: 200;" fill="rgb(50, 49, 63)" stroke="none" stroke-width="1px">0.4</text><text x="0" y="242.99999999999997" dx="0em" dy="0.3em" style="text-anchor: end; visibility: inherit; font-family: Roboto, sans-serif; font-size: 12px; font-weight: 200;" fill="rgb(50, 49, 63)" stroke="none" stroke-width="1px">0.6</text><text x="0" y="216" dx="0em" dy="0.3em" style="text-anchor: end; visibility: inherit; font-family: Roboto, sans-serif; font-size: 12px; font-weight: 200;" fill="rgb(50, 49, 63)" stroke="none" stroke-width="1px">0.8</text><text x="0" y="189" dx="0em" dy="0.3em" style="text-anchor: end; visibility: inherit; font-family: Roboto, sans-serif; font-size: 12px; font-weight: 200;" fill="rgb(50, 49, 63)" stroke="none" stroke-width="1px">1</text><text x="0" y="161.99999999999997" dx="0em" dy="0.3em" style="text-anchor: end; visibility: inherit; font-family: Roboto, sans-serif; font-size: 12px; font-weight: 200;" fill="rgb(50, 49, 63)" stroke="none" stroke-width="1px">1.2</text><text x="0" y="135.00000000000003" dx="0em" dy="0.3em" style="text-anchor: end; visibility: inherit; font-family: Roboto, sans-serif; font-size: 12px; font-weight: 200;" fill="rgb(50, 49, 63)" stroke="none" stroke-width="1px">1.4</text><text x="0" y="108" dx="0em" dy="0.3em" style="text-anchor: end; visibility: inherit; font-family: Roboto, sans-serif; font-size: 12px; font-weight: 200;" fill="rgb(50, 49, 63)" stroke="none" stroke-width="1px">1.6</text><text x="0" y="80.99999999999996" dx="0em" dy="0.3em" style="text-anchor: end; visibility: inherit; font-family: Roboto, sans-serif; font-size: 12px; font-weight: 200;" fill="rgb(50, 49, 63)" stroke="none" stroke-width="1px">1.8</text><text x="0" y="53.99999999999998" dx="0em" dy="0.3em" style="text-anchor: end; visibility: inherit; font-family: Roboto, sans-serif; font-size: 12px; font-weight: 200;" fill="rgb(50, 49, 63)" stroke="none" stroke-width="1px">2</text><text x="0" y="26.999999999999947" dx="0em" dy="0.3em" style="text-anchor: end; visibility: inherit; font-family: Roboto, sans-serif; font-size: 12px; font-weight: 200;" fill="rgb(50, 49, 63)" stroke="none" stroke-width="1px">2.2</text><text x="0" y="0" dx="0em" dy="0.3em" style="text-anchor: end; visibility: hidden; font-family: Roboto, sans-serif; font-size: 12px; font-weight: 200;" fill="rgb(50, 49, 63)" stroke="none" stroke-width="1px">2.4</text></g><line x1="50" y1="0" x2="50" y2="378" fill="rgb(0, 0, 0)" stroke="rgb(204, 204, 204)" stroke-width="1px"></line></g></g><g transform="translate(50, 0)" clip-path="url(#clip_0)"><clipPath id="clip_0"><rect width="711" height="378"></rect></clipPath><g><g><g><line x1="0" y1="0" x2="0" y2="378" fill="rgb(0, 0, 0)" stroke="rgb(60, 60, 60)" stroke-width="1px" opacity="0.25"></line><line x1="59.28333333333333" y1="0" x2="59.28333333333333" y2="378" fill="rgb(0, 0, 0)" stroke="rgb(60, 60, 60)" stroke-width="1px" opacity="0.25"></line><line x1="118.56666666666666" y1="0" x2="118.56666666666666" y2="378" fill="rgb(0, 0, 0)" stroke="rgb(60, 60, 60)" stroke-width="1px" opacity="0.25"></line><line x1="177.85" y1="0" x2="177.85" y2="378" fill="rgb(0, 0, 0)" stroke="rgb(60, 60, 60)" stroke-width="1px" opacity="0.25"></line><line x1="237.13333333333333" y1="0" x2="237.13333333333333" y2="378" fill="rgb(0, 0, 0)" stroke="rgb(60, 60, 60)" stroke-width="1px" opacity="0.25"></line><line x1="296.4166666666667" y1="0" x2="296.4166666666667" y2="378" fill="rgb(0, 0, 0)" stroke="rgb(60, 60, 60)" stroke-width="1px" opacity="0.25"></line><line x1="355.7" y1="0" x2="355.7" y2="378" fill="rgb(0, 0, 0)" stroke="rgb(60, 60, 60)" stroke-width="1px" opacity="0.25"></line><line x1="414.98333333333335" y1="0" x2="414.98333333333335" y2="378" fill="rgb(0, 0, 0)" stroke="rgb(60, 60, 60)" stroke-width="1px" opacity="0.25"></line><line x1="474.26666666666665" y1="0" x2="474.26666666666665" y2="378" fill="rgb(0, 0, 0)" stroke="rgb(60, 60, 60)" stroke-width="1px" opacity="0.25"></line><line x1="533.55" y1="0" x2="533.55" y2="378" fill="rgb(0, 0, 0)" stroke="rgb(60, 60, 60)" stroke-width="1px" opacity="0.25"></line><line x1="592.8333333333334" y1="0" x2="592.8333333333334" y2="378" fill="rgb(0, 0, 0)" stroke="rgb(60, 60, 60)" stroke-width="1px" opacity="0.25"></line><line x1="652.1166666666667" y1="0" x2="652.1166666666667" y2="378" fill="rgb(0, 0, 0)" stroke="rgb(60, 60, 60)" stroke-width="1px" opacity="0.25"></line><line x1="711.4" y1="0" x2="711.4" y2="378" fill="rgb(0, 0, 0)" stroke="rgb(60, 60, 60)" stroke-width="1px" opacity="0.25"></line></g><g><line x1="0" y1="378" x2="711.4" y2="378" fill="rgb(0, 0, 0)" stroke="rgb(60, 60, 60)" stroke-width="1px" opacity="0.25"></line><line x1="0" y1="351" x2="711.4" y2="351" fill="rgb(0, 0, 0)" stroke="rgb(60, 60, 60)" stroke-width="1px" opacity="0.25"></line><line x1="0" y1="324" x2="711.4" y2="324" fill="rgb(0, 0, 0)" stroke="rgb(60, 60, 60)" stroke-width="1px" opacity="0.25"></line><line x1="0" y1="297" x2="711.4" y2="297" fill="rgb(0, 0, 0)" stroke="rgb(60, 60, 60)" stroke-width="1px" opacity="0.25"></line><line x1="0" y1="269.99999999999994" x2="711.4" y2="269.99999999999994" fill="rgb(0, 0, 0)" stroke="rgb(60, 60, 60)" stroke-width="1px" opacity="0.25"></line><line x1="0" y1="242.99999999999997" x2="711.4" y2="242.99999999999997" fill="rgb(0, 0, 0)" stroke="rgb(60, 60, 60)" stroke-width="1px" opacity="0.25"></line><line x1="0" y1="216" x2="711.4" y2="216" fill="rgb(0, 0, 0)" stroke="rgb(60, 60, 60)" stroke-width="1px" opacity="0.25"></line><line x1="0" y1="189" x2="711.4" y2="189" fill="rgb(0, 0, 0)" stroke="rgb(60, 60, 60)" stroke-width="1px" opacity="0.25"></line><line x1="0" y1="161.99999999999997" x2="711.4" y2="161.99999999999997" fill="rgb(0, 0, 0)" stroke="rgb(60, 60, 60)" stroke-width="1px" opacity="0.25"></line><line x1="0" y1="135.00000000000003" x2="711.4" y2="135.00000000000003" fill="rgb(0, 0, 0)" stroke="rgb(60, 60, 60)" stroke-width="1px" opacity="0.25"></line><line x1="0" y1="108" x2="711.4" y2="108" fill="rgb(0, 0, 0)" stroke="rgb(60, 60, 60)" stroke-width="1px" opacity="0.25"></line><line x1="0" y1="80.99999999999996" x2="711.4" y2="80.99999999999996" fill="rgb(0, 0, 0)" stroke="rgb(60, 60, 60)" stroke-width="1px" opacity="0.25"></line><line x1="0" y1="53.99999999999998" x2="711.4" y2="53.99999999999998" fill="rgb(0, 0, 0)" stroke="rgb(60, 60, 60)" stroke-width="1px" opacity="0.25"></line><line x1="0" y1="26.999999999999947" x2="711.4" y2="26.999999999999947" fill="rgb(0, 0, 0)" stroke="rgb(60, 60, 60)" stroke-width="1px" opacity="0.25"></line><line x1="0" y1="0" x2="711.4" y2="0" fill="rgb(0, 0, 0)" stroke="rgb(60, 60, 60)" stroke-width="1px" opacity="0.25"></line></g></g></g><g><g><line x1="0" y1="324" x2="711.4" y2="324" fill="rgb(0, 0, 0)" stroke="rgb(153, 153, 153)" stroke-width="1.5px"></line></g></g><g><g><line x1="59.28333333333333" y1="0" x2="59.28333333333333" y2="378" fill="rgb(0, 0, 0)" stroke="rgb(153, 153, 153)" stroke-width="1.5px"></line></g></g><g><g><g><g><g><path stroke="rgb(255, 112, 67)" stroke-width="2px" d="M71.14,-16.215704441070546L82.99666666666667,36.728365659713745L94.85333333333332,53.55074071884153L106.71,74.57186186313626L118.56666666666666,92.73985826969145L130.42333333333332,98.99063909053802L142.28,99.57551622390746L154.13666666666666,99.95752179622649L165.99333333333334,102.32184612751004L177.85,101.83079266548154L189.70666666666665,102.32158863544464L201.56333333333333,102.85237634181976L213.42,102.8609379529953L225.27666666666664,102.7239682674408L237.13333333333333,102.90997409820557L248.98999999999998,102.92666280269624L260.84666666666664,102.93200576305388L272.7033333333333,102.96721780300142L284.56,102.97869229316711L296.4166666666667,102.98801028728485L308.2733333333333,102.98979663848876L320.13,102.99517178535459L331.9866666666667,102.99829387664795L343.8433333333333,102.99782717227936L355.7,102.99895370006561L367.5566666666667,102.99956524372098L379.4133333333333,102.99943649768831L391.27000000000004,102.99953305721283L403.12666666666667,102.99958133697508L414.98333333333335,102.99954915046693L426.84,102.99951696395874L438.69666666666666,102.99954915046693L450.5533333333333,102.99954915046693L462.41,102.99954915046693L474.26666666666665,102.99954915046693L486.12333333333333,102.99954915046693L497.97999999999996,102.99954915046693L509.83666666666664,102.99954915046693L521.6933333333333,102.99954915046693L533.55,102.99954915046693L545.4066666666666,102.99954915046693L557.2633333333333,102.99954915046693L569.12,102.99954915046693L580.9766666666667,102.99954915046693L592.8333333333334,102.99954915046693L604.6899999999999,102.99954915046693L616.5466666666666,102.99954915046693L628.4033333333333,102.99954915046693L640.26,102.99954915046693" style="fill: none;" fill="none"></path></g><g><path stroke="rgb(51, 187, 238)" stroke-width="2px" d="M59.28333333333333,-138.52157092094424L71.14,16.515560388565035L82.99666666666667,94.04860997200014L94.85333333333332,130.05802237987518L106.71,144.10769069194797L118.56666666666666,146.40950882434845L130.42333333333332,152.3418363332748L142.28,152.99710536003113L154.13666666666666,155.64843678474426L165.99333333333334,157.04241836071014L177.85,157.79120528697968L189.70666666666665,158.12036061286923L201.56333333333333,158.01095867156985L213.42,158.10460531711578L225.27666666666664,158.09438610076904L237.13333333333333,158.1441947221756L248.98999999999998,158.21514987945557L260.84666666666664,158.23541128635406L272.7033333333333,158.23755168914795L284.56,158.24268543720248L296.4166666666667,158.25037801265717L308.2733333333333,158.25618767738342L320.13,158.25675094127655L331.9866666666667,158.25961554050446L343.8433333333333,158.25950288772583L355.7,158.26008224487305L367.5566666666667,158.260436296463L379.4133333333333,158.26059722900393L391.27000000000004,158.26062941551208L403.12666666666667,158.26061332225797L414.98333333333335,158.26062941551208L426.84,158.26058113574982L438.69666666666666,158.26058113574982L450.5533333333333,158.26058113574982L462.41,158.26058113574982L474.26666666666665,158.26058113574982L486.12333333333333,158.26058113574982L497.97999999999996,158.26058113574982L509.83666666666664,158.26058113574982L521.6933333333333,158.26058113574982L533.55,158.26058113574982L545.4066666666666,158.26058113574982L557.2633333333333,158.26058113574982L569.12,158.26058113574982L580.9766666666667,158.26058113574982L592.8333333333334,158.26058113574982L604.6899999999999,158.26058113574982L616.5466666666666,158.26058113574982L628.4033333333333,158.26058113574982L640.26,158.26058113574982" style="fill: none;" fill="none"></path></g><g><path stroke="rgb(238, 51, 119)" stroke-width="2px" d="M59.28333333333333,-122.70138716697699L71.14,59.011358857154825L82.99666666666667,126.1047466993332L94.85333333333332,149.10514497756958L106.71,167.31245720386505L118.56666666666666,167.8000988960266L130.42333333333332,173.10673677921295L142.28,174.3670156002045L154.13666666666666,172.51860880851748L165.99333333333334,174.74464380741117L177.85,174.58081448078156L189.70666666666665,174.82623660564423L201.56333333333333,174.87807297706604L213.42,174.91486215591428L225.27666666666664,175.03926301002502L237.13333333333333,175.06386959552765L248.98999999999998,175.07318758964539L260.84666666666664,175.0795283317566L272.7033333333333,175.0780155658722L284.56,175.07927083969116L296.4166666666667,175.08635187149048L308.2733333333333,175.09211325645447L320.13,175.09045565128326L331.9866666666667,175.0919362306595L343.8433333333333,175.09196841716766L355.7,175.09230637550354L367.5566666666667,175.09246730804443L379.4133333333333,175.09264433383942L391.27000000000004,175.09270870685577L403.12666666666667,175.09270870685577L414.98333333333335,175.09274089336392L426.84,175.0927248001099L438.69666666666666,175.09274089336392L450.5533333333333,175.09274089336392L462.41,175.09274089336392L474.26666666666665,175.09274089336392L486.12333333333333,175.09274089336392L497.97999999999996,175.09274089336392L509.83666666666664,175.09274089336392L521.6933333333333,175.09274089336392L533.55,175.09274089336392L545.4066666666666,175.09274089336392L557.2633333333333,175.09274089336392L569.12,175.09274089336392L580.9766666666667,175.09274089336392L592.8333333333334,175.09274089336392L604.6899999999999,175.09274089336392L616.5466666666666,175.09274089336392L628.4033333333333,175.09274089336392L640.26,175.09274089336392" style="fill: none;" fill="none"></path></g><g><path stroke="rgb(0, 119, 187)" stroke-width="2px" d="M59.28333333333333,-111.62069892883301L71.14,56.02477276325226L82.99666666666667,121.04732894897458L94.85333333333332,158.52801883220673L106.71,161.31733381748197L118.56666666666666,170.63210928440094L130.42333333333332,175.91146910190582L142.28,175.93935871124268L154.13666666666666,177.0718570947647L165.99333333333334,178.63707089424133L177.85,178.88857626914975L189.70666666666665,179.16929090023044L201.56333333333333,179.20767331123352L213.42,179.15226423740387L225.27666666666664,179.15154004096985L237.13333333333333,179.19793689250946L248.98999999999998,179.15062272548676L260.84666666666664,179.16921043395996L272.7033333333333,179.19265830516815L284.56,179.19782423973083L296.4166666666667,179.21055400371552L308.2733333333333,179.21124601364136L320.13,179.21383702754974L331.9866666666667,179.21441638469696L343.8433333333333,179.21522104740143L355.7,179.21660506725314L367.5566666666667,179.21671772003177L379.4133333333333,179.2167820930481L391.27000000000004,179.2168303728104L403.12666666666667,179.21694302558902L414.98333333333335,179.21694302558902L426.84,179.21695911884305L438.69666666666666,179.21695911884305L450.5533333333333,179.21695911884305L462.41,179.21697521209717L474.26666666666665,179.21697521209717L486.12333333333333,179.21697521209717L497.97999999999996,179.21697521209717L509.83666666666664,179.21697521209717L521.6933333333333,179.21697521209717L533.55,179.21697521209717L545.4066666666666,179.21697521209717L557.2633333333333,179.21697521209717L569.12,179.21697521209717L580.9766666666667,179.21697521209717L592.8333333333334,179.21697521209717L604.6899999999999,179.21697521209717L616.5466666666666,179.21697521209717L628.4033333333333,179.21697521209717L640.26,179.21697521209717" style="fill: none;" fill="none"></path></g><g><path stroke="rgb(204, 51, 17)" stroke-width="2px" d="M59.28333333333333,-93.89500951766968L71.14,81.41521239280699L82.99666666666667,131.8663408756256L94.85333333333332,145.2728583812714L106.71,165.73858523368835L118.56666666666666,170.3718330860138L130.42333333333332,171.98036992549893L142.28,174.2582734823227L154.13666666666666,176.10661590099332L165.99333333333334,177.04681599140164L177.85,177.3056277036667L189.70666666666665,177.47306191921234L201.56333333333333,177.55043828487396L213.42,177.57993721961975L225.27666666666664,177.6034494638443L237.13333333333333,177.65979194641113L248.98999999999998,177.68798732757568L260.84666666666664,177.6699789762497L272.7033333333333,177.67152392864227L284.56,177.6835616827011L296.4166666666667,177.68179142475128L308.2733333333333,177.6808741092682L320.13,177.68071317672727L331.9866666666667,177.68079364299774L343.8433333333333,177.68224203586578L355.7,177.6823707818985L367.5566666666667,177.68264436721802L379.4133333333333,177.68269264698029L391.27000000000004,177.6827248334885L403.12666666666667,177.68275701999664L414.98333333333335,177.68278920650482L426.84,177.68278920650482L438.69666666666666,177.68278920650482L450.5533333333333,177.68278920650482L462.41,177.68278920650482L474.26666666666665,177.68278920650482L486.12333333333333,177.68278920650482L497.97999999999996,177.68278920650482L509.83666666666664,177.68278920650482L521.6933333333333,177.68278920650482L533.55,177.68278920650482L545.4066666666666,177.68278920650482L557.2633333333333,177.68278920650482L569.12,177.68278920650482L580.9766666666667,177.68278920650482L592.8333333333334,177.68278920650482L604.6899999999999,177.68278920650482L616.5466666666666,177.68278920650482L628.4033333333333,177.68278920650482L640.26,177.68278920650482" style="fill: none;" fill="none"></path></g></g></g></g></g><g><g opacity="0.967478"><span fill="rgb(0, 0, 0)" stroke="none" stroke-width="1px">Alt + Scroll to Zoom</span></g></g></g><g transform="translate(50, 378)" clip-path="url(#clip_1)"><clipPath id="clip_1"><rect width="711" height="22"></rect></clipPath><g><g><line x1="0" y1="0" x2="0" y2="5" style="visibility: inherit;" fill="rgb(0, 0, 0)" stroke="rgb(204, 204, 204)" stroke-width="1px"></line><line x1="59.28333333333333" y1="0" x2="59.28333333333333" y2="5" style="visibility: inherit;" fill="rgb(0, 0, 0)" stroke="rgb(204, 204, 204)" stroke-width="1px"></line><line x1="118.56666666666666" y1="0" x2="118.56666666666666" y2="5" style="visibility: inherit;" fill="rgb(0, 0, 0)" stroke="rgb(204, 204, 204)" stroke-width="1px"></line><line x1="177.85" y1="0" x2="177.85" y2="5" style="visibility: inherit;" fill="rgb(0, 0, 0)" stroke="rgb(204, 204, 204)" stroke-width="1px"></line><line x1="237.13333333333333" y1="0" x2="237.13333333333333" y2="5" style="visibility: inherit;" fill="rgb(0, 0, 0)" stroke="rgb(204, 204, 204)" stroke-width="1px"></line><line x1="296.4166666666667" y1="0" x2="296.4166666666667" y2="5" style="visibility: inherit;" fill="rgb(0, 0, 0)" stroke="rgb(204, 204, 204)" stroke-width="1px"></line><line x1="355.7" y1="0" x2="355.7" y2="5" style="visibility: inherit;" fill="rgb(0, 0, 0)" stroke="rgb(204, 204, 204)" stroke-width="1px"></line><line x1="414.98333333333335" y1="0" x2="414.98333333333335" y2="5" style="visibility: inherit;" fill="rgb(0, 0, 0)" stroke="rgb(204, 204, 204)" stroke-width="1px"></line><line x1="474.26666666666665" y1="0" x2="474.26666666666665" y2="5" style="visibility: inherit;" fill="rgb(0, 0, 0)" stroke="rgb(204, 204, 204)" stroke-width="1px"></line><line x1="533.55" y1="0" x2="533.55" y2="5" style="visibility: inherit;" fill="rgb(0, 0, 0)" stroke="rgb(204, 204, 204)" stroke-width="1px"></line><line x1="592.8333333333334" y1="0" x2="592.8333333333334" y2="5" style="visibility: inherit;" fill="rgb(0, 0, 0)" stroke="rgb(204, 204, 204)" stroke-width="1px"></line><line x1="652.1166666666667" y1="0" x2="652.1166666666667" y2="5" style="visibility: inherit;" fill="rgb(0, 0, 0)" stroke="rgb(204, 204, 204)" stroke-width="1px"></line><line x1="711.4" y1="0" x2="711.4" y2="5" style="visibility: inherit;" fill="rgb(0, 0, 0)" stroke="rgb(204, 204, 204)" stroke-width="1px"></line></g><g transform="translate(0, 8)"><text x="0" y="0" dx="0em" dy="0.95em" style="text-anchor: middle; visibility: hidden; font-family: Roboto, sans-serif; font-size: 12px; font-weight: 200;" fill="rgb(50, 49, 63)" stroke="none" stroke-width="1px">-5</text><text x="59.28333333333333" y="0" dx="0em" dy="0.95em" style="text-anchor: middle; visibility: inherit; font-family: Roboto, sans-serif; font-size: 12px; font-weight: 200;" fill="rgb(50, 49, 63)" stroke="none" stroke-width="1px">0</text><text x="118.56666666666666" y="0" dx="0em" dy="0.95em" style="text-anchor: middle; visibility: inherit; font-family: Roboto, sans-serif; font-size: 12px; font-weight: 200;" fill="rgb(50, 49, 63)" stroke="none" stroke-width="1px">5</text><text x="177.85" y="0" dx="0em" dy="0.95em" style="text-anchor: middle; visibility: inherit; font-family: Roboto, sans-serif; font-size: 12px; font-weight: 200;" fill="rgb(50, 49, 63)" stroke="none" stroke-width="1px">10</text><text x="237.13333333333333" y="0" dx="0em" dy="0.95em" style="text-anchor: middle; visibility: inherit; font-family: Roboto, sans-serif; font-size: 12px; font-weight: 200;" fill="rgb(50, 49, 63)" stroke="none" stroke-width="1px">15</text><text x="296.4166666666667" y="0" dx="0em" dy="0.95em" style="text-anchor: middle; visibility: inherit; font-family: Roboto, sans-serif; font-size: 12px; font-weight: 200;" fill="rgb(50, 49, 63)" stroke="none" stroke-width="1px">20</text><text x="355.7" y="0" dx="0em" dy="0.95em" style="text-anchor: middle; visibility: inherit; font-family: Roboto, sans-serif; font-size: 12px; font-weight: 200;" fill="rgb(50, 49, 63)" stroke="none" stroke-width="1px">25</text><text x="414.98333333333335" y="0" dx="0em" dy="0.95em" style="text-anchor: middle; visibility: inherit; font-family: Roboto, sans-serif; font-size: 12px; font-weight: 200;" fill="rgb(50, 49, 63)" stroke="none" stroke-width="1px">30</text><text x="474.26666666666665" y="0" dx="0em" dy="0.95em" style="text-anchor: middle; visibility: inherit; font-family: Roboto, sans-serif; font-size: 12px; font-weight: 200;" fill="rgb(50, 49, 63)" stroke="none" stroke-width="1px">35</text><text x="533.55" y="0" dx="0em" dy="0.95em" style="text-anchor: middle; visibility: inherit; font-family: Roboto, sans-serif; font-size: 12px; font-weight: 200;" fill="rgb(50, 49, 63)" stroke="none" stroke-width="1px">40</text><text x="592.8333333333334" y="0" dx="0em" dy="0.95em" style="text-anchor: middle; visibility: inherit; font-family: Roboto, sans-serif; font-size: 12px; font-weight: 200;" fill="rgb(50, 49, 63)" stroke="none" stroke-width="1px">45</text><text x="652.1166666666667" y="0" dx="0em" dy="0.95em" style="text-anchor: middle; visibility: inherit; font-family: Roboto, sans-serif; font-size: 12px; font-weight: 200;" fill="rgb(50, 49, 63)" stroke="none" stroke-width="1px">50</text><text x="711.4" y="0" dx="0em" dy="0.95em" style="text-anchor: middle; visibility: hidden; font-family: Roboto, sans-serif; font-size: 12px; font-weight: 200;" fill="rgb(50, 49, 63)" stroke="none" stroke-width="1px">55</text></g><line x1="0" y1="0" x2="711.4" y2="0" fill="rgb(0, 0, 0)" stroke="rgb(204, 204, 204)" stroke-width="1px"></line></g></g></g></g></svg>