<svg viewBox="0 0 761.4000244140625 400" xmlns="http://www.w3.org/2000/svg"><g><g><g><g><g><line x1="60" y1="378" x2="55" y2="378" style="visibility: inherit;" fill="rgb(0, 0, 0)" stroke="rgb(204, 204, 204)" stroke-width="1px"></line><line x1="60" y1="351" x2="55" y2="351" style="visibility: inherit;" fill="rgb(0, 0, 0)" stroke="rgb(204, 204, 204)" stroke-width="1px"></line><line x1="60" y1="324" x2="55" y2="324" style="visibility: inherit;" fill="rgb(0, 0, 0)" stroke="rgb(204, 204, 204)" stroke-width="1px"></line><line x1="60" y1="297" x2="55" y2="297" style="visibility: inherit;" fill="rgb(0, 0, 0)" stroke="rgb(204, 204, 204)" stroke-width="1px"></line><line x1="60" y1="270" x2="55" y2="270" style="visibility: inherit;" fill="rgb(0, 0, 0)" stroke="rgb(204, 204, 204)" stroke-width="1px"></line><line x1="60" y1="242.99999999999997" x2="55" y2="242.99999999999997" style="visibility: inherit;" fill="rgb(0, 0, 0)" stroke="rgb(204, 204, 204)" stroke-width="1px"></line><line x1="60" y1="216" x2="55" y2="216" style="visibility: inherit;" fill="rgb(0, 0, 0)" stroke="rgb(204, 204, 204)" stroke-width="1px"></line><line x1="60" y1="189" x2="55" y2="189" style="visibility: inherit;" fill="rgb(0, 0, 0)" stroke="rgb(204, 204, 204)" stroke-width="1px"></line><line x1="60" y1="162" x2="55" y2="162" style="visibility: inherit;" fill="rgb(0, 0, 0)" stroke="rgb(204, 204, 204)" stroke-width="1px"></line><line x1="60" y1="134.99999999999997" x2="55" y2="134.99999999999997" style="visibility: inherit;" fill="rgb(0, 0, 0)" stroke="rgb(204, 204, 204)" stroke-width="1px"></line><line x1="60" y1="108" x2="55" y2="108" style="visibility: inherit;" fill="rgb(0, 0, 0)" stroke="rgb(204, 204, 204)" stroke-width="1px"></line><line x1="60" y1="81" x2="55" y2="81" style="visibility: inherit;" fill="rgb(0, 0, 0)" stroke="rgb(204, 204, 204)" stroke-width="1px"></line><line x1="60" y1="54.00000000000002" x2="55" y2="54.00000000000002" style="visibility: inherit;" fill="rgb(0, 0, 0)" stroke="rgb(204, 204, 204)" stroke-width="1px"></line><line x1="60" y1="26.99999999999999" x2="55" y2="26.99999999999999" style="visibility: inherit;" fill="rgb(0, 0, 0)" stroke="rgb(204, 204, 204)" stroke-width="1px"></line><line x1="60" y1="0" x2="55" y2="0" style="visibility: inherit;" fill="rgb(0, 0, 0)" stroke="rgb(204, 204, 204)" stroke-width="1px"></line></g><g transform="translate(50, 0)"><text x="0" y="378" dx="0em" dy="0.3em" style="text-anchor: end; visibility: hidden; font-family: Roboto, sans-serif; font-size: 12px; font-weight: 200;" fill="rgb(50, 49, 63)" stroke="none" stroke-width="1px">0.83</text><text x="0" y="351" dx="0em" dy="0.3em" style="text-anchor: end; visibility: inherit; font-family: Roboto, sans-serif; font-size: 12px; font-weight: 200;" fill="rgb(50, 49, 63)" stroke="none" stroke-width="1px">0.835</text><text x="0" y="324" dx="0em" dy="0.3em" style="text-anchor: end; visibility: inherit; font-family: Roboto, sans-serif; font-size: 12px; font-weight: 200;" fill="rgb(50, 49, 63)" stroke="none" stroke-width="1px">0.84</text><text x="0" y="297" dx="0em" dy="0.3em" style="text-anchor: end; visibility: inherit; font-family: Roboto, sans-serif; font-size: 12px; font-weight: 200;" fill="rgb(50, 49, 63)" stroke="none" stroke-width="1px">0.845</text><text x="0" y="270" dx="0em" dy="0.3em" style="text-anchor: end; visibility: inherit; font-family: Roboto, sans-serif; font-size: 12px; font-weight: 200;" fill="rgb(50, 49, 63)" stroke="none" stroke-width="1px">0.85</text><text x="0" y="242.99999999999997" dx="0em" dy="0.3em" style="text-anchor: end; visibility: inherit; font-family: Roboto, sans-serif; font-size: 12px; font-weight: 200;" fill="rgb(50, 49, 63)" stroke="none" stroke-width="1px">0.855</text><text x="0" y="216" dx="0em" dy="0.3em" style="text-anchor: end; visibility: inherit; font-family: Roboto, sans-serif; font-size: 12px; font-weight: 200;" fill="rgb(50, 49, 63)" stroke="none" stroke-width="1px">0.86</text><text x="0" y="189" dx="0em" dy="0.3em" style="text-anchor: end; visibility: inherit; font-family: Roboto, sans-serif; font-size: 12px; font-weight: 200;" fill="rgb(50, 49, 63)" stroke="none" stroke-width="1px">0.865</text><text x="0" y="162" dx="0em" dy="0.3em" style="text-anchor: end; visibility: inherit; font-family: Roboto, sans-serif; font-size: 12px; font-weight: 200;" fill="rgb(50, 49, 63)" stroke="none" stroke-width="1px">0.87</text><text x="0" y="134.99999999999997" dx="0em" dy="0.3em" style="text-anchor: end; visibility: inherit; font-family: Roboto, sans-serif; font-size: 12px; font-weight: 200;" fill="rgb(50, 49, 63)" stroke="none" stroke-width="1px">0.875</text><text x="0" y="108" dx="0em" dy="0.3em" style="text-anchor: end; visibility: inherit; font-family: Roboto, sans-serif; font-size: 12px; font-weight: 200;" fill="rgb(50, 49, 63)" stroke="none" stroke-width="1px">0.88</text><text x="0" y="81" dx="0em" dy="0.3em" style="text-anchor: end; visibility: inherit; font-family: Roboto, sans-serif; font-size: 12px; font-weight: 200;" fill="rgb(50, 49, 63)" stroke="none" stroke-width="1px">0.885</text><text x="0" y="54.00000000000002" dx="0em" dy="0.3em" style="text-anchor: end; visibility: inherit; font-family: Roboto, sans-serif; font-size: 12px; font-weight: 200;" fill="rgb(50, 49, 63)" stroke="none" stroke-width="1px">0.89</text><text x="0" y="26.99999999999999" dx="0em" dy="0.3em" style="text-anchor: end; visibility: inherit; font-family: Roboto, sans-serif; font-size: 12px; font-weight: 200;" fill="rgb(50, 49, 63)" stroke="none" stroke-width="1px">0.895</text><text x="0" y="0" dx="0em" dy="0.3em" style="text-anchor: end; visibility: hidden; font-family: Roboto, sans-serif; font-size: 12px; font-weight: 200;" fill="rgb(50, 49, 63)" stroke="none" stroke-width="1px">0.9</text></g><line x1="60" y1="0" x2="60" y2="378" fill="rgb(0, 0, 0)" stroke="rgb(204, 204, 204)" stroke-width="1px"></line></g></g><g transform="translate(60, 0)" clip-path="url(#clip_0)"><clipPath id="clip_0"><rect width="701" height="378"></rect></clipPath><g><g><g><line x1="0" y1="0" x2="0" y2="378" fill="rgb(0, 0, 0)" stroke="rgb(60, 60, 60)" stroke-width="1px" opacity="0.25"></line><line x1="58.449999999999996" y1="0" x2="58.449999999999996" y2="378" fill="rgb(0, 0, 0)" stroke="rgb(60, 60, 60)" stroke-width="1px" opacity="0.25"></line><line x1="116.89999999999999" y1="0" x2="116.89999999999999" y2="378" fill="rgb(0, 0, 0)" stroke="rgb(60, 60, 60)" stroke-width="1px" opacity="0.25"></line><line x1="175.35" y1="0" x2="175.35" y2="378" fill="rgb(0, 0, 0)" stroke="rgb(60, 60, 60)" stroke-width="1px" opacity="0.25"></line><line x1="233.79999999999998" y1="0" x2="233.79999999999998" y2="378" fill="rgb(0, 0, 0)" stroke="rgb(60, 60, 60)" stroke-width="1px" opacity="0.25"></line><line x1="292.25" y1="0" x2="292.25" y2="378" fill="rgb(0, 0, 0)" stroke="rgb(60, 60, 60)" stroke-width="1px" opacity="0.25"></line><line x1="350.7" y1="0" x2="350.7" y2="378" fill="rgb(0, 0, 0)" stroke="rgb(60, 60, 60)" stroke-width="1px" opacity="0.25"></line><line x1="409.15000000000003" y1="0" x2="409.15000000000003" y2="378" fill="rgb(0, 0, 0)" stroke="rgb(60, 60, 60)" stroke-width="1px" opacity="0.25"></line><line x1="467.59999999999997" y1="0" x2="467.59999999999997" y2="378" fill="rgb(0, 0, 0)" stroke="rgb(60, 60, 60)" stroke-width="1px" opacity="0.25"></line><line x1="526.05" y1="0" x2="526.05" y2="378" fill="rgb(0, 0, 0)" stroke="rgb(60, 60, 60)" stroke-width="1px" opacity="0.25"></line><line x1="584.5" y1="0" x2="584.5" y2="378" fill="rgb(0, 0, 0)" stroke="rgb(60, 60, 60)" stroke-width="1px" opacity="0.25"></line><line x1="642.9499999999999" y1="0" x2="642.9499999999999" y2="378" fill="rgb(0, 0, 0)" stroke="rgb(60, 60, 60)" stroke-width="1px" opacity="0.25"></line><line x1="701.4" y1="0" x2="701.4" y2="378" fill="rgb(0, 0, 0)" stroke="rgb(60, 60, 60)" stroke-width="1px" opacity="0.25"></line></g><g><line x1="0" y1="378" x2="701.4" y2="378" fill="rgb(0, 0, 0)" stroke="rgb(60, 60, 60)" stroke-width="1px" opacity="0.25"></line><line x1="0" y1="351" x2="701.4" y2="351" fill="rgb(0, 0, 0)" stroke="rgb(60, 60, 60)" stroke-width="1px" opacity="0.25"></line><line x1="0" y1="324" x2="701.4" y2="324" fill="rgb(0, 0, 0)" stroke="rgb(60, 60, 60)" stroke-width="1px" opacity="0.25"></line><line x1="0" y1="297" x2="701.4" y2="297" fill="rgb(0, 0, 0)" stroke="rgb(60, 60, 60)" stroke-width="1px" opacity="0.25"></line><line x1="0" y1="270" x2="701.4" y2="270" fill="rgb(0, 0, 0)" stroke="rgb(60, 60, 60)" stroke-width="1px" opacity="0.25"></line><line x1="0" y1="242.99999999999997" x2="701.4" y2="242.99999999999997" fill="rgb(0, 0, 0)" stroke="rgb(60, 60, 60)" stroke-width="1px" opacity="0.25"></line><line x1="0" y1="216" x2="701.4" y2="216" fill="rgb(0, 0, 0)" stroke="rgb(60, 60, 60)" stroke-width="1px" opacity="0.25"></line><line x1="0" y1="189" x2="701.4" y2="189" fill="rgb(0, 0, 0)" stroke="rgb(60, 60, 60)" stroke-width="1px" opacity="0.25"></line><line x1="0" y1="162" x2="701.4" y2="162" fill="rgb(0, 0, 0)" stroke="rgb(60, 60, 60)" stroke-width="1px" opacity="0.25"></line><line x1="0" y1="134.99999999999997" x2="701.4" y2="134.99999999999997" fill="rgb(0, 0, 0)" stroke="rgb(60, 60, 60)" stroke-width="1px" opacity="0.25"></line><line x1="0" y1="108" x2="701.4" y2="108" fill="rgb(0, 0, 0)" stroke="rgb(60, 60, 60)" stroke-width="1px" opacity="0.25"></line><line x1="0" y1="81" x2="701.4" y2="81" fill="rgb(0, 0, 0)" stroke="rgb(60, 60, 60)" stroke-width="1px" opacity="0.25"></line><line x1="0" y1="54.00000000000002" x2="701.4" y2="54.00000000000002" fill="rgb(0, 0, 0)" stroke="rgb(60, 60, 60)" stroke-width="1px" opacity="0.25"></line><line x1="0" y1="26.99999999999999" x2="701.4" y2="26.99999999999999" fill="rgb(0, 0, 0)" stroke="rgb(60, 60, 60)" stroke-width="1px" opacity="0.25"></line><line x1="0" y1="0" x2="701.4" y2="0" fill="rgb(0, 0, 0)" stroke="rgb(60, 60, 60)" stroke-width="1px" opacity="0.25"></line></g></g></g><g><g><line x1="0" y1="4859.999999999995" x2="701.4" y2="4859.999999999995" fill="rgb(0, 0, 0)" stroke="rgb(153, 153, 153)" stroke-width="1.5px"></line></g></g><g><g><line x1="58.449999999999996" y1="0" x2="58.449999999999996" y2="378" fill="rgb(0, 0, 0)" stroke="rgb(153, 153, 153)" stroke-width="1.5px"></line></g></g><g><g><g><g><g><path stroke="rgb(255, 112, 67)" stroke-width="2px" d="M58.449999999999996,608.3080744743343L70.14,279.41699981689436L81.83,218.97974967956537L93.52,188.0581712722778L105.21,138.8652777671814L116.89999999999999,98.10524940490727L128.58999999999997,95.29407978057864L140.28,99.51051235198976L151.97,89.67206239700322L163.66,65.77808618545536L175.35,65.77808618545536L187.04,69.99484062194831L198.73,71.40042543411262L210.42,71.40042543411262L222.10999999999999,72.80568838119511L233.79999999999998,72.80568838119511L245.48999999999998,71.40042543411262L257.17999999999995,71.40042543411262L268.87,71.40042543411262L280.56,71.40042543411262L292.25,71.40042543411262L303.94,71.40042543411262L315.63,71.40042543411262L327.32,71.40042543411262L339.01,71.40042543411262L350.7,71.40042543411262L362.39000000000004,71.40042543411262L374.08,71.40042543411262L385.77000000000004,71.40042543411262L397.46,71.40042543411262L409.15000000000003,71.40042543411262L420.84,71.40042543411262L432.53000000000003,71.40042543411262L444.21999999999997,71.40042543411262L455.91,71.40042543411262L467.59999999999997,71.40042543411262L479.29,71.40042543411262L490.97999999999996,71.40042543411262L502.67,71.40042543411262L514.3599999999999,71.40042543411262L526.05,71.40042543411262L537.74,71.40042543411262L549.43,71.40042543411262L561.12,71.40042543411262L572.81,71.40042543411262L584.5,71.40042543411262L596.1899999999999,71.40042543411262L607.88,71.40042543411262L619.5699999999999,71.40042543411262L631.26,71.40042543411262" style="fill: none;" fill="none"></path></g><g><path stroke="rgb(51, 187, 238)" stroke-width="2px" d="M70.14,439.78241443634005L81.83,339.0045261383055L93.52,206.03433609008783L105.21,189.23780679702753L116.89999999999999,145.84749698638916L128.58999999999997,147.2472882270813L140.28,159.84444379806516L151.97,141.64844512939453L163.66,141.64844512939453L175.35,129.05128955841064L187.04,130.4510807991028L198.73,131.85055017471316L210.42,129.05128955841064L222.10999999999999,127.6514983177185L233.79999999999998,127.6514983177185L245.48999999999998,126.25202894210817L257.17999999999995,126.25202894210817L268.87,126.25202894210817L280.56,126.25202894210817L292.25,126.25202894210817L303.94,126.25202894210817L315.63,126.25202894210817L327.32,126.25202894210817L339.01,126.25202894210817L350.7,126.25202894210817L362.39000000000004,126.25202894210817L374.08,126.25202894210817L385.77000000000004,126.25202894210817L397.46,126.25202894210817L409.15000000000003,126.25202894210817L420.84,126.25202894210817L432.53000000000003,126.25202894210817L444.21999999999997,126.25202894210817L455.91,126.25202894210817L467.59999999999997,126.25202894210817L479.29,126.25202894210817L490.97999999999996,126.25202894210817L502.67,126.25202894210817L514.3599999999999,126.25202894210817L526.05,126.25202894210817L537.74,126.25202894210817L549.43,126.25202894210817L561.12,126.25202894210817L572.81,126.25202894210817L584.5,126.25202894210817L596.1899999999999,126.25202894210817L607.88,126.25202894210817L619.5699999999999,126.25202894210817L631.26,126.25202894210817" style="fill: none;" fill="none"></path></g><g><path stroke="rgb(238, 51, 119)" stroke-width="2px" d="M58.449999999999996,574.1523957252499L70.14,312.4104237556456L81.83,193.43685865402216L93.52,162.64370441436765L105.21,105.25676965713505L116.89999999999999,91.25982284545904L128.58999999999997,87.0607709884644L140.28,88.46024036407475L151.97,89.86003160476687L163.66,75.86308479309086L175.35,68.86477231979374L187.04,64.66572046279914L198.73,64.66572046279914L210.42,66.0651898384095L222.10999999999999,66.0651898384095L233.79999999999998,64.66572046279914L245.48999999999998,67.46498107910162L257.17999999999995,68.86477231979374L268.87,66.0651898384095L280.56,68.86477231979374L292.25,68.86477231979374L303.94,68.86477231979374L315.63,68.86477231979374L327.32,68.86477231979374L339.01,68.86477231979374L350.7,68.86477231979374L362.39000000000004,68.86477231979374L374.08,68.86477231979374L385.77000000000004,68.86477231979374L397.46,68.86477231979374L409.15000000000003,68.86477231979374L420.84,68.86477231979374L432.53000000000003,68.86477231979374L444.21999999999997,68.86477231979374L455.91,68.86477231979374L467.59999999999997,68.86477231979374L479.29,68.86477231979374L490.97999999999996,68.86477231979374L502.67,68.86477231979374L514.3599999999999,68.86477231979374L526.05,68.86477231979374L537.74,68.86477231979374L549.43,68.86477231979374L561.12,68.86477231979374L572.81,68.86477231979374L584.5,68.86477231979374L596.1899999999999,68.86477231979374L607.88,68.86477231979374L619.5699999999999,68.86477231979374L631.26,68.86477231979374" style="fill: none;" fill="none"></path></g><g><path stroke="rgb(0, 119, 187)" stroke-width="2px" d="M58.449999999999996,595.147655010223L70.14,347.40295171737654L81.83,250.82411527633658L93.52,141.64844512939453L105.21,101.05739593505862L116.89999999999999,96.85834407806398L128.58999999999997,78.66266727447515L140.28,77.26287603378303L151.97,77.26287603378303L163.66,70.2642416954041L175.35,64.66572046279914L187.04,61.86613798141485L198.73,64.66572046279914L210.42,66.0651898384095L222.10999999999999,63.26592922210698L233.79999999999998,64.66572046279914L245.48999999999998,66.0651898384095L257.17999999999995,64.66572046279914L268.87,64.66572046279914L280.56,64.66572046279914L292.25,64.66572046279914L303.94,64.66572046279914L315.63,64.66572046279914L327.32,64.66572046279914L339.01,64.66572046279914L350.7,64.66572046279914L362.39000000000004,64.66572046279914L374.08,64.66572046279914L385.77000000000004,64.66572046279914L397.46,64.66572046279914L409.15000000000003,64.66572046279914L420.84,64.66572046279914L432.53000000000003,64.66572046279914L444.21999999999997,64.66572046279914L455.91,64.66572046279914L467.59999999999997,64.66572046279914L479.29,64.66572046279914L490.97999999999996,64.66572046279914L502.67,64.66572046279914L514.3599999999999,64.66572046279914L526.05,64.66572046279914L537.74,64.66572046279914L549.43,64.66572046279914L561.12,64.66572046279914L572.81,64.66572046279914L584.5,64.66572046279914L596.1899999999999,64.66572046279914L607.88,64.66572046279914L619.5699999999999,64.66572046279914L631.26,64.66572046279914" style="fill: none;" fill="none"></path></g><g><path stroke="rgb(204, 51, 17)" stroke-width="2px" d="M58.449999999999996,539.1601896286007L70.14,322.208318710327L81.83,215.83190917968741L93.52,171.0421299934387L105.21,134.6501326560974L116.89999999999999,113.65487337112428L128.58999999999997,101.05739593505862L140.28,82.86171913146975L151.97,81.46192789077763L163.66,78.66266727447515L175.35,75.86308479309086L187.04,77.26287603378303L198.73,77.26287603378303L210.42,78.66266727447515L222.10999999999999,74.46329355239874L233.79999999999998,78.66266727447515L245.48999999999998,78.66266727447515L257.17999999999995,77.26287603378303L268.87,77.26287603378303L280.56,77.26287603378303L292.25,77.26287603378303L303.94,77.26287603378303L315.63,77.26287603378303L327.32,77.26287603378303L339.01,77.26287603378303L350.7,77.26287603378303L362.39000000000004,77.26287603378303L374.08,77.26287603378303L385.77000000000004,77.26287603378303L397.46,77.26287603378303L409.15000000000003,77.26287603378303L420.84,77.26287603378303L432.53000000000003,77.26287603378303L444.21999999999997,77.26287603378303L455.91,77.26287603378303L467.59999999999997,77.26287603378303L479.29,77.26287603378303L490.97999999999996,77.26287603378303L502.67,77.26287603378303L514.3599999999999,77.26287603378303L526.05,77.26287603378303L537.74,77.26287603378303L549.43,77.26287603378303L561.12,77.26287603378303L572.81,77.26287603378303L584.5,77.26287603378303L596.1899999999999,77.26287603378303L607.88,77.26287603378303L619.5699999999999,77.26287603378303L631.26,77.26287603378303" style="fill: none;" fill="none"></path></g></g></g></g></g></g><g transform="translate(60, 378)" clip-path="url(#clip_1)"><clipPath id="clip_1"><rect width="701" height="22"></rect></clipPath><g><g><line x1="0" y1="0" x2="0" y2="5" style="visibility: inherit;" fill="rgb(0, 0, 0)" stroke="rgb(204, 204, 204)" stroke-width="1px"></line><line x1="58.449999999999996" y1="0" x2="58.449999999999996" y2="5" style="visibility: inherit;" fill="rgb(0, 0, 0)" stroke="rgb(204, 204, 204)" stroke-width="1px"></line><line x1="116.89999999999999" y1="0" x2="116.89999999999999" y2="5" style="visibility: inherit;" fill="rgb(0, 0, 0)" stroke="rgb(204, 204, 204)" stroke-width="1px"></line><line x1="175.35" y1="0" x2="175.35" y2="5" style="visibility: inherit;" fill="rgb(0, 0, 0)" stroke="rgb(204, 204, 204)" stroke-width="1px"></line><line x1="233.79999999999998" y1="0" x2="233.79999999999998" y2="5" style="visibility: inherit;" fill="rgb(0, 0, 0)" stroke="rgb(204, 204, 204)" stroke-width="1px"></line><line x1="292.25" y1="0" x2="292.25" y2="5" style="visibility: inherit;" fill="rgb(0, 0, 0)" stroke="rgb(204, 204, 204)" stroke-width="1px"></line><line x1="350.7" y1="0" x2="350.7" y2="5" style="visibility: inherit;" fill="rgb(0, 0, 0)" stroke="rgb(204, 204, 204)" stroke-width="1px"></line><line x1="409.15000000000003" y1="0" x2="409.15000000000003" y2="5" style="visibility: inherit;" fill="rgb(0, 0, 0)" stroke="rgb(204, 204, 204)" stroke-width="1px"></line><line x1="467.59999999999997" y1="0" x2="467.59999999999997" y2="5" style="visibility: inherit;" fill="rgb(0, 0, 0)" stroke="rgb(204, 204, 204)" stroke-width="1px"></line><line x1="526.05" y1="0" x2="526.05" y2="5" style="visibility: inherit;" fill="rgb(0, 0, 0)" stroke="rgb(204, 204, 204)" stroke-width="1px"></line><line x1="584.5" y1="0" x2="584.5" y2="5" style="visibility: inherit;" fill="rgb(0, 0, 0)" stroke="rgb(204, 204, 204)" stroke-width="1px"></line><line x1="642.9499999999999" y1="0" x2="642.9499999999999" y2="5" style="visibility: inherit;" fill="rgb(0, 0, 0)" stroke="rgb(204, 204, 204)" stroke-width="1px"></line><line x1="701.4" y1="0" x2="701.4" y2="5" style="visibility: inherit;" fill="rgb(0, 0, 0)" stroke="rgb(204, 204, 204)" stroke-width="1px"></line></g><g transform="translate(0, 8)"><text x="0" y="0" dx="0em" dy="0.95em" style="text-anchor: middle; visibility: hidden; font-family: Roboto, sans-serif; font-size: 12px; font-weight: 200;" fill="rgb(50, 49, 63)" stroke="none" stroke-width="1px">-5</text><text x="58.449999999999996" y="0" dx="0em" dy="0.95em" style="text-anchor: middle; visibility: inherit; font-family: Roboto, sans-serif; font-size: 12px; font-weight: 200;" fill="rgb(50, 49, 63)" stroke="none" stroke-width="1px">0</text><text x="116.89999999999999" y="0" dx="0em" dy="0.95em" style="text-anchor: middle; visibility: inherit; font-family: Roboto, sans-serif; font-size: 12px; font-weight: 200;" fill="rgb(50, 49, 63)" stroke="none" stroke-width="1px">5</text><text x="175.35" y="0" dx="0em" dy="0.95em" style="text-anchor: middle; visibility: inherit; font-family: Roboto, sans-serif; font-size: 12px; font-weight: 200;" fill="rgb(50, 49, 63)" stroke="none" stroke-width="1px">10</text><text x="233.79999999999998" y="0" dx="0em" dy="0.95em" style="text-anchor: middle; visibility: inherit; font-family: Roboto, sans-serif; font-size: 12px; font-weight: 200;" fill="rgb(50, 49, 63)" stroke="none" stroke-width="1px">15</text><text x="292.25" y="0" dx="0em" dy="0.95em" style="text-anchor: middle; visibility: inherit; font-family: Roboto, sans-serif; font-size: 12px; font-weight: 200;" fill="rgb(50, 49, 63)" stroke="none" stroke-width="1px">20</text><text x="350.7" y="0" dx="0em" dy="0.95em" style="text-anchor: middle; visibility: inherit; font-family: Roboto, sans-serif; font-size: 12px; font-weight: 200;" fill="rgb(50, 49, 63)" stroke="none" stroke-width="1px">25</text><text x="409.15000000000003" y="0" dx="0em" dy="0.95em" style="text-anchor: middle; visibility: inherit; font-family: Roboto, sans-serif; font-size: 12px; font-weight: 200;" fill="rgb(50, 49, 63)" stroke="none" stroke-width="1px">30</text><text x="467.59999999999997" y="0" dx="0em" dy="0.95em" style="text-anchor: middle; visibility: inherit; font-family: Roboto, sans-serif; font-size: 12px; font-weight: 200;" fill="rgb(50, 49, 63)" stroke="none" stroke-width="1px">35</text><text x="526.05" y="0" dx="0em" dy="0.95em" style="text-anchor: middle; visibility: inherit; font-family: Roboto, sans-serif; font-size: 12px; font-weight: 200;" fill="rgb(50, 49, 63)" stroke="none" stroke-width="1px">40</text><text x="584.5" y="0" dx="0em" dy="0.95em" style="text-anchor: middle; visibility: inherit; font-family: Roboto, sans-serif; font-size: 12px; font-weight: 200;" fill="rgb(50, 49, 63)" stroke="none" stroke-width="1px">45</text><text x="642.9499999999999" y="0" dx="0em" dy="0.95em" style="text-anchor: middle; visibility: inherit; font-family: Roboto, sans-serif; font-size: 12px; font-weight: 200;" fill="rgb(50, 49, 63)" stroke="none" stroke-width="1px">50</text><text x="701.4" y="0" dx="0em" dy="0.95em" style="text-anchor: middle; visibility: hidden; font-family: Roboto, sans-serif; font-size: 12px; font-weight: 200;" fill="rgb(50, 49, 63)" stroke="none" stroke-width="1px">55</text></g><line x1="0" y1="0" x2="701.4" y2="0" fill="rgb(0, 0, 0)" stroke="rgb(204, 204, 204)" stroke-width="1px"></line></g></g></g></g></svg>