<svg viewBox="0 0 761.4000244140625 400" xmlns="http://www.w3.org/2000/svg"><g><g><g><g><g><line x1="50" y1="378" x2="45" y2="378" style="visibility: inherit;" fill="rgb(0, 0, 0)" stroke="rgb(204, 204, 204)" stroke-width="1px"></line><line x1="50" y1="348.9230769230769" x2="45" y2="348.9230769230769" style="visibility: inherit;" fill="rgb(0, 0, 0)" stroke="rgb(204, 204, 204)" stroke-width="1px"></line><line x1="50" y1="319.8461538461538" x2="45" y2="319.8461538461538" style="visibility: inherit;" fill="rgb(0, 0, 0)" stroke="rgb(204, 204, 204)" stroke-width="1px"></line><line x1="50" y1="290.7692307692307" x2="45" y2="290.7692307692307" style="visibility: inherit;" fill="rgb(0, 0, 0)" stroke="rgb(204, 204, 204)" stroke-width="1px"></line><line x1="50" y1="261.69230769230796" x2="45" y2="261.69230769230796" style="visibility: inherit;" fill="rgb(0, 0, 0)" stroke="rgb(204, 204, 204)" stroke-width="1px"></line><line x1="50" y1="232.61538461538478" x2="45" y2="232.61538461538478" style="visibility: inherit;" fill="rgb(0, 0, 0)" stroke="rgb(204, 204, 204)" stroke-width="1px"></line><line x1="50" y1="203.53846153846175" x2="45" y2="203.53846153846175" style="visibility: inherit;" fill="rgb(0, 0, 0)" stroke="rgb(204, 204, 204)" stroke-width="1px"></line><line x1="50" y1="174.4615384615386" x2="45" y2="174.4615384615386" style="visibility: inherit;" fill="rgb(0, 0, 0)" stroke="rgb(204, 204, 204)" stroke-width="1px"></line><line x1="50" y1="145.3846153846155" x2="45" y2="145.3846153846155" style="visibility: inherit;" fill="rgb(0, 0, 0)" stroke="rgb(204, 204, 204)" stroke-width="1px"></line><line x1="50" y1="116.30769230769239" x2="45" y2="116.30769230769239" style="visibility: inherit;" fill="rgb(0, 0, 0)" stroke="rgb(204, 204, 204)" stroke-width="1px"></line><line x1="50" y1="87.2307692307693" x2="45" y2="87.2307692307693" style="visibility: inherit;" fill="rgb(0, 0, 0)" stroke="rgb(204, 204, 204)" stroke-width="1px"></line><line x1="50" y1="58.153846153846196" x2="45" y2="58.153846153846196" style="visibility: inherit;" fill="rgb(0, 0, 0)" stroke="rgb(204, 204, 204)" stroke-width="1px"></line><line x1="50" y1="29.076923076923098" x2="45" y2="29.076923076923098" style="visibility: inherit;" fill="rgb(0, 0, 0)" stroke="rgb(204, 204, 204)" stroke-width="1px"></line><line x1="50" y1="0" x2="45" y2="0" style="visibility: inherit;" fill="rgb(0, 0, 0)" stroke="rgb(204, 204, 204)" stroke-width="1px"></line></g><g transform="translate(40, 0)"><text x="0" y="378" dx="0em" dy="0.3em" style="text-anchor: end; visibility: hidden; font-family: Roboto, sans-serif; font-size: 12px; font-weight: 200;" fill="rgb(50, 49, 63)" stroke="none" stroke-width="1px">0.78</text><text x="0" y="348.9230769230769" dx="0em" dy="0.3em" style="text-anchor: end; visibility: inherit; font-family: Roboto, sans-serif; font-size: 12px; font-weight: 200;" fill="rgb(50, 49, 63)" stroke="none" stroke-width="1px">0.79</text><text x="0" y="319.8461538461538" dx="0em" dy="0.3em" style="text-anchor: end; visibility: inherit; font-family: Roboto, sans-serif; font-size: 12px; font-weight: 200;" fill="rgb(50, 49, 63)" stroke="none" stroke-width="1px">0.8</text><text x="0" y="290.7692307692307" dx="0em" dy="0.3em" style="text-anchor: end; visibility: inherit; font-family: Roboto, sans-serif; font-size: 12px; font-weight: 200;" fill="rgb(50, 49, 63)" stroke="none" stroke-width="1px">0.81</text><text x="0" y="261.69230769230796" dx="0em" dy="0.3em" style="text-anchor: end; visibility: inherit; font-family: Roboto, sans-serif; font-size: 12px; font-weight: 200;" fill="rgb(50, 49, 63)" stroke="none" stroke-width="1px">0.82</text><text x="0" y="232.61538461538478" dx="0em" dy="0.3em" style="text-anchor: end; visibility: inherit; font-family: Roboto, sans-serif; font-size: 12px; font-weight: 200;" fill="rgb(50, 49, 63)" stroke="none" stroke-width="1px">0.83</text><text x="0" y="203.53846153846175" dx="0em" dy="0.3em" style="text-anchor: end; visibility: inherit; font-family: Roboto, sans-serif; font-size: 12px; font-weight: 200;" fill="rgb(50, 49, 63)" stroke="none" stroke-width="1px">0.84</text><text x="0" y="174.4615384615386" dx="0em" dy="0.3em" style="text-anchor: end; visibility: inherit; font-family: Roboto, sans-serif; font-size: 12px; font-weight: 200;" fill="rgb(50, 49, 63)" stroke="none" stroke-width="1px">0.85</text><text x="0" y="145.3846153846155" dx="0em" dy="0.3em" style="text-anchor: end; visibility: inherit; font-family: Roboto, sans-serif; font-size: 12px; font-weight: 200;" fill="rgb(50, 49, 63)" stroke="none" stroke-width="1px">0.86</text><text x="0" y="116.30769230769239" dx="0em" dy="0.3em" style="text-anchor: end; visibility: inherit; font-family: Roboto, sans-serif; font-size: 12px; font-weight: 200;" fill="rgb(50, 49, 63)" stroke="none" stroke-width="1px">0.87</text><text x="0" y="87.2307692307693" dx="0em" dy="0.3em" style="text-anchor: end; visibility: inherit; font-family: Roboto, sans-serif; font-size: 12px; font-weight: 200;" fill="rgb(50, 49, 63)" stroke="none" stroke-width="1px">0.88</text><text x="0" y="58.153846153846196" dx="0em" dy="0.3em" style="text-anchor: end; visibility: inherit; font-family: Roboto, sans-serif; font-size: 12px; font-weight: 200;" fill="rgb(50, 49, 63)" stroke="none" stroke-width="1px">0.89</text><text x="0" y="29.076923076923098" dx="0em" dy="0.3em" style="text-anchor: end; visibility: inherit; font-family: Roboto, sans-serif; font-size: 12px; font-weight: 200;" fill="rgb(50, 49, 63)" stroke="none" stroke-width="1px">0.9</text><text x="0" y="0" dx="0em" dy="0.3em" style="text-anchor: end; visibility: hidden; font-family: Roboto, sans-serif; font-size: 12px; font-weight: 200;" fill="rgb(50, 49, 63)" stroke="none" stroke-width="1px">0.91</text></g><line x1="50" y1="0" x2="50" y2="378" fill="rgb(0, 0, 0)" stroke="rgb(204, 204, 204)" stroke-width="1px"></line></g></g><g transform="translate(50, 0)" clip-path="url(#clip_0)"><clipPath id="clip_0"><rect width="711" height="378"></rect></clipPath><g><g><g><line x1="0" y1="0" x2="0" y2="378" fill="rgb(0, 0, 0)" stroke="rgb(60, 60, 60)" stroke-width="1px" opacity="0.25"></line><line x1="59.28333333333333" y1="0" x2="59.28333333333333" y2="378" fill="rgb(0, 0, 0)" stroke="rgb(60, 60, 60)" stroke-width="1px" opacity="0.25"></line><line x1="118.56666666666666" y1="0" x2="118.56666666666666" y2="378" fill="rgb(0, 0, 0)" stroke="rgb(60, 60, 60)" stroke-width="1px" opacity="0.25"></line><line x1="177.85" y1="0" x2="177.85" y2="378" fill="rgb(0, 0, 0)" stroke="rgb(60, 60, 60)" stroke-width="1px" opacity="0.25"></line><line x1="237.13333333333333" y1="0" x2="237.13333333333333" y2="378" fill="rgb(0, 0, 0)" stroke="rgb(60, 60, 60)" stroke-width="1px" opacity="0.25"></line><line x1="296.4166666666667" y1="0" x2="296.4166666666667" y2="378" fill="rgb(0, 0, 0)" stroke="rgb(60, 60, 60)" stroke-width="1px" opacity="0.25"></line><line x1="355.7" y1="0" x2="355.7" y2="378" fill="rgb(0, 0, 0)" stroke="rgb(60, 60, 60)" stroke-width="1px" opacity="0.25"></line><line x1="414.98333333333335" y1="0" x2="414.98333333333335" y2="378" fill="rgb(0, 0, 0)" stroke="rgb(60, 60, 60)" stroke-width="1px" opacity="0.25"></line><line x1="474.26666666666665" y1="0" x2="474.26666666666665" y2="378" fill="rgb(0, 0, 0)" stroke="rgb(60, 60, 60)" stroke-width="1px" opacity="0.25"></line><line x1="533.55" y1="0" x2="533.55" y2="378" fill="rgb(0, 0, 0)" stroke="rgb(60, 60, 60)" stroke-width="1px" opacity="0.25"></line><line x1="592.8333333333334" y1="0" x2="592.8333333333334" y2="378" fill="rgb(0, 0, 0)" stroke="rgb(60, 60, 60)" stroke-width="1px" opacity="0.25"></line><line x1="652.1166666666667" y1="0" x2="652.1166666666667" y2="378" fill="rgb(0, 0, 0)" stroke="rgb(60, 60, 60)" stroke-width="1px" opacity="0.25"></line><line x1="711.4" y1="0" x2="711.4" y2="378" fill="rgb(0, 0, 0)" stroke="rgb(60, 60, 60)" stroke-width="1px" opacity="0.25"></line></g><g><line x1="0" y1="378" x2="711.4" y2="378" fill="rgb(0, 0, 0)" stroke="rgb(60, 60, 60)" stroke-width="1px" opacity="0.25"></line><line x1="0" y1="348.9230769230769" x2="711.4" y2="348.9230769230769" fill="rgb(0, 0, 0)" stroke="rgb(60, 60, 60)" stroke-width="1px" opacity="0.25"></line><line x1="0" y1="319.8461538461538" x2="711.4" y2="319.8461538461538" fill="rgb(0, 0, 0)" stroke="rgb(60, 60, 60)" stroke-width="1px" opacity="0.25"></line><line x1="0" y1="290.7692307692307" x2="711.4" y2="290.7692307692307" fill="rgb(0, 0, 0)" stroke="rgb(60, 60, 60)" stroke-width="1px" opacity="0.25"></line><line x1="0" y1="261.69230769230796" x2="711.4" y2="261.69230769230796" fill="rgb(0, 0, 0)" stroke="rgb(60, 60, 60)" stroke-width="1px" opacity="0.25"></line><line x1="0" y1="232.61538461538478" x2="711.4" y2="232.61538461538478" fill="rgb(0, 0, 0)" stroke="rgb(60, 60, 60)" stroke-width="1px" opacity="0.25"></line><line x1="0" y1="203.53846153846175" x2="711.4" y2="203.53846153846175" fill="rgb(0, 0, 0)" stroke="rgb(60, 60, 60)" stroke-width="1px" opacity="0.25"></line><line x1="0" y1="174.4615384615386" x2="711.4" y2="174.4615384615386" fill="rgb(0, 0, 0)" stroke="rgb(60, 60, 60)" stroke-width="1px" opacity="0.25"></line><line x1="0" y1="145.3846153846155" x2="711.4" y2="145.3846153846155" fill="rgb(0, 0, 0)" stroke="rgb(60, 60, 60)" stroke-width="1px" opacity="0.25"></line><line x1="0" y1="116.30769230769239" x2="711.4" y2="116.30769230769239" fill="rgb(0, 0, 0)" stroke="rgb(60, 60, 60)" stroke-width="1px" opacity="0.25"></line><line x1="0" y1="87.2307692307693" x2="711.4" y2="87.2307692307693" fill="rgb(0, 0, 0)" stroke="rgb(60, 60, 60)" stroke-width="1px" opacity="0.25"></line><line x1="0" y1="58.153846153846196" x2="711.4" y2="58.153846153846196" fill="rgb(0, 0, 0)" stroke="rgb(60, 60, 60)" stroke-width="1px" opacity="0.25"></line><line x1="0" y1="29.076923076923098" x2="711.4" y2="29.076923076923098" fill="rgb(0, 0, 0)" stroke="rgb(60, 60, 60)" stroke-width="1px" opacity="0.25"></line><line x1="0" y1="0" x2="711.4" y2="0" fill="rgb(0, 0, 0)" stroke="rgb(60, 60, 60)" stroke-width="1px" opacity="0.25"></line></g></g></g><g><g><line x1="0" y1="2646" x2="711.4" y2="2646" fill="rgb(0, 0, 0)" stroke="rgb(153, 153, 153)" stroke-width="1.5px"></line></g></g><g><g><line x1="59.28333333333333" y1="0" x2="59.28333333333333" y2="378" fill="rgb(0, 0, 0)" stroke="rgb(153, 153, 153)" stroke-width="1.5px"></line></g></g><g><g><g><g><g><path stroke="rgb(255, 112, 67)" stroke-width="2px" d="M59.28333333333333,356.6274247169495L71.14,179.5322306706356L82.99666666666667,146.98909598130456L94.85333333333332,130.3390153004574L106.71,103.85053418232852L118.56666666666666,81.90282660264245L130.42333333333332,80.3891198818501L142.28,82.65950665107148L154.13666666666666,77.36187975223258L165.99333333333334,64.49589256139912L177.85,64.49589256139912L189.70666666666665,66.7664526425876L201.56333333333333,67.52330600298376L213.42,67.52330600298376L225.27666666666664,68.27998605141282L237.13333333333333,68.27998605141282L248.98999999999998,67.52330600298376L260.84666666666664,67.52330600298376L272.7033333333333,67.52330600298376L284.56,67.52330600298376L296.4166666666667,67.52330600298376L308.2733333333333,67.52330600298376L320.13,67.52330600298376L331.9866666666667,67.52330600298376L343.8433333333333,67.52330600298376L355.7,67.52330600298376L367.5566666666667,67.52330600298376L379.4133333333333,67.52330600298376L391.27000000000004,67.52330600298376L403.12666666666667,67.52330600298376L414.98333333333335,67.52330600298376L426.84,67.52330600298376L438.69666666666666,67.52330600298376L450.5533333333333,67.52330600298376L462.41,67.52330600298376L474.26666666666665,67.52330600298376L486.12333333333333,67.52330600298376L497.97999999999996,67.52330600298376L509.83666666666664,67.52330600298376L521.6933333333333,67.52330600298376L533.55,67.52330600298376L545.4066666666666,67.52330600298376L557.2633333333333,67.52330600298376L569.12,67.52330600298376L580.9766666666667,67.52330600298376L592.8333333333334,67.52330600298376L604.6899999999999,67.52330600298376L616.5466666666666,67.52330600298376L628.4033333333333,67.52330600298376L640.26,67.52330600298376" style="fill: none;" fill="none"></path></g><g><path stroke="rgb(0, 119, 187)" stroke-width="2px" d="M71.14,409.83541180537304L82.99666666666667,356.32412877449633L94.85333333333332,329.191793698531L106.71,339.7431995685285L118.56666666666666,322.40870992953967L130.42333333333332,302.0592853105986L142.28,317.88665408354547L154.13666666666666,311.8571307475751L165.99333333333334,296.02993528659533L177.85,305.82778072357183L189.70666666666665,299.7982573876015L201.56333333333333,317.88665408354547L213.42,287.73938402762786L225.27666666666664,308.08880864656896L237.13333333333333,287.73938402762786L248.98999999999998,299.04469695458056L260.84666666666664,302.0592853105986L272.7033333333333,316.37918659356933L284.56,280.95630025863653L296.4166666666667,294.5224677966192L308.2733333333333,295.2762015416073L320.13,283.97106192662176L331.9866666666667,298.29096320959246L343.8433333333333,300.5519911325896L355.7,308.08880864656896L367.5566666666667,300.5519911325896L379.4133333333333,286.23208984961883L391.27000000000004,283.21732818163366L403.12666666666667,314.1181586705722L414.98333333333335,315.62562616054834L426.84,308.08880864656896L438.69666666666666,274.9269502346333L450.5533333333333,291.50787944060113L462.41,299.04469695458056L474.26666666666665,284.7247956716098L486.12333333333333,290.75414569561303L497.97999999999996,288.49311777261596L509.83666666666664,305.0740469785838L521.6933333333333,284.7247956716098L533.55,299.04469695458056L545.4066666666666,294.5224677966192L557.2633333333333,309.596102824578L569.12,282.4637677486127L580.9766666666667,295.2762015416073L592.8333333333334,311.8571307475751L604.6899999999999,302.0592853105986L616.5466666666666,323.9160041075487L628.4033333333333,294.5224677966192L640.26,308.8423690795899" style="fill: none;" fill="none"></path></g><g><path stroke="rgb(0, 153, 136)" stroke-width="2px" d="M59.28333333333333,230.459778895745L71.14,185.23922043580285L82.99666666666667,169.41185166285598L94.85333333333332,121.93009196794958L106.71,125.69858738092283L118.56666666666666,114.39327445397019L130.42333333333332,106.85663025195792L142.28,91.78299522399911L154.13666666666666,105.34916276198177L165.99333333333334,109.11765817495503L177.85,100.07337317099946L189.70666666666665,105.34916276198177L201.56333333333333,97.0587848149814L213.42,92.53672896898718L225.27666666666664,91.78299522399911L237.13333333333333,92.53672896898718L248.98999999999998,104.59560232896081L260.84666666666664,103.84186858397274L272.7033333333333,90.27570104599008L284.56,97.81234524800234L296.4166666666667,97.0587848149814L308.2733333333333,94.04402314699621L320.13,92.53672896898718L331.9866666666667,106.10289650696984L343.8433333333333,103.08813483898463L355.7,94.79775689198428L367.5566666666667,105.34916276198177L379.4133333333333,103.84186858397274L391.27000000000004,100.82710691598753L403.12666666666667,95.55131732500524L414.98333333333335,106.10289650696984L426.84,102.3345744059637L438.69666666666666,88.01467312299297L450.5533333333333,97.81234524800234L462.41,103.84186858397274L474.26666666666665,97.81234524800234L486.12333333333333,97.81234524800234L497.97999999999996,94.04402314699621L509.83666666666664,94.04402314699621L521.6933333333333,97.81234524800234L533.55,87.26093937800489L545.4066666666666,104.59560232896081L557.2633333333333,97.81234524800234L569.12,106.85663025195792L580.9766666666667,106.85663025195792L592.8333333333334,94.79775689198428L604.6899999999999,88.76823355601393L616.5466666666666,95.55131732500524L628.4033333333333,100.07337317099946L640.26,100.07337317099946" style="fill: none;" fill="none"></path></g><g><path stroke="rgb(51, 187, 238)" stroke-width="2px" d="M59.28333333333333,341.25066705850463L71.14,242.51865225571862L82.99666666666667,191.26857045980609L94.85333333333332,167.90455748484695L106.71,127.95961530391993L118.56666666666666,121.17653153492861L130.42333333333332,118.16176986694344L142.28,115.14700819895826L154.13666666666666,112.13224653097309L165.99333333333334,116.6543023769673L177.85,113.63971402094923L189.70666666666665,113.63971402094923L201.56333333333333,103.08813483898463L213.42,95.55131732500524L225.27666666666664,102.3345744059637L237.13333333333333,91.78299522399911L248.98999999999998,101.5808406609756L260.84666666666664,103.08813483898463L272.7033333333333,98.56607899299043L284.56,93.29028940200814L296.4166666666667,97.81234524800234L308.2733333333333,111.37868609795213L320.13,108.36392442996696L331.9866666666667,108.36392442996696L343.8433333333333,109.87121860797599L355.7,101.5808406609756L367.5566666666667,98.56607899299043L379.4133333333333,93.29028940200814L391.27000000000004,87.26093937800489L403.12666666666667,99.3198127379785L414.98333333333335,86.50720563301682L426.84,114.39327445397019L438.69666666666666,102.3345744059637L450.5533333333333,94.79775689198428L462.41,108.36392442996696L474.26666666666665,106.85663025195792L486.12333333333333,98.56607899299043L497.97999999999996,103.08813483898463L509.83666666666664,103.84186858397274L521.6933333333333,105.34916276198177L533.55,106.10289650696984L545.4066666666666,100.82710691598753L557.2633333333333,100.07337317099946L569.12,104.59560232896081L580.9766666666667,101.5808406609756L592.8333333333334,101.5808406609756L604.6899999999999,104.59560232896081L616.5466666666666,94.04402314699621L628.4033333333333,106.10289650696984L640.26,109.11765817495503" style="fill: none;" fill="none"></path></g><g><path stroke="rgb(204, 51, 17)" stroke-width="2px" d="M59.28333333333333,232.7209801307092L71.14,153.5846562018762L82.99666666666667,140.77204909691454L94.85333333333332,104.59560232896081L106.71,97.0587848149814L118.56666666666666,92.53672896898718L130.42333333333332,94.79775689198428L142.28,95.55131732500524L154.13666666666666,100.07337317099946L165.99333333333334,96.30505106999331L177.85,91.78299522399911L189.70666666666665,97.0587848149814L201.56333333333333,92.53672896898718L213.42,92.53672896898718L225.27666666666664,95.55131732500524L237.13333333333333,88.76823355601393L248.98999999999998,91.78299522399911L260.84666666666664,93.29028940200814L272.7033333333333,90.27570104599008L284.56,99.3198127379785L296.4166666666667,103.84186858397274L308.2733333333333,91.02926147901104L320.13,95.55131732500524L331.9866666666667,95.55131732500524L343.8433333333333,90.27570104599008L355.7,100.82710691598753L367.5566666666667,104.59560232896081L379.4133333333333,94.04402314699621L391.27000000000004,96.30505106999331L403.12666666666667,88.01467312299297L414.98333333333335,89.52196730100201L426.84,91.02926147901104L438.69666666666666,84.99991145500779L450.5533333333333,91.78299522399911L462.41,84.99991145500779L474.26666666666665,84.24617771001972L486.12333333333333,95.55131732500524L497.97999999999996,94.04402314699621L509.83666666666664,88.01467312299297L521.6933333333333,90.27570104599008L533.55,102.3345744059637L545.4066666666666,96.30505106999331L557.2633333333333,98.56607899299043L569.12,87.26093937800489L580.9766666666667,90.27570104599008L592.8333333333334,92.53672896898718L604.6899999999999,96.30505106999331L616.5466666666666,93.29028940200814L628.4033333333333,87.26093937800489L640.26,96.30505106999331" style="fill: none;" fill="none"></path></g><g><path stroke="rgb(238, 51, 119)" stroke-width="2px" d="M59.28333333333333,290.000411950625L71.14,263.62181061964776L82.99666666666667,233.47454056373016L94.85333333333332,212.37155551176812L106.71,205.5884717427768L118.56666666666666,199.55912171877355L130.42333333333332,209.35679384378292L142.28,198.80538797378549L154.13666666666666,205.5884717427768L165.99333333333334,201.0664158967826L177.85,213.87884968977716L189.70666666666665,206.34220548776486L201.56333333333333,201.0664158967826L213.42,204.83473799778872L225.27666666666664,206.34220548776486L237.13333333333333,188.25380879182092L248.98999999999998,200.31268215179452L260.84666666666664,212.37155551176812L272.7033333333333,204.83473799778872L284.56,195.79062630580032L296.4166666666667,201.0664158967826L308.2733333333333,193.52959838280321L320.13,206.34220548776486L331.9866666666667,195.03689256081225L343.8433333333333,201.82014964177066L355.7,207.09576592078582L367.5566666666667,208.60323341076202L379.4133333333333,198.80538797378549L391.27000000000004,206.34220548776486L403.12666666666667,205.5884717427768L414.98333333333335,198.80538797378549L426.84,203.3274438197797L438.69666666666666,195.79062630580032L450.5533333333333,210.11052758877105L462.41,202.57371007479162L474.26666666666665,198.05165422879742L486.12333333333333,211.61782176678008L497.97999999999996,207.09576592078582L509.83666666666664,207.8494996657739L521.6933333333333,200.31268215179452L533.55,207.09576592078582L545.4066666666666,205.5884717427768L557.2633333333333,206.34220548776486L569.12,207.09576592078582L580.9766666666667,197.29792048380935L592.8333333333334,197.29792048380935L604.6899999999999,200.31268215179452L616.5466666666666,188.25380879182092L628.4033333333333,218.40107884773846L640.26,204.08117756476776" style="fill: none;" fill="none"></path></g><g><path stroke="rgb(187, 187, 187)" stroke-width="2px" d="M59.28333333333333,242.51865225571862L71.14,174.68764125383825L82.99666666666667,140.77204909691454L94.85333333333332,124.19111989094668L106.71,106.10289650696984L118.56666666666666,106.10289650696984L130.42333333333332,106.10289650696984L142.28,101.5808406609756L154.13666666666666,99.3198127379785L165.99333333333334,89.52196730100201L177.85,94.79775689198428L189.70666666666665,97.0587848149814L201.56333333333333,91.02926147901104L213.42,89.52196730100201L225.27666666666664,100.82710691598753L237.13333333333333,99.3198127379785L248.98999999999998,107.61019068497887L260.84666666666664,100.82710691598753L272.7033333333333,101.5808406609756L284.56,88.76823355601393L296.4166666666667,96.30505106999331L308.2733333333333,91.78299522399911L320.13,104.59560232896081L331.9866666666667,100.07337317099946L343.8433333333333,95.55131732500524L355.7,91.78299522399911L367.5566666666667,95.55131732500524L379.4133333333333,95.55131732500524L391.27000000000004,90.27570104599008L403.12666666666667,94.79775689198428L414.98333333333335,91.78299522399911L426.84,94.04402314699621L438.69666666666666,97.0587848149814L450.5533333333333,95.55131732500524L462.41,94.79775689198428L474.26666666666665,97.81234524800234L486.12333333333333,99.3198127379785L497.97999999999996,98.56607899299043L509.83666666666664,93.29028940200814L521.6933333333333,92.53672896898718L533.55,90.27570104599008L545.4066666666666,94.79775689198428L557.2633333333333,94.04402314699621L569.12,94.79775689198428L580.9766666666667,96.30505106999331L592.8333333333334,103.08813483898463L604.6899999999999,100.07337317099946L616.5466666666666,97.0587848149814L628.4033333333333,83.49244396503165L640.26,94.79775689198428" style="fill: none;" fill="none"></path></g></g></g></g></g></g><g transform="translate(50, 378)" clip-path="url(#clip_1)"><clipPath id="clip_1"><rect width="711" height="22"></rect></clipPath><g><g><line x1="0" y1="0" x2="0" y2="5" style="visibility: inherit;" fill="rgb(0, 0, 0)" stroke="rgb(204, 204, 204)" stroke-width="1px"></line><line x1="59.28333333333333" y1="0" x2="59.28333333333333" y2="5" style="visibility: inherit;" fill="rgb(0, 0, 0)" stroke="rgb(204, 204, 204)" stroke-width="1px"></line><line x1="118.56666666666666" y1="0" x2="118.56666666666666" y2="5" style="visibility: inherit;" fill="rgb(0, 0, 0)" stroke="rgb(204, 204, 204)" stroke-width="1px"></line><line x1="177.85" y1="0" x2="177.85" y2="5" style="visibility: inherit;" fill="rgb(0, 0, 0)" stroke="rgb(204, 204, 204)" stroke-width="1px"></line><line x1="237.13333333333333" y1="0" x2="237.13333333333333" y2="5" style="visibility: inherit;" fill="rgb(0, 0, 0)" stroke="rgb(204, 204, 204)" stroke-width="1px"></line><line x1="296.4166666666667" y1="0" x2="296.4166666666667" y2="5" style="visibility: inherit;" fill="rgb(0, 0, 0)" stroke="rgb(204, 204, 204)" stroke-width="1px"></line><line x1="355.7" y1="0" x2="355.7" y2="5" style="visibility: inherit;" fill="rgb(0, 0, 0)" stroke="rgb(204, 204, 204)" stroke-width="1px"></line><line x1="414.98333333333335" y1="0" x2="414.98333333333335" y2="5" style="visibility: inherit;" fill="rgb(0, 0, 0)" stroke="rgb(204, 204, 204)" stroke-width="1px"></line><line x1="474.26666666666665" y1="0" x2="474.26666666666665" y2="5" style="visibility: inherit;" fill="rgb(0, 0, 0)" stroke="rgb(204, 204, 204)" stroke-width="1px"></line><line x1="533.55" y1="0" x2="533.55" y2="5" style="visibility: inherit;" fill="rgb(0, 0, 0)" stroke="rgb(204, 204, 204)" stroke-width="1px"></line><line x1="592.8333333333334" y1="0" x2="592.8333333333334" y2="5" style="visibility: inherit;" fill="rgb(0, 0, 0)" stroke="rgb(204, 204, 204)" stroke-width="1px"></line><line x1="652.1166666666667" y1="0" x2="652.1166666666667" y2="5" style="visibility: inherit;" fill="rgb(0, 0, 0)" stroke="rgb(204, 204, 204)" stroke-width="1px"></line><line x1="711.4" y1="0" x2="711.4" y2="5" style="visibility: inherit;" fill="rgb(0, 0, 0)" stroke="rgb(204, 204, 204)" stroke-width="1px"></line></g><g transform="translate(0, 8)"><text x="0" y="0" dx="0em" dy="0.95em" style="text-anchor: middle; visibility: hidden; font-family: Roboto, sans-serif; font-size: 12px; font-weight: 200;" fill="rgb(50, 49, 63)" stroke="none" stroke-width="1px">-5</text><text x="59.28333333333333" y="0" dx="0em" dy="0.95em" style="text-anchor: middle; visibility: inherit; font-family: Roboto, sans-serif; font-size: 12px; font-weight: 200;" fill="rgb(50, 49, 63)" stroke="none" stroke-width="1px">0</text><text x="118.56666666666666" y="0" dx="0em" dy="0.95em" style="text-anchor: middle; visibility: inherit; font-family: Roboto, sans-serif; font-size: 12px; font-weight: 200;" fill="rgb(50, 49, 63)" stroke="none" stroke-width="1px">5</text><text x="177.85" y="0" dx="0em" dy="0.95em" style="text-anchor: middle; visibility: inherit; font-family: Roboto, sans-serif; font-size: 12px; font-weight: 200;" fill="rgb(50, 49, 63)" stroke="none" stroke-width="1px">10</text><text x="237.13333333333333" y="0" dx="0em" dy="0.95em" style="text-anchor: middle; visibility: inherit; font-family: Roboto, sans-serif; font-size: 12px; font-weight: 200;" fill="rgb(50, 49, 63)" stroke="none" stroke-width="1px">15</text><text x="296.4166666666667" y="0" dx="0em" dy="0.95em" style="text-anchor: middle; visibility: inherit; font-family: Roboto, sans-serif; font-size: 12px; font-weight: 200;" fill="rgb(50, 49, 63)" stroke="none" stroke-width="1px">20</text><text x="355.7" y="0" dx="0em" dy="0.95em" style="text-anchor: middle; visibility: inherit; font-family: Roboto, sans-serif; font-size: 12px; font-weight: 200;" fill="rgb(50, 49, 63)" stroke="none" stroke-width="1px">25</text><text x="414.98333333333335" y="0" dx="0em" dy="0.95em" style="text-anchor: middle; visibility: inherit; font-family: Roboto, sans-serif; font-size: 12px; font-weight: 200;" fill="rgb(50, 49, 63)" stroke="none" stroke-width="1px">30</text><text x="474.26666666666665" y="0" dx="0em" dy="0.95em" style="text-anchor: middle; visibility: inherit; font-family: Roboto, sans-serif; font-size: 12px; font-weight: 200;" fill="rgb(50, 49, 63)" stroke="none" stroke-width="1px">35</text><text x="533.55" y="0" dx="0em" dy="0.95em" style="text-anchor: middle; visibility: inherit; font-family: Roboto, sans-serif; font-size: 12px; font-weight: 200;" fill="rgb(50, 49, 63)" stroke="none" stroke-width="1px">40</text><text x="592.8333333333334" y="0" dx="0em" dy="0.95em" style="text-anchor: middle; visibility: inherit; font-family: Roboto, sans-serif; font-size: 12px; font-weight: 200;" fill="rgb(50, 49, 63)" stroke="none" stroke-width="1px">45</text><text x="652.1166666666667" y="0" dx="0em" dy="0.95em" style="text-anchor: middle; visibility: inherit; font-family: Roboto, sans-serif; font-size: 12px; font-weight: 200;" fill="rgb(50, 49, 63)" stroke="none" stroke-width="1px">50</text><text x="711.4" y="0" dx="0em" dy="0.95em" style="text-anchor: middle; visibility: hidden; font-family: Roboto, sans-serif; font-size: 12px; font-weight: 200;" fill="rgb(50, 49, 63)" stroke="none" stroke-width="1px">55</text></g><line x1="0" y1="0" x2="711.4" y2="0" fill="rgb(0, 0, 0)" stroke="rgb(204, 204, 204)" stroke-width="1px"></line></g></g></g></g></svg>