<svg viewBox="0 0 761.4000244140625 400" xmlns="http://www.w3.org/2000/svg"><g><g><g><g><g><line x1="60" y1="378" x2="55" y2="378" style="visibility: inherit;" fill="rgb(0, 0, 0)" stroke="rgb(204, 204, 204)" stroke-width="1px"></line><line x1="60" y1="330.75" x2="55" y2="330.75" style="visibility: inherit;" fill="rgb(0, 0, 0)" stroke="rgb(204, 204, 204)" stroke-width="1px"></line><line x1="60" y1="283.5" x2="55" y2="283.5" style="visibility: inherit;" fill="rgb(0, 0, 0)" stroke="rgb(204, 204, 204)" stroke-width="1px"></line><line x1="60" y1="236.25" x2="55" y2="236.25" style="visibility: inherit;" fill="rgb(0, 0, 0)" stroke="rgb(204, 204, 204)" stroke-width="1px"></line><line x1="60" y1="189" x2="55" y2="189" style="visibility: inherit;" fill="rgb(0, 0, 0)" stroke="rgb(204, 204, 204)" stroke-width="1px"></line><line x1="60" y1="141.75" x2="55" y2="141.75" style="visibility: inherit;" fill="rgb(0, 0, 0)" stroke="rgb(204, 204, 204)" stroke-width="1px"></line><line x1="60" y1="94.5" x2="55" y2="94.5" style="visibility: inherit;" fill="rgb(0, 0, 0)" stroke="rgb(204, 204, 204)" stroke-width="1px"></line><line x1="60" y1="47.25" x2="55" y2="47.25" style="visibility: inherit;" fill="rgb(0, 0, 0)" stroke="rgb(204, 204, 204)" stroke-width="1px"></line><line x1="60" y1="0" x2="55" y2="0" style="visibility: inherit;" fill="rgb(0, 0, 0)" stroke="rgb(204, 204, 204)" stroke-width="1px"></line></g><g transform="translate(50, 0)"><text x="0" y="378" dx="0em" dy="0.3em" style="text-anchor: end; visibility: hidden; font-family: Roboto, sans-serif; font-size: 12px; font-weight: 200;" fill="rgb(50, 49, 63)" stroke="none" stroke-width="1px">0.84</text><text x="0" y="330.75" dx="0em" dy="0.3em" style="text-anchor: end; visibility: inherit; font-family: Roboto, sans-serif; font-size: 12px; font-weight: 200;" fill="rgb(50, 49, 63)" stroke="none" stroke-width="1px">0.845</text><text x="0" y="283.5" dx="0em" dy="0.3em" style="text-anchor: end; visibility: inherit; font-family: Roboto, sans-serif; font-size: 12px; font-weight: 200;" fill="rgb(50, 49, 63)" stroke="none" stroke-width="1px">0.85</text><text x="0" y="236.25" dx="0em" dy="0.3em" style="text-anchor: end; visibility: inherit; font-family: Roboto, sans-serif; font-size: 12px; font-weight: 200;" fill="rgb(50, 49, 63)" stroke="none" stroke-width="1px">0.855</text><text x="0" y="189" dx="0em" dy="0.3em" style="text-anchor: end; visibility: inherit; font-family: Roboto, sans-serif; font-size: 12px; font-weight: 200;" fill="rgb(50, 49, 63)" stroke="none" stroke-width="1px">0.86</text><text x="0" y="141.75" dx="0em" dy="0.3em" style="text-anchor: end; visibility: inherit; font-family: Roboto, sans-serif; font-size: 12px; font-weight: 200;" fill="rgb(50, 49, 63)" stroke="none" stroke-width="1px">0.865</text><text x="0" y="94.5" dx="0em" dy="0.3em" style="text-anchor: end; visibility: inherit; font-family: Roboto, sans-serif; font-size: 12px; font-weight: 200;" fill="rgb(50, 49, 63)" stroke="none" stroke-width="1px">0.87</text><text x="0" y="47.25" dx="0em" dy="0.3em" style="text-anchor: end; visibility: inherit; font-family: Roboto, sans-serif; font-size: 12px; font-weight: 200;" fill="rgb(50, 49, 63)" stroke="none" stroke-width="1px">0.875</text><text x="0" y="0" dx="0em" dy="0.3em" style="text-anchor: end; visibility: hidden; font-family: Roboto, sans-serif; font-size: 12px; font-weight: 200;" fill="rgb(50, 49, 63)" stroke="none" stroke-width="1px">0.88</text></g><line x1="60" y1="0" x2="60" y2="378" fill="rgb(0, 0, 0)" stroke="rgb(204, 204, 204)" stroke-width="1px"></line></g></g><g transform="translate(60, 0)" clip-path="url(#clip_0)"><clipPath id="clip_0"><rect width="701" height="378"></rect></clipPath><g><g><g><line x1="0" y1="0" x2="0" y2="378" fill="rgb(0, 0, 0)" stroke="rgb(60, 60, 60)" stroke-width="1px" opacity="0.25"></line><line x1="58.449999999999996" y1="0" x2="58.449999999999996" y2="378" fill="rgb(0, 0, 0)" stroke="rgb(60, 60, 60)" stroke-width="1px" opacity="0.25"></line><line x1="116.89999999999999" y1="0" x2="116.89999999999999" y2="378" fill="rgb(0, 0, 0)" stroke="rgb(60, 60, 60)" stroke-width="1px" opacity="0.25"></line><line x1="175.35" y1="0" x2="175.35" y2="378" fill="rgb(0, 0, 0)" stroke="rgb(60, 60, 60)" stroke-width="1px" opacity="0.25"></line><line x1="233.79999999999998" y1="0" x2="233.79999999999998" y2="378" fill="rgb(0, 0, 0)" stroke="rgb(60, 60, 60)" stroke-width="1px" opacity="0.25"></line><line x1="292.25" y1="0" x2="292.25" y2="378" fill="rgb(0, 0, 0)" stroke="rgb(60, 60, 60)" stroke-width="1px" opacity="0.25"></line><line x1="350.7" y1="0" x2="350.7" y2="378" fill="rgb(0, 0, 0)" stroke="rgb(60, 60, 60)" stroke-width="1px" opacity="0.25"></line><line x1="409.15000000000003" y1="0" x2="409.15000000000003" y2="378" fill="rgb(0, 0, 0)" stroke="rgb(60, 60, 60)" stroke-width="1px" opacity="0.25"></line><line x1="467.59999999999997" y1="0" x2="467.59999999999997" y2="378" fill="rgb(0, 0, 0)" stroke="rgb(60, 60, 60)" stroke-width="1px" opacity="0.25"></line><line x1="526.05" y1="0" x2="526.05" y2="378" fill="rgb(0, 0, 0)" stroke="rgb(60, 60, 60)" stroke-width="1px" opacity="0.25"></line><line x1="584.5" y1="0" x2="584.5" y2="378" fill="rgb(0, 0, 0)" stroke="rgb(60, 60, 60)" stroke-width="1px" opacity="0.25"></line><line x1="642.9499999999999" y1="0" x2="642.9499999999999" y2="378" fill="rgb(0, 0, 0)" stroke="rgb(60, 60, 60)" stroke-width="1px" opacity="0.25"></line><line x1="701.4" y1="0" x2="701.4" y2="378" fill="rgb(0, 0, 0)" stroke="rgb(60, 60, 60)" stroke-width="1px" opacity="0.25"></line></g><g><line x1="0" y1="378" x2="701.4" y2="378" fill="rgb(0, 0, 0)" stroke="rgb(60, 60, 60)" stroke-width="1px" opacity="0.25"></line><line x1="0" y1="330.75" x2="701.4" y2="330.75" fill="rgb(0, 0, 0)" stroke="rgb(60, 60, 60)" stroke-width="1px" opacity="0.25"></line><line x1="0" y1="283.5" x2="701.4" y2="283.5" fill="rgb(0, 0, 0)" stroke="rgb(60, 60, 60)" stroke-width="1px" opacity="0.25"></line><line x1="0" y1="236.25" x2="701.4" y2="236.25" fill="rgb(0, 0, 0)" stroke="rgb(60, 60, 60)" stroke-width="1px" opacity="0.25"></line><line x1="0" y1="189" x2="701.4" y2="189" fill="rgb(0, 0, 0)" stroke="rgb(60, 60, 60)" stroke-width="1px" opacity="0.25"></line><line x1="0" y1="141.75" x2="701.4" y2="141.75" fill="rgb(0, 0, 0)" stroke="rgb(60, 60, 60)" stroke-width="1px" opacity="0.25"></line><line x1="0" y1="94.5" x2="701.4" y2="94.5" fill="rgb(0, 0, 0)" stroke="rgb(60, 60, 60)" stroke-width="1px" opacity="0.25"></line><line x1="0" y1="47.25" x2="701.4" y2="47.25" fill="rgb(0, 0, 0)" stroke="rgb(60, 60, 60)" stroke-width="1px" opacity="0.25"></line><line x1="0" y1="0" x2="701.4" y2="0" fill="rgb(0, 0, 0)" stroke="rgb(60, 60, 60)" stroke-width="1px" opacity="0.25"></line></g></g></g><g><g><line x1="0" y1="8315.999999999993" x2="701.4" y2="8315.999999999993" fill="rgb(0, 0, 0)" stroke="rgb(153, 153, 153)" stroke-width="1.5px"></line></g></g><g><g><line x1="58.449999999999996" y1="0" x2="58.449999999999996" y2="378" fill="rgb(0, 0, 0)" stroke="rgb(153, 153, 153)" stroke-width="1.5px"></line></g></g><g><g><g><g><g><path stroke="rgb(204, 51, 17)" stroke-width="2px" d="M58.449999999999996,538.9782521724696L70.14,320.97653782367684L81.83,249.942201733589L93.52,193.6051104068755L105.21,174.0091595649718L116.89999999999999,147.06543123722068L128.58999999999997,147.06543123722068L140.28,147.06543123722068L151.97,144.61579656600944L163.66,161.76211273670188L175.35,144.61579656600944L187.04,159.31247806549064L198.73,151.96413731575004L210.42,151.96413731575004L222.10999999999999,159.31247806549064L233.79999999999998,151.96413731575004L245.48999999999998,151.96413731575004L257.17999999999995,151.96413731575004L268.87,151.96413731575004L280.56,151.96413731575004L292.25,151.96413731575004L303.94,151.96413731575004L315.63,151.96413731575004L327.32,151.96413731575004L339.01,151.96413731575004L350.7,151.96413731575004L362.39000000000004,151.96413731575004L374.08,151.96413731575004L385.77000000000004,151.96413731575004L397.46,151.96413731575004L409.15000000000003,151.96413731575004L420.84,151.96413731575004L432.53000000000003,151.96413731575004L444.21999999999997,151.96413731575004L455.91,151.96413731575004L467.59999999999997,151.96413731575004L479.29,151.96413731575004L490.97999999999996,151.96413731575004L502.67,151.96413731575004L514.3599999999999,151.96413731575004L526.05,151.96413731575004L537.74,151.96413731575004L549.43,151.96413731575004L561.12,151.96413731575004L572.81,151.96413731575004L584.5,151.96413731575004L596.1899999999999,151.96413731575004L607.88,151.96413731575004L619.5699999999999,151.96413731575004L631.26,151.96413731575004" style="fill: none;" fill="none"></path></g><g><path stroke="rgb(255, 112, 67)" stroke-width="2px" d="M58.449999999999996,465.4942814111706L70.14,303.8302216529844L81.83,174.0091595649718L93.52,122.57077431678763L105.21,100.52575206756588L116.89999999999999,125.02040898799888L128.58999999999997,107.87409281730648L140.28,98.07611739635463L151.97,93.17741131782527L163.66,76.03109514713283L175.35,80.92980122566219L187.04,76.03109514713283L198.73,68.68275439739227L210.42,66.23311972618103L222.10999999999999,68.68275439739227L233.79999999999998,68.68275439739227L245.48999999999998,68.68275439739227L257.17999999999995,68.68275439739227L268.87,68.68275439739227L280.56,68.68275439739227L292.25,68.68275439739227L303.94,68.68275439739227L315.63,68.68275439739227L327.32,68.68275439739227L339.01,68.68275439739227L350.7,68.68275439739227L362.39000000000004,68.68275439739227L374.08,68.68275439739227L385.77000000000004,68.68275439739227L397.46,68.68275439739227L409.15000000000003,68.68275439739227L420.84,68.68275439739227L432.53000000000003,68.68275439739227L444.21999999999997,68.68275439739227L455.91,68.68275439739227L467.59999999999997,68.68275439739227L479.29,68.68275439739227L490.97999999999996,68.68275439739227L502.67,68.68275439739227L514.3599999999999,68.68275439739227L526.05,68.68275439739227L537.74,68.68275439739227L549.43,68.68275439739227L561.12,68.68275439739227L572.81,68.68275439739227L584.5,68.68275439739227L596.1899999999999,68.68275439739227L607.88,68.68275439739227L619.5699999999999,68.68275439739227L631.26,68.68275439739227" style="fill: none;" fill="none"></path></g><g><path stroke="rgb(51, 187, 238)" stroke-width="2px" d="M58.449999999999996,489.9889383316036L70.14,316.0778317451475L81.83,242.5938609838484L93.52,205.8521572351454L105.21,139.71709048748008L116.89999999999999,117.67206823825832L128.58999999999997,129.91911506652824L140.28,115.22243356704708L151.97,107.87409281730648L163.66,100.52575206756588L175.35,115.22243356704708L187.04,112.77279889583583L198.73,112.77279889583583L210.42,112.77279889583583L222.10999999999999,105.42445814609523L233.79999999999998,107.87409281730648L245.48999999999998,105.42445814609523L257.17999999999995,105.42445814609523L268.87,105.42445814609523L280.56,105.42445814609523L292.25,105.42445814609523L303.94,105.42445814609523L315.63,105.42445814609523L327.32,105.42445814609523L339.01,105.42445814609523L350.7,105.42445814609523L362.39000000000004,105.42445814609523L374.08,105.42445814609523L385.77000000000004,105.42445814609523L397.46,105.42445814609523L409.15000000000003,105.42445814609523L420.84,105.42445814609523L432.53000000000003,105.42445814609523L444.21999999999997,105.42445814609523L455.91,105.42445814609523L467.59999999999997,105.42445814609523L479.29,105.42445814609523L490.97999999999996,105.42445814609523L502.67,105.42445814609523L514.3599999999999,105.42445814609523L526.05,105.42445814609523L537.74,105.42445814609523L549.43,105.42445814609523L561.12,105.42445814609523L572.81,105.42445814609523L584.5,105.42445814609523L596.1899999999999,105.42445814609523L607.88,105.42445814609523L619.5699999999999,105.42445814609523L631.26,105.42445814609523" style="fill: none;" fill="none"></path></g><g><path stroke="rgb(0, 119, 187)" stroke-width="2px" d="M58.449999999999996,475.29225683212246L70.14,308.7294909954069L81.83,220.5488387346266L93.52,171.5600881576537L105.21,169.11045348644245L116.89999999999999,156.86340665817252L128.58999999999997,144.61579656600944L140.28,134.8178211450576L151.97,142.1661618947982L163.66,120.12113964557639L175.35,125.02040898799888L187.04,120.12113964557639L198.73,129.91911506652824L210.42,125.02040898799888L222.10999999999999,127.46948039531699L233.79999999999998,129.91911506652824L245.48999999999998,127.46948039531699L257.17999999999995,127.46948039531699L268.87,127.46948039531699L280.56,127.46948039531699L292.25,127.46948039531699L303.94,127.46948039531699L315.63,127.46948039531699L327.32,127.46948039531699L339.01,127.46948039531699L350.7,127.46948039531699L362.39000000000004,127.46948039531699L374.08,127.46948039531699L385.77000000000004,127.46948039531699L397.46,127.46948039531699L409.15000000000003,127.46948039531699L420.84,127.46948039531699L432.53000000000003,127.46948039531699L444.21999999999997,127.46948039531699L455.91,127.46948039531699L467.59999999999997,127.46948039531699L479.29,127.46948039531699L490.97999999999996,127.46948039531699L502.67,127.46948039531699L514.3599999999999,127.46948039531699L526.05,127.46948039531699L537.74,127.46948039531699L549.43,127.46948039531699L561.12,127.46948039531699L572.81,127.46948039531699L584.5,127.46948039531699L596.1899999999999,127.46948039531699L607.88,127.46948039531699L619.5699999999999,127.46948039531699L631.26,127.46948039531699" style="fill: none;" fill="none"></path></g></g></g></g></g></g><g transform="translate(60, 378)" clip-path="url(#clip_1)"><clipPath id="clip_1"><rect width="701" height="22"></rect></clipPath><g><g><line x1="0" y1="0" x2="0" y2="5" style="visibility: inherit;" fill="rgb(0, 0, 0)" stroke="rgb(204, 204, 204)" stroke-width="1px"></line><line x1="58.449999999999996" y1="0" x2="58.449999999999996" y2="5" style="visibility: inherit;" fill="rgb(0, 0, 0)" stroke="rgb(204, 204, 204)" stroke-width="1px"></line><line x1="116.89999999999999" y1="0" x2="116.89999999999999" y2="5" style="visibility: inherit;" fill="rgb(0, 0, 0)" stroke="rgb(204, 204, 204)" stroke-width="1px"></line><line x1="175.35" y1="0" x2="175.35" y2="5" style="visibility: inherit;" fill="rgb(0, 0, 0)" stroke="rgb(204, 204, 204)" stroke-width="1px"></line><line x1="233.79999999999998" y1="0" x2="233.79999999999998" y2="5" style="visibility: inherit;" fill="rgb(0, 0, 0)" stroke="rgb(204, 204, 204)" stroke-width="1px"></line><line x1="292.25" y1="0" x2="292.25" y2="5" style="visibility: inherit;" fill="rgb(0, 0, 0)" stroke="rgb(204, 204, 204)" stroke-width="1px"></line><line x1="350.7" y1="0" x2="350.7" y2="5" style="visibility: inherit;" fill="rgb(0, 0, 0)" stroke="rgb(204, 204, 204)" stroke-width="1px"></line><line x1="409.15000000000003" y1="0" x2="409.15000000000003" y2="5" style="visibility: inherit;" fill="rgb(0, 0, 0)" stroke="rgb(204, 204, 204)" stroke-width="1px"></line><line x1="467.59999999999997" y1="0" x2="467.59999999999997" y2="5" style="visibility: inherit;" fill="rgb(0, 0, 0)" stroke="rgb(204, 204, 204)" stroke-width="1px"></line><line x1="526.05" y1="0" x2="526.05" y2="5" style="visibility: inherit;" fill="rgb(0, 0, 0)" stroke="rgb(204, 204, 204)" stroke-width="1px"></line><line x1="584.5" y1="0" x2="584.5" y2="5" style="visibility: inherit;" fill="rgb(0, 0, 0)" stroke="rgb(204, 204, 204)" stroke-width="1px"></line><line x1="642.9499999999999" y1="0" x2="642.9499999999999" y2="5" style="visibility: inherit;" fill="rgb(0, 0, 0)" stroke="rgb(204, 204, 204)" stroke-width="1px"></line><line x1="701.4" y1="0" x2="701.4" y2="5" style="visibility: inherit;" fill="rgb(0, 0, 0)" stroke="rgb(204, 204, 204)" stroke-width="1px"></line></g><g transform="translate(0, 8)"><text x="0" y="0" dx="0em" dy="0.95em" style="text-anchor: middle; visibility: hidden; font-family: Roboto, sans-serif; font-size: 12px; font-weight: 200;" fill="rgb(50, 49, 63)" stroke="none" stroke-width="1px">-5</text><text x="58.449999999999996" y="0" dx="0em" dy="0.95em" style="text-anchor: middle; visibility: inherit; font-family: Roboto, sans-serif; font-size: 12px; font-weight: 200;" fill="rgb(50, 49, 63)" stroke="none" stroke-width="1px">0</text><text x="116.89999999999999" y="0" dx="0em" dy="0.95em" style="text-anchor: middle; visibility: inherit; font-family: Roboto, sans-serif; font-size: 12px; font-weight: 200;" fill="rgb(50, 49, 63)" stroke="none" stroke-width="1px">5</text><text x="175.35" y="0" dx="0em" dy="0.95em" style="text-anchor: middle; visibility: inherit; font-family: Roboto, sans-serif; font-size: 12px; font-weight: 200;" fill="rgb(50, 49, 63)" stroke="none" stroke-width="1px">10</text><text x="233.79999999999998" y="0" dx="0em" dy="0.95em" style="text-anchor: middle; visibility: inherit; font-family: Roboto, sans-serif; font-size: 12px; font-weight: 200;" fill="rgb(50, 49, 63)" stroke="none" stroke-width="1px">15</text><text x="292.25" y="0" dx="0em" dy="0.95em" style="text-anchor: middle; visibility: inherit; font-family: Roboto, sans-serif; font-size: 12px; font-weight: 200;" fill="rgb(50, 49, 63)" stroke="none" stroke-width="1px">20</text><text x="350.7" y="0" dx="0em" dy="0.95em" style="text-anchor: middle; visibility: inherit; font-family: Roboto, sans-serif; font-size: 12px; font-weight: 200;" fill="rgb(50, 49, 63)" stroke="none" stroke-width="1px">25</text><text x="409.15000000000003" y="0" dx="0em" dy="0.95em" style="text-anchor: middle; visibility: inherit; font-family: Roboto, sans-serif; font-size: 12px; font-weight: 200;" fill="rgb(50, 49, 63)" stroke="none" stroke-width="1px">30</text><text x="467.59999999999997" y="0" dx="0em" dy="0.95em" style="text-anchor: middle; visibility: inherit; font-family: Roboto, sans-serif; font-size: 12px; font-weight: 200;" fill="rgb(50, 49, 63)" stroke="none" stroke-width="1px">35</text><text x="526.05" y="0" dx="0em" dy="0.95em" style="text-anchor: middle; visibility: inherit; font-family: Roboto, sans-serif; font-size: 12px; font-weight: 200;" fill="rgb(50, 49, 63)" stroke="none" stroke-width="1px">40</text><text x="584.5" y="0" dx="0em" dy="0.95em" style="text-anchor: middle; visibility: inherit; font-family: Roboto, sans-serif; font-size: 12px; font-weight: 200;" fill="rgb(50, 49, 63)" stroke="none" stroke-width="1px">45</text><text x="642.9499999999999" y="0" dx="0em" dy="0.95em" style="text-anchor: middle; visibility: inherit; font-family: Roboto, sans-serif; font-size: 12px; font-weight: 200;" fill="rgb(50, 49, 63)" stroke="none" stroke-width="1px">50</text><text x="701.4" y="0" dx="0em" dy="0.95em" style="text-anchor: middle; visibility: hidden; font-family: Roboto, sans-serif; font-size: 12px; font-weight: 200;" fill="rgb(50, 49, 63)" stroke="none" stroke-width="1px">55</text></g><line x1="0" y1="0" x2="701.4" y2="0" fill="rgb(0, 0, 0)" stroke="rgb(204, 204, 204)" stroke-width="1px"></line></g></g></g></g></svg>