<svg viewBox="0 0 761.4000244140625 400" xmlns="http://www.w3.org/2000/svg"><g><g><g><g><g><line x1="50" y1="378" x2="45" y2="378" style="visibility: inherit;" fill="rgb(0, 0, 0)" stroke="rgb(204, 204, 204)" stroke-width="1px"></line><line x1="50" y1="343.6363636363636" x2="45" y2="343.6363636363636" style="visibility: inherit;" fill="rgb(0, 0, 0)" stroke="rgb(204, 204, 204)" stroke-width="1px"></line><line x1="50" y1="309.27272727272725" x2="45" y2="309.27272727272725" style="visibility: inherit;" fill="rgb(0, 0, 0)" stroke="rgb(204, 204, 204)" stroke-width="1px"></line><line x1="50" y1="274.90909090909093" x2="45" y2="274.90909090909093" style="visibility: inherit;" fill="rgb(0, 0, 0)" stroke="rgb(204, 204, 204)" stroke-width="1px"></line><line x1="50" y1="240.54545454545453" x2="45" y2="240.54545454545453" style="visibility: inherit;" fill="rgb(0, 0, 0)" stroke="rgb(204, 204, 204)" stroke-width="1px"></line><line x1="50" y1="206.18181818181816" x2="45" y2="206.18181818181816" style="visibility: inherit;" fill="rgb(0, 0, 0)" stroke="rgb(204, 204, 204)" stroke-width="1px"></line><line x1="50" y1="171.81818181818184" x2="45" y2="171.81818181818184" style="visibility: inherit;" fill="rgb(0, 0, 0)" stroke="rgb(204, 204, 204)" stroke-width="1px"></line><line x1="50" y1="137.4545454545455" x2="45" y2="137.4545454545455" style="visibility: inherit;" fill="rgb(0, 0, 0)" stroke="rgb(204, 204, 204)" stroke-width="1px"></line><line x1="50" y1="103.09090909090912" x2="45" y2="103.09090909090912" style="visibility: inherit;" fill="rgb(0, 0, 0)" stroke="rgb(204, 204, 204)" stroke-width="1px"></line><line x1="50" y1="68.72727272727275" x2="45" y2="68.72727272727275" style="visibility: inherit;" fill="rgb(0, 0, 0)" stroke="rgb(204, 204, 204)" stroke-width="1px"></line><line x1="50" y1="34.363636363636374" x2="45" y2="34.363636363636374" style="visibility: inherit;" fill="rgb(0, 0, 0)" stroke="rgb(204, 204, 204)" stroke-width="1px"></line><line x1="50" y1="0" x2="45" y2="0" style="visibility: inherit;" fill="rgb(0, 0, 0)" stroke="rgb(204, 204, 204)" stroke-width="1px"></line></g><g transform="translate(40, 0)"><text x="0" y="378" dx="0em" dy="0.3em" style="text-anchor: end; visibility: hidden; font-family: Roboto, sans-serif; font-size: 12px; font-weight: 200;" fill="rgb(50, 49, 63)" stroke="none" stroke-width="1px">-0.2</text><text x="0" y="343.6363636363636" dx="0em" dy="0.3em" style="text-anchor: end; visibility: inherit; font-family: Roboto, sans-serif; font-size: 12px; font-weight: 200;" fill="rgb(50, 49, 63)" stroke="none" stroke-width="1px">0</text><text x="0" y="309.27272727272725" dx="0em" dy="0.3em" style="text-anchor: end; visibility: inherit; font-family: Roboto, sans-serif; font-size: 12px; font-weight: 200;" fill="rgb(50, 49, 63)" stroke="none" stroke-width="1px">0.2</text><text x="0" y="274.90909090909093" dx="0em" dy="0.3em" style="text-anchor: end; visibility: inherit; font-family: Roboto, sans-serif; font-size: 12px; font-weight: 200;" fill="rgb(50, 49, 63)" stroke="none" stroke-width="1px">0.4</text><text x="0" y="240.54545454545453" dx="0em" dy="0.3em" style="text-anchor: end; visibility: inherit; font-family: Roboto, sans-serif; font-size: 12px; font-weight: 200;" fill="rgb(50, 49, 63)" stroke="none" stroke-width="1px">0.6</text><text x="0" y="206.18181818181816" dx="0em" dy="0.3em" style="text-anchor: end; visibility: inherit; font-family: Roboto, sans-serif; font-size: 12px; font-weight: 200;" fill="rgb(50, 49, 63)" stroke="none" stroke-width="1px">0.8</text><text x="0" y="171.81818181818184" dx="0em" dy="0.3em" style="text-anchor: end; visibility: inherit; font-family: Roboto, sans-serif; font-size: 12px; font-weight: 200;" fill="rgb(50, 49, 63)" stroke="none" stroke-width="1px">1</text><text x="0" y="137.4545454545455" dx="0em" dy="0.3em" style="text-anchor: end; visibility: inherit; font-family: Roboto, sans-serif; font-size: 12px; font-weight: 200;" fill="rgb(50, 49, 63)" stroke="none" stroke-width="1px">1.2</text><text x="0" y="103.09090909090912" dx="0em" dy="0.3em" style="text-anchor: end; visibility: inherit; font-family: Roboto, sans-serif; font-size: 12px; font-weight: 200;" fill="rgb(50, 49, 63)" stroke="none" stroke-width="1px">1.4</text><text x="0" y="68.72727272727275" dx="0em" dy="0.3em" style="text-anchor: end; visibility: inherit; font-family: Roboto, sans-serif; font-size: 12px; font-weight: 200;" fill="rgb(50, 49, 63)" stroke="none" stroke-width="1px">1.6</text><text x="0" y="34.363636363636374" dx="0em" dy="0.3em" style="text-anchor: end; visibility: inherit; font-family: Roboto, sans-serif; font-size: 12px; font-weight: 200;" fill="rgb(50, 49, 63)" stroke="none" stroke-width="1px">1.8</text><text x="0" y="0" dx="0em" dy="0.3em" style="text-anchor: end; visibility: hidden; font-family: Roboto, sans-serif; font-size: 12px; font-weight: 200;" fill="rgb(50, 49, 63)" stroke="none" stroke-width="1px">2</text></g><line x1="50" y1="0" x2="50" y2="378" fill="rgb(0, 0, 0)" stroke="rgb(204, 204, 204)" stroke-width="1px"></line></g></g><g transform="translate(50, 0)" clip-path="url(#clip_0)"><clipPath id="clip_0"><rect width="711" height="378"></rect></clipPath><g><g><g><line x1="0" y1="0" x2="0" y2="378" fill="rgb(0, 0, 0)" stroke="rgb(60, 60, 60)" stroke-width="1px" opacity="0.25"></line><line x1="59.28333333333333" y1="0" x2="59.28333333333333" y2="378" fill="rgb(0, 0, 0)" stroke="rgb(60, 60, 60)" stroke-width="1px" opacity="0.25"></line><line x1="118.56666666666666" y1="0" x2="118.56666666666666" y2="378" fill="rgb(0, 0, 0)" stroke="rgb(60, 60, 60)" stroke-width="1px" opacity="0.25"></line><line x1="177.85" y1="0" x2="177.85" y2="378" fill="rgb(0, 0, 0)" stroke="rgb(60, 60, 60)" stroke-width="1px" opacity="0.25"></line><line x1="237.13333333333333" y1="0" x2="237.13333333333333" y2="378" fill="rgb(0, 0, 0)" stroke="rgb(60, 60, 60)" stroke-width="1px" opacity="0.25"></line><line x1="296.4166666666667" y1="0" x2="296.4166666666667" y2="378" fill="rgb(0, 0, 0)" stroke="rgb(60, 60, 60)" stroke-width="1px" opacity="0.25"></line><line x1="355.7" y1="0" x2="355.7" y2="378" fill="rgb(0, 0, 0)" stroke="rgb(60, 60, 60)" stroke-width="1px" opacity="0.25"></line><line x1="414.98333333333335" y1="0" x2="414.98333333333335" y2="378" fill="rgb(0, 0, 0)" stroke="rgb(60, 60, 60)" stroke-width="1px" opacity="0.25"></line><line x1="474.26666666666665" y1="0" x2="474.26666666666665" y2="378" fill="rgb(0, 0, 0)" stroke="rgb(60, 60, 60)" stroke-width="1px" opacity="0.25"></line><line x1="533.55" y1="0" x2="533.55" y2="378" fill="rgb(0, 0, 0)" stroke="rgb(60, 60, 60)" stroke-width="1px" opacity="0.25"></line><line x1="592.8333333333334" y1="0" x2="592.8333333333334" y2="378" fill="rgb(0, 0, 0)" stroke="rgb(60, 60, 60)" stroke-width="1px" opacity="0.25"></line><line x1="652.1166666666667" y1="0" x2="652.1166666666667" y2="378" fill="rgb(0, 0, 0)" stroke="rgb(60, 60, 60)" stroke-width="1px" opacity="0.25"></line><line x1="711.4" y1="0" x2="711.4" y2="378" fill="rgb(0, 0, 0)" stroke="rgb(60, 60, 60)" stroke-width="1px" opacity="0.25"></line></g><g><line x1="0" y1="378" x2="711.4" y2="378" fill="rgb(0, 0, 0)" stroke="rgb(60, 60, 60)" stroke-width="1px" opacity="0.25"></line><line x1="0" y1="343.6363636363636" x2="711.4" y2="343.6363636363636" fill="rgb(0, 0, 0)" stroke="rgb(60, 60, 60)" stroke-width="1px" opacity="0.25"></line><line x1="0" y1="309.27272727272725" x2="711.4" y2="309.27272727272725" fill="rgb(0, 0, 0)" stroke="rgb(60, 60, 60)" stroke-width="1px" opacity="0.25"></line><line x1="0" y1="274.90909090909093" x2="711.4" y2="274.90909090909093" fill="rgb(0, 0, 0)" stroke="rgb(60, 60, 60)" stroke-width="1px" opacity="0.25"></line><line x1="0" y1="240.54545454545453" x2="711.4" y2="240.54545454545453" fill="rgb(0, 0, 0)" stroke="rgb(60, 60, 60)" stroke-width="1px" opacity="0.25"></line><line x1="0" y1="206.18181818181816" x2="711.4" y2="206.18181818181816" fill="rgb(0, 0, 0)" stroke="rgb(60, 60, 60)" stroke-width="1px" opacity="0.25"></line><line x1="0" y1="171.81818181818184" x2="711.4" y2="171.81818181818184" fill="rgb(0, 0, 0)" stroke="rgb(60, 60, 60)" stroke-width="1px" opacity="0.25"></line><line x1="0" y1="137.4545454545455" x2="711.4" y2="137.4545454545455" fill="rgb(0, 0, 0)" stroke="rgb(60, 60, 60)" stroke-width="1px" opacity="0.25"></line><line x1="0" y1="103.09090909090912" x2="711.4" y2="103.09090909090912" fill="rgb(0, 0, 0)" stroke="rgb(60, 60, 60)" stroke-width="1px" opacity="0.25"></line><line x1="0" y1="68.72727272727275" x2="711.4" y2="68.72727272727275" fill="rgb(0, 0, 0)" stroke="rgb(60, 60, 60)" stroke-width="1px" opacity="0.25"></line><line x1="0" y1="34.363636363636374" x2="711.4" y2="34.363636363636374" fill="rgb(0, 0, 0)" stroke="rgb(60, 60, 60)" stroke-width="1px" opacity="0.25"></line><line x1="0" y1="0" x2="711.4" y2="0" fill="rgb(0, 0, 0)" stroke="rgb(60, 60, 60)" stroke-width="1px" opacity="0.25"></line></g></g></g><g><g><line x1="0" y1="343.6363636363636" x2="711.4" y2="343.6363636363636" fill="rgb(0, 0, 0)" stroke="rgb(153, 153, 153)" stroke-width="1.5px"></line></g></g><g><g><line x1="59.28333333333333" y1="0" x2="59.28333333333333" y2="378" fill="rgb(0, 0, 0)" stroke="rgb(153, 153, 153)" stroke-width="1.5px"></line></g></g><g><g><g><g><g><path stroke="rgb(255, 112, 67)" stroke-width="2px" d="M94.85333333333332,-0.5717845396562438L106.71,26.182369643991628L118.56666666666666,49.30527416142555L130.42333333333332,57.26081338795753L142.28,58.00520246679135L154.13666666666666,58.491391377015596L165.99333333333334,61.50053143501286L177.85,60.875554301522016L189.70666666666665,61.50020371783869L201.56333333333333,62.17575170777063L213.42,62.18664830381223L225.27666666666664,62.01232324947016L237.13333333333333,62.24905794317075L248.98999999999998,62.270298112522525L260.84666666666664,62.27709824388679L272.7033333333333,62.32191356745636L284.56,62.336517464030905L296.4166666666667,62.34837672927165L308.2733333333333,62.35065026716757L320.13,62.35749136317865L331.9866666666667,62.36146493391562L343.8433333333333,62.36087094653742L355.7,62.36230470917444L367.5566666666667,62.36308303746315L379.4133333333333,62.36291917887604L391.27000000000004,62.36304207281638L403.12666666666667,62.36310351978652L414.98333333333335,62.36306255513974L426.84,62.36302159049296L438.69666666666666,62.36306255513974L450.5533333333333,62.36306255513974L462.41,62.36306255513974L474.26666666666665,62.36306255513974L486.12333333333333,62.36306255513974L497.97999999999996,62.36306255513974L509.83666666666664,62.36306255513974L521.6933333333333,62.36306255513974L533.55,62.36306255513974L545.4066666666666,62.36306255513974L557.2633333333333,62.36306255513974L569.12,62.36306255513974L580.9766666666667,62.36306255513974L592.8333333333334,62.36306255513974L604.6899999999999,62.36306255513974L616.5466666666666,62.36306255513974L628.4033333333333,62.36306255513974L640.26,62.36306255513974" style="fill: none;" fill="none"></path></g><g><path stroke="rgb(0, 119, 187)" stroke-width="2px" d="M59.28333333333333,224.0982574224472L71.14,244.83984605832538L82.99666666666667,255.38170874118805L94.85333333333332,260.06153559142894L106.71,260.52937746047974L118.56666666666666,261.8196204575625L130.42333333333332,267.0617741346359L142.28,264.0253721042113L154.13666666666666,266.4117829637094L165.99333333333334,269.0561584450982L177.85,266.8318702957847L189.70666666666665,266.7344358834353L201.56333333333333,263.7600901722908L213.42,270.3245980089361L225.27666666666664,265.6024956432256L237.13333333333333,266.6513954238458L248.98999999999998,269.68913392587143L260.84666666666664,268.74013155698776L272.7033333333333,265.29209627346563L284.56,270.2220942215486L296.4166666666667,267.5714204257185L308.2733333333333,267.6577431776307L320.13,272.1915054592219L331.9866666666667,268.50779032165354L343.8433333333333,267.4920719049194L355.7,264.5445580374111L367.5566666666667,267.6376551389694L379.4133333333333,267.1580000899055L391.27000000000004,268.7928940220313L403.12666666666667,265.29332521286875L414.98333333333335,263.7825490398841L426.84,267.1463558890603L438.69666666666666,267.59495973587036L450.5533333333333,267.12569946592504L462.41,266.6763531348922L474.26666666666665,269.1006716543978L486.12333333333333,268.8676647435535L497.97999999999996,266.8541038578207L509.83666666666664,267.95661099932414L521.6933333333333,270.010429891673L533.55,266.9379687309265L545.4066666666666,268.3806923844598L557.2633333333333,266.53121539137584L569.12,267.58784724907446L580.9766666666667,267.5228517163884L592.8333333333334,267.31631820852107L604.6899999999999,266.8312865495682L616.5466666666666,264.7436103766615L628.4033333333333,270.301232798533L640.26,266.7699471116066" style="fill: none;" fill="none"></path></g><g><path stroke="rgb(0, 153, 136)" stroke-width="2px" d="M59.28333333333333,278.914090747183L71.14,289.18353852900594L82.99666666666667,293.36292077194565L94.85333333333332,298.5224897211248L106.71,299.91699798540634L118.56666666666666,300.40631557052785L130.42333333333332,301.1461089280519L142.28,302.32549391009593L154.13666666666666,301.9329937073317L165.99333333333334,301.7990341918035L177.85,302.492542619055L189.70666666666665,301.5292051840912L201.56333333333333,302.4848745492372L213.42,303.23125553402036L225.27666666666664,301.391072395173L237.13333333333333,303.29281771724874L248.98999999999998,301.7938368022442L260.84666666666664,301.6667209430174L272.7033333333333,302.3091080513868L284.56,301.5400710566477L296.4166666666667,302.94576266949827L308.2733333333333,301.9103479385376L320.13,303.1033869494091L331.9866666666667,300.35830500451L343.8433333333333,302.2683712704615L355.7,302.6841675557874L367.5566666666667,302.0858609676361L379.4133333333333,302.6569695906206L391.27000000000004,301.1984182216905L403.12666666666667,303.18155261603266L414.98333333333335,302.0626237717542L426.84,301.96427789601415L438.69666666666666,301.6225636140867L450.5533333333333,302.5346645170992L462.41,302.343935682015L474.26666666666665,302.5633448904211L486.12333333333333,302.89671262556857L497.97999999999996,303.23711091821843L509.83666666666664,301.6118897633119L521.6933333333333,301.9951524382288L533.55,303.04018874060023L545.4066666666666,302.4804938923229L557.2633333333333,302.2551678527485L569.12,301.0055003382943L580.9766666666667,302.86988334222275L592.8333333333334,301.7005577412519L604.6899999999999,302.9661169783636L616.5466666666666,302.5443193722855L628.4033333333333,302.23820592869413L640.26,301.8174503608183" style="fill: none;" fill="none"></path></g><g><path stroke="rgb(51, 187, 238)" stroke-width="2px" d="M71.14,-29.759832728992777L82.99666666666667,76.78214712576437L94.85333333333332,115.34530292857778L106.71,140.50396604971456L118.56666666666666,147.75292656638408L130.42333333333332,146.56198187307882L142.28,157.8552385893735L154.13666666666666,161.15059863437307L165.99333333333334,168.32529024644336L177.85,160.00801270658323L189.70666666666665,165.42187994176695L201.56333333333333,170.40793288837781L213.42,165.75652014125478L225.27666666666664,163.7567080150951L237.13333333333333,168.3075320720673L248.98999999999998,163.75511039387098L260.84666666666664,158.63844167102468L272.7033333333333,165.96308437260714L284.56,168.12855753031647L296.4166666666667,167.33240962028506L308.2733333333333,164.42660288377246L320.13,166.62136576392436L331.9866666666667,167.10655104030263L343.8433333333333,165.357114835219L355.7,169.2812822081826L367.5566666666667,168.4247728911313L379.4133333333333,167.72991007024595L391.27000000000004,173.7622308189219L403.12666666666667,172.26389765739444L414.98333333333335,174.86951546235522L426.84,164.1238331794739L438.69666666666666,167.213366356763L450.5533333333333,171.32758920842954L462.41,167.98071612011304L474.26666666666665,159.78915908119896L486.12333333333333,167.7241955020211L497.97999999999996,159.28666624155915L509.83666666666664,162.60322549126366L521.6933333333333,165.0808287750591L533.55,163.18172823299062L545.4066666666666,164.47524840181526L557.2633333333333,162.53112771294334L569.12,166.9869957186959L580.9766666666667,162.1518974954432L592.8333333333334,164.74803198467603L604.6899999999999,162.65148184516215L616.5466666666666,172.0803965221752L628.4033333333333,168.1549387628382L640.26,163.31930799917745" style="fill: none;" fill="none"></path></g><g><path stroke="rgb(204, 51, 17)" stroke-width="2px" d="M59.28333333333333,276.90674112601715L71.14,293.0205484953794L82.99666666666667,295.8085357871923L94.85333333333332,301.1484899981455L106.71,301.3624150644649L118.56666666666666,302.2105599127033L130.42333333333332,300.8833309601654L142.28,301.38658420606095L154.13666666666666,300.7985699854114L165.99333333333334,302.35871623862874L177.85,302.69051707603717L189.70666666666665,302.3133325305852L201.56333333333333,302.5073590197347L213.42,302.04649394208735L225.27666666666664,301.39440589330417L237.13333333333333,302.9222310402177L248.98999999999998,302.20135054805064L260.84666666666664,301.8596337058328L272.7033333333333,303.15657698295337L284.56,301.9529102065347L296.4166666666667,302.30086647651416L308.2733333333333,302.5779462267052L320.13,301.78616617213595L331.9866666666667,302.11168149655515L343.8433333333333,302.72467903115535L355.7,301.58168601718813L367.5566666666667,301.9822716171091L379.4133333333333,301.76791130141777L391.27000000000004,302.4974558163773L403.12666666666667,302.184931405566L414.98333333333335,301.97635990652174L426.84,302.8118722818115L438.69666666666666,302.5266328860413L450.5533333333333,302.87427680058914L462.41,302.2335718030279L474.26666666666665,302.71219249476087L486.12333333333333,303.06409161199224L497.97999999999996,302.3028507015922L509.83666666666664,302.5951821018349L521.6933333333333,302.7530624107881L533.55,302.01087774200874L545.4066666666666,301.75587793642825L557.2633333333333,301.7121660980311L569.12,302.8704440458254L580.9766666666667,303.3276146243919L592.8333333333334,302.7849738706242L604.6899999999999,302.23356924273753L616.5466666666666,302.4205370111899L628.4033333333333,302.66616359353065L640.26,302.06638739867645" style="fill: none;" fill="none"></path></g><g><path stroke="rgb(238, 51, 119)" stroke-width="2px" d="M59.28333333333333,269.3479086594148L71.14,277.8262131051584L82.99666666666667,282.5962133841081L94.85333333333332,284.71576005220413L106.71,286.1907536062327L118.56666666666666,286.84478491544724L130.42333333333332,286.8983461911028L142.28,287.44838362390345L154.13666666666666,287.74532610719854L165.99333333333334,287.5542055476796L177.85,287.1679038080302L189.70666666666665,287.71051639860326L201.56333333333333,287.1926362135194L213.42,287.3981968110258L225.27666666666664,287.74177754467183L237.13333333333333,287.97913694923574L248.98999999999998,288.07529121637344L260.84666666666664,287.6389870047569L272.7033333333333,288.2513419064608L284.56,288.6767853661017L296.4166666666667,287.6798543604937L308.2733333333333,287.6925277980891L320.13,287.1424237977375L331.9866666666667,288.3464003692974L343.8433333333333,287.64139879833573L355.7,287.66364260153335L367.5566666666667,287.53976550969213L379.4133333333333,288.22925684126943L391.27000000000004,287.30343022129756L403.12666666666667,287.66706314953893L414.98333333333335,287.55880382927984L426.84,288.06322200731796L438.69666666666666,287.766776220365L450.5533333333333,287.308755625378L462.41,287.531321671876L474.26666666666665,287.4757531285286L486.12333333333333,287.3816419731487L497.97999999999996,287.9128663919189L509.83666666666664,287.60392638770014L521.6933333333333,287.5983551957391L533.55,287.43513156067246L545.4066666666666,287.6440512592142L557.2633333333333,287.7398931709203L569.12,287.79107849706304L580.9766666666667,287.4351059577682L592.8333333333334,288.03493079814046L604.6899999999999,287.82664093104273L616.5466666666666,287.8565348820253L628.4033333333333,287.5847139683637L640.26,287.8613994338296" style="fill: none;" fill="none"></path></g></g></g></g></g></g><g transform="translate(50, 378)" clip-path="url(#clip_1)"><clipPath id="clip_1"><rect width="711" height="22"></rect></clipPath><g><g><line x1="0" y1="0" x2="0" y2="5" style="visibility: inherit;" fill="rgb(0, 0, 0)" stroke="rgb(204, 204, 204)" stroke-width="1px"></line><line x1="59.28333333333333" y1="0" x2="59.28333333333333" y2="5" style="visibility: inherit;" fill="rgb(0, 0, 0)" stroke="rgb(204, 204, 204)" stroke-width="1px"></line><line x1="118.56666666666666" y1="0" x2="118.56666666666666" y2="5" style="visibility: inherit;" fill="rgb(0, 0, 0)" stroke="rgb(204, 204, 204)" stroke-width="1px"></line><line x1="177.85" y1="0" x2="177.85" y2="5" style="visibility: inherit;" fill="rgb(0, 0, 0)" stroke="rgb(204, 204, 204)" stroke-width="1px"></line><line x1="237.13333333333333" y1="0" x2="237.13333333333333" y2="5" style="visibility: inherit;" fill="rgb(0, 0, 0)" stroke="rgb(204, 204, 204)" stroke-width="1px"></line><line x1="296.4166666666667" y1="0" x2="296.4166666666667" y2="5" style="visibility: inherit;" fill="rgb(0, 0, 0)" stroke="rgb(204, 204, 204)" stroke-width="1px"></line><line x1="355.7" y1="0" x2="355.7" y2="5" style="visibility: inherit;" fill="rgb(0, 0, 0)" stroke="rgb(204, 204, 204)" stroke-width="1px"></line><line x1="414.98333333333335" y1="0" x2="414.98333333333335" y2="5" style="visibility: inherit;" fill="rgb(0, 0, 0)" stroke="rgb(204, 204, 204)" stroke-width="1px"></line><line x1="474.26666666666665" y1="0" x2="474.26666666666665" y2="5" style="visibility: inherit;" fill="rgb(0, 0, 0)" stroke="rgb(204, 204, 204)" stroke-width="1px"></line><line x1="533.55" y1="0" x2="533.55" y2="5" style="visibility: inherit;" fill="rgb(0, 0, 0)" stroke="rgb(204, 204, 204)" stroke-width="1px"></line><line x1="592.8333333333334" y1="0" x2="592.8333333333334" y2="5" style="visibility: inherit;" fill="rgb(0, 0, 0)" stroke="rgb(204, 204, 204)" stroke-width="1px"></line><line x1="652.1166666666667" y1="0" x2="652.1166666666667" y2="5" style="visibility: inherit;" fill="rgb(0, 0, 0)" stroke="rgb(204, 204, 204)" stroke-width="1px"></line><line x1="711.4" y1="0" x2="711.4" y2="5" style="visibility: inherit;" fill="rgb(0, 0, 0)" stroke="rgb(204, 204, 204)" stroke-width="1px"></line></g><g transform="translate(0, 8)"><text x="0" y="0" dx="0em" dy="0.95em" style="text-anchor: middle; visibility: hidden; font-family: Roboto, sans-serif; font-size: 12px; font-weight: 200;" fill="rgb(50, 49, 63)" stroke="none" stroke-width="1px">-5</text><text x="59.28333333333333" y="0" dx="0em" dy="0.95em" style="text-anchor: middle; visibility: inherit; font-family: Roboto, sans-serif; font-size: 12px; font-weight: 200;" fill="rgb(50, 49, 63)" stroke="none" stroke-width="1px">0</text><text x="118.56666666666666" y="0" dx="0em" dy="0.95em" style="text-anchor: middle; visibility: inherit; font-family: Roboto, sans-serif; font-size: 12px; font-weight: 200;" fill="rgb(50, 49, 63)" stroke="none" stroke-width="1px">5</text><text x="177.85" y="0" dx="0em" dy="0.95em" style="text-anchor: middle; visibility: inherit; font-family: Roboto, sans-serif; font-size: 12px; font-weight: 200;" fill="rgb(50, 49, 63)" stroke="none" stroke-width="1px">10</text><text x="237.13333333333333" y="0" dx="0em" dy="0.95em" style="text-anchor: middle; visibility: inherit; font-family: Roboto, sans-serif; font-size: 12px; font-weight: 200;" fill="rgb(50, 49, 63)" stroke="none" stroke-width="1px">15</text><text x="296.4166666666667" y="0" dx="0em" dy="0.95em" style="text-anchor: middle; visibility: inherit; font-family: Roboto, sans-serif; font-size: 12px; font-weight: 200;" fill="rgb(50, 49, 63)" stroke="none" stroke-width="1px">20</text><text x="355.7" y="0" dx="0em" dy="0.95em" style="text-anchor: middle; visibility: inherit; font-family: Roboto, sans-serif; font-size: 12px; font-weight: 200;" fill="rgb(50, 49, 63)" stroke="none" stroke-width="1px">25</text><text x="414.98333333333335" y="0" dx="0em" dy="0.95em" style="text-anchor: middle; visibility: inherit; font-family: Roboto, sans-serif; font-size: 12px; font-weight: 200;" fill="rgb(50, 49, 63)" stroke="none" stroke-width="1px">30</text><text x="474.26666666666665" y="0" dx="0em" dy="0.95em" style="text-anchor: middle; visibility: inherit; font-family: Roboto, sans-serif; font-size: 12px; font-weight: 200;" fill="rgb(50, 49, 63)" stroke="none" stroke-width="1px">35</text><text x="533.55" y="0" dx="0em" dy="0.95em" style="text-anchor: middle; visibility: inherit; font-family: Roboto, sans-serif; font-size: 12px; font-weight: 200;" fill="rgb(50, 49, 63)" stroke="none" stroke-width="1px">40</text><text x="592.8333333333334" y="0" dx="0em" dy="0.95em" style="text-anchor: middle; visibility: inherit; font-family: Roboto, sans-serif; font-size: 12px; font-weight: 200;" fill="rgb(50, 49, 63)" stroke="none" stroke-width="1px">45</text><text x="652.1166666666667" y="0" dx="0em" dy="0.95em" style="text-anchor: middle; visibility: inherit; font-family: Roboto, sans-serif; font-size: 12px; font-weight: 200;" fill="rgb(50, 49, 63)" stroke="none" stroke-width="1px">50</text><text x="711.4" y="0" dx="0em" dy="0.95em" style="text-anchor: middle; visibility: hidden; font-family: Roboto, sans-serif; font-size: 12px; font-weight: 200;" fill="rgb(50, 49, 63)" stroke="none" stroke-width="1px">55</text></g><line x1="0" y1="0" x2="711.4" y2="0" fill="rgb(0, 0, 0)" stroke="rgb(204, 204, 204)" stroke-width="1px"></line></g></g></g></g></svg>