<svg viewBox="0 0 761.4000244140625 400" xmlns="http://www.w3.org/2000/svg"><g><g><g><g><g><line x1="50" y1="378" x2="45" y2="378" style="visibility: inherit;" fill="rgb(0, 0, 0)" stroke="rgb(204, 204, 204)" stroke-width="1px"></line><line x1="50" y1="346.5" x2="45" y2="346.5" style="visibility: inherit;" fill="rgb(0, 0, 0)" stroke="rgb(204, 204, 204)" stroke-width="1px"></line><line x1="50" y1="315" x2="45" y2="315" style="visibility: inherit;" fill="rgb(0, 0, 0)" stroke="rgb(204, 204, 204)" stroke-width="1px"></line><line x1="50" y1="283.5" x2="45" y2="283.5" style="visibility: inherit;" fill="rgb(0, 0, 0)" stroke="rgb(204, 204, 204)" stroke-width="1px"></line><line x1="50" y1="252.00000000000003" x2="45" y2="252.00000000000003" style="visibility: inherit;" fill="rgb(0, 0, 0)" stroke="rgb(204, 204, 204)" stroke-width="1px"></line><line x1="50" y1="220.5" x2="45" y2="220.5" style="visibility: inherit;" fill="rgb(0, 0, 0)" stroke="rgb(204, 204, 204)" stroke-width="1px"></line><line x1="50" y1="189.00000000000003" x2="45" y2="189.00000000000003" style="visibility: inherit;" fill="rgb(0, 0, 0)" stroke="rgb(204, 204, 204)" stroke-width="1px"></line><line x1="50" y1="157.50000000000003" x2="45" y2="157.50000000000003" style="visibility: inherit;" fill="rgb(0, 0, 0)" stroke="rgb(204, 204, 204)" stroke-width="1px"></line><line x1="50" y1="126.00000000000006" x2="45" y2="126.00000000000006" style="visibility: inherit;" fill="rgb(0, 0, 0)" stroke="rgb(204, 204, 204)" stroke-width="1px"></line><line x1="50" y1="94.50000000000004" x2="45" y2="94.50000000000004" style="visibility: inherit;" fill="rgb(0, 0, 0)" stroke="rgb(204, 204, 204)" stroke-width="1px"></line><line x1="50" y1="63.00000000000003" x2="45" y2="63.00000000000003" style="visibility: inherit;" fill="rgb(0, 0, 0)" stroke="rgb(204, 204, 204)" stroke-width="1px"></line><line x1="50" y1="31.500000000000014" x2="45" y2="31.500000000000014" style="visibility: inherit;" fill="rgb(0, 0, 0)" stroke="rgb(204, 204, 204)" stroke-width="1px"></line><line x1="50" y1="0" x2="45" y2="0" style="visibility: inherit;" fill="rgb(0, 0, 0)" stroke="rgb(204, 204, 204)" stroke-width="1px"></line></g><g transform="translate(40, 0)"><text x="0" y="378" dx="0em" dy="0.3em" style="text-anchor: end; visibility: hidden; font-family: Roboto, sans-serif; font-size: 12px; font-weight: 200;" fill="rgb(50, 49, 63)" stroke="none" stroke-width="1px">-0.2</text><text x="0" y="346.5" dx="0em" dy="0.3em" style="text-anchor: end; visibility: inherit; font-family: Roboto, sans-serif; font-size: 12px; font-weight: 200;" fill="rgb(50, 49, 63)" stroke="none" stroke-width="1px">0</text><text x="0" y="315" dx="0em" dy="0.3em" style="text-anchor: end; visibility: inherit; font-family: Roboto, sans-serif; font-size: 12px; font-weight: 200;" fill="rgb(50, 49, 63)" stroke="none" stroke-width="1px">0.2</text><text x="0" y="283.5" dx="0em" dy="0.3em" style="text-anchor: end; visibility: inherit; font-family: Roboto, sans-serif; font-size: 12px; font-weight: 200;" fill="rgb(50, 49, 63)" stroke="none" stroke-width="1px">0.4</text><text x="0" y="252.00000000000003" dx="0em" dy="0.3em" style="text-anchor: end; visibility: inherit; font-family: Roboto, sans-serif; font-size: 12px; font-weight: 200;" fill="rgb(50, 49, 63)" stroke="none" stroke-width="1px">0.6</text><text x="0" y="220.5" dx="0em" dy="0.3em" style="text-anchor: end; visibility: inherit; font-family: Roboto, sans-serif; font-size: 12px; font-weight: 200;" fill="rgb(50, 49, 63)" stroke="none" stroke-width="1px">0.8</text><text x="0" y="189.00000000000003" dx="0em" dy="0.3em" style="text-anchor: end; visibility: inherit; font-family: Roboto, sans-serif; font-size: 12px; font-weight: 200;" fill="rgb(50, 49, 63)" stroke="none" stroke-width="1px">1</text><text x="0" y="157.50000000000003" dx="0em" dy="0.3em" style="text-anchor: end; visibility: inherit; font-family: Roboto, sans-serif; font-size: 12px; font-weight: 200;" fill="rgb(50, 49, 63)" stroke="none" stroke-width="1px">1.2</text><text x="0" y="126.00000000000006" dx="0em" dy="0.3em" style="text-anchor: end; visibility: inherit; font-family: Roboto, sans-serif; font-size: 12px; font-weight: 200;" fill="rgb(50, 49, 63)" stroke="none" stroke-width="1px">1.4</text><text x="0" y="94.50000000000004" dx="0em" dy="0.3em" style="text-anchor: end; visibility: inherit; font-family: Roboto, sans-serif; font-size: 12px; font-weight: 200;" fill="rgb(50, 49, 63)" stroke="none" stroke-width="1px">1.6</text><text x="0" y="63.00000000000003" dx="0em" dy="0.3em" style="text-anchor: end; visibility: inherit; font-family: Roboto, sans-serif; font-size: 12px; font-weight: 200;" fill="rgb(50, 49, 63)" stroke="none" stroke-width="1px">1.8</text><text x="0" y="31.500000000000014" dx="0em" dy="0.3em" style="text-anchor: end; visibility: inherit; font-family: Roboto, sans-serif; font-size: 12px; font-weight: 200;" fill="rgb(50, 49, 63)" stroke="none" stroke-width="1px">2</text><text x="0" y="0" dx="0em" dy="0.3em" style="text-anchor: end; visibility: hidden; font-family: Roboto, sans-serif; font-size: 12px; font-weight: 200;" fill="rgb(50, 49, 63)" stroke="none" stroke-width="1px">2.2</text></g><line x1="50" y1="0" x2="50" y2="378" fill="rgb(0, 0, 0)" stroke="rgb(204, 204, 204)" stroke-width="1px"></line></g></g><g transform="translate(50, 0)" clip-path="url(#clip_0)"><clipPath id="clip_0"><rect width="711" height="378"></rect></clipPath><g><g><g><line x1="0" y1="0" x2="0" y2="378" fill="rgb(0, 0, 0)" stroke="rgb(60, 60, 60)" stroke-width="1px" opacity="0.25"></line><line x1="59.28333333333333" y1="0" x2="59.28333333333333" y2="378" fill="rgb(0, 0, 0)" stroke="rgb(60, 60, 60)" stroke-width="1px" opacity="0.25"></line><line x1="118.56666666666666" y1="0" x2="118.56666666666666" y2="378" fill="rgb(0, 0, 0)" stroke="rgb(60, 60, 60)" stroke-width="1px" opacity="0.25"></line><line x1="177.85" y1="0" x2="177.85" y2="378" fill="rgb(0, 0, 0)" stroke="rgb(60, 60, 60)" stroke-width="1px" opacity="0.25"></line><line x1="237.13333333333333" y1="0" x2="237.13333333333333" y2="378" fill="rgb(0, 0, 0)" stroke="rgb(60, 60, 60)" stroke-width="1px" opacity="0.25"></line><line x1="296.4166666666667" y1="0" x2="296.4166666666667" y2="378" fill="rgb(0, 0, 0)" stroke="rgb(60, 60, 60)" stroke-width="1px" opacity="0.25"></line><line x1="355.7" y1="0" x2="355.7" y2="378" fill="rgb(0, 0, 0)" stroke="rgb(60, 60, 60)" stroke-width="1px" opacity="0.25"></line><line x1="414.98333333333335" y1="0" x2="414.98333333333335" y2="378" fill="rgb(0, 0, 0)" stroke="rgb(60, 60, 60)" stroke-width="1px" opacity="0.25"></line><line x1="474.26666666666665" y1="0" x2="474.26666666666665" y2="378" fill="rgb(0, 0, 0)" stroke="rgb(60, 60, 60)" stroke-width="1px" opacity="0.25"></line><line x1="533.55" y1="0" x2="533.55" y2="378" fill="rgb(0, 0, 0)" stroke="rgb(60, 60, 60)" stroke-width="1px" opacity="0.25"></line><line x1="592.8333333333334" y1="0" x2="592.8333333333334" y2="378" fill="rgb(0, 0, 0)" stroke="rgb(60, 60, 60)" stroke-width="1px" opacity="0.25"></line><line x1="652.1166666666667" y1="0" x2="652.1166666666667" y2="378" fill="rgb(0, 0, 0)" stroke="rgb(60, 60, 60)" stroke-width="1px" opacity="0.25"></line><line x1="711.4" y1="0" x2="711.4" y2="378" fill="rgb(0, 0, 0)" stroke="rgb(60, 60, 60)" stroke-width="1px" opacity="0.25"></line></g><g><line x1="0" y1="378" x2="711.4" y2="378" fill="rgb(0, 0, 0)" stroke="rgb(60, 60, 60)" stroke-width="1px" opacity="0.25"></line><line x1="0" y1="346.5" x2="711.4" y2="346.5" fill="rgb(0, 0, 0)" stroke="rgb(60, 60, 60)" stroke-width="1px" opacity="0.25"></line><line x1="0" y1="315" x2="711.4" y2="315" fill="rgb(0, 0, 0)" stroke="rgb(60, 60, 60)" stroke-width="1px" opacity="0.25"></line><line x1="0" y1="283.5" x2="711.4" y2="283.5" fill="rgb(0, 0, 0)" stroke="rgb(60, 60, 60)" stroke-width="1px" opacity="0.25"></line><line x1="0" y1="252.00000000000003" x2="711.4" y2="252.00000000000003" fill="rgb(0, 0, 0)" stroke="rgb(60, 60, 60)" stroke-width="1px" opacity="0.25"></line><line x1="0" y1="220.5" x2="711.4" y2="220.5" fill="rgb(0, 0, 0)" stroke="rgb(60, 60, 60)" stroke-width="1px" opacity="0.25"></line><line x1="0" y1="189.00000000000003" x2="711.4" y2="189.00000000000003" fill="rgb(0, 0, 0)" stroke="rgb(60, 60, 60)" stroke-width="1px" opacity="0.25"></line><line x1="0" y1="157.50000000000003" x2="711.4" y2="157.50000000000003" fill="rgb(0, 0, 0)" stroke="rgb(60, 60, 60)" stroke-width="1px" opacity="0.25"></line><line x1="0" y1="126.00000000000006" x2="711.4" y2="126.00000000000006" fill="rgb(0, 0, 0)" stroke="rgb(60, 60, 60)" stroke-width="1px" opacity="0.25"></line><line x1="0" y1="94.50000000000004" x2="711.4" y2="94.50000000000004" fill="rgb(0, 0, 0)" stroke="rgb(60, 60, 60)" stroke-width="1px" opacity="0.25"></line><line x1="0" y1="63.00000000000003" x2="711.4" y2="63.00000000000003" fill="rgb(0, 0, 0)" stroke="rgb(60, 60, 60)" stroke-width="1px" opacity="0.25"></line><line x1="0" y1="31.500000000000014" x2="711.4" y2="31.500000000000014" fill="rgb(0, 0, 0)" stroke="rgb(60, 60, 60)" stroke-width="1px" opacity="0.25"></line><line x1="0" y1="0" x2="711.4" y2="0" fill="rgb(0, 0, 0)" stroke="rgb(60, 60, 60)" stroke-width="1px" opacity="0.25"></line></g></g></g><g><g><line x1="0" y1="346.5" x2="711.4" y2="346.5" fill="rgb(0, 0, 0)" stroke="rgb(153, 153, 153)" stroke-width="1.5px"></line></g></g><g><g><line x1="59.28333333333333" y1="0" x2="59.28333333333333" y2="378" fill="rgb(0, 0, 0)" stroke="rgb(153, 153, 153)" stroke-width="1.5px"></line></g></g><g><g><g><g><g><path stroke="rgb(0, 119, 187)" stroke-width="2px" d="M82.99666666666667,-24.630298376083346L94.85333333333332,11.775362133979826L106.71,46.735349535942106L118.56666666666666,67.53097736835485L130.42333333333332,81.01468884944923L142.28,84.86668163537986L154.13666666666666,90.76619499921806L165.99333333333334,92.93316507339483L177.85,92.37140321731572L189.70666666666665,92.82242739200598L201.56333333333333,94.30330449342733L213.42,94.39567977190023L225.27666666666664,95.06810420751577L237.13333333333333,95.02959573268893L248.98999999999998,95.26729309558871L260.84666666666664,95.38666749000554L272.7033333333333,95.40506744384768L284.56,95.4072453975678L296.4166666666667,95.42098903656012L308.2733333333333,95.42643392086033L320.13,95.43176615238193L331.9866666666667,95.43655389547351L343.8433333333333,95.43734246492389L355.7,95.43781185150151L367.5566666666667,95.43779307603839L379.4133333333333,95.43792450428013L391.27000000000004,95.4381685853005L403.12666666666667,95.43822491168982L414.98333333333335,95.43822491168982L426.84,95.43828123807913L438.69666666666666,95.43824368715289L450.5533333333333,95.43818736076358L462.41,95.43822491168982L474.26666666666665,95.43822491168982L486.12333333333333,95.43822491168982L497.97999999999996,95.43822491168982L509.83666666666664,95.43822491168982L521.6933333333333,95.43822491168982L533.55,95.43822491168982L545.4066666666666,95.43822491168982L557.2633333333333,95.43822491168982L569.12,95.43822491168982L580.9766666666667,95.43822491168982L592.8333333333334,95.43822491168982L604.6899999999999,95.43822491168982L616.5466666666666,95.43822491168982L628.4033333333333,95.43822491168982L640.26,95.43822491168982" style="fill: none;" fill="none"></path></g><g><path stroke="rgb(51, 187, 238)" stroke-width="2px" d="M59.28333333333333,264.6153331696987L71.14,283.55856911838055L82.99666666666667,288.39279086887836L94.85333333333332,293.6380262821913L106.71,295.94356866180897L118.56666666666666,296.83175602555275L130.42333333333332,297.57474334537983L142.28,297.6296944320202L154.13666666666666,298.3300426751375L165.99333333333334,298.72377352416515L177.85,298.6422739326954L189.70666666666665,298.69618767499924L201.56333333333333,298.7613713890314L213.42,298.75660242140293L225.27666666666664,298.785526022315L237.13333333333333,298.8017104715109L248.98999999999998,298.80530597269535L260.84666666666664,298.81222942471504L272.7033333333333,298.8089014738798L284.56,298.81321044266224L296.4166666666667,298.8157122731209L308.2733333333333,298.816317781806L320.13,298.81664165854454L331.9866666666667,298.8168294131756L343.8433333333333,298.8168481886387L355.7,298.8168904334307L367.5566666666667,298.81687635183334L379.4133333333333,298.8169092088938L391.27000000000004,298.8169185966253L403.12666666666667,298.8169232904911L414.98333333333335,298.8169232904911L426.84,298.8169232904911L438.69666666666666,298.8169185966253L450.5533333333333,298.8169279843569L462.41,298.8169279843569L474.26666666666665,298.8169232904911L486.12333333333333,298.8169232904911L497.97999999999996,298.8169232904911L509.83666666666664,298.8169232904911L521.6933333333333,298.8169232904911L533.55,298.8169232904911L545.4066666666666,298.8169232904911L557.2633333333333,298.8169232904911L569.12,298.8169232904911L580.9766666666667,298.8169232904911L592.8333333333334,298.8169232904911L604.6899999999999,298.8169232904911L616.5466666666666,298.8169232904911L628.4033333333333,298.8169232904911L640.26,298.8169232904911" style="fill: none;" fill="none"></path></g><g><path stroke="rgb(204, 51, 17)" stroke-width="2px" d="M59.28333333333333,278.21117171645164L71.14,289.9794958680868L82.99666666666667,297.5600609332323L94.85333333333332,300.433739438653L106.71,300.98176704347134L118.56666666666666,301.71019868552685L130.42333333333332,302.1681979447603L142.28,302.88260900974274L154.13666666666666,303.0439981967211L165.99333333333334,303.13673020899296L177.85,303.22801181674004L189.70666666666665,303.3203166872263L201.56333333333333,303.3709259480238L213.42,303.3674947321415L225.27666666666664,303.38154347240925L237.13333333333333,303.3973758816719L248.98999999999998,303.3969628214836L260.84666666666664,303.40050669014454L272.7033333333333,303.39932852983475L284.56,303.40111219882965L296.4166666666667,303.4011075049639L308.2733333333333,303.40122954547405L320.13,303.40158158540726L331.9866666666667,303.40180219709873L343.8433333333333,303.4018726050854L355.7,303.401943013072L367.5566666666667,303.40195709466934L379.4133333333333,303.40195709466934L391.27000000000004,303.40197117626667L403.12666666666667,303.40197117626667L414.98333333333335,303.40197117626667L426.84,303.40197117626667L438.69666666666666,303.40197587013245L450.5533333333333,303.40197587013245L462.41,303.40197587013245L474.26666666666665,303.40197587013245L486.12333333333333,303.40197587013245L497.97999999999996,303.40197587013245L509.83666666666664,303.40197587013245L521.6933333333333,303.40197587013245L533.55,303.40197587013245L545.4066666666666,303.40197587013245L557.2633333333333,303.40197587013245L569.12,303.40197587013245L580.9766666666667,303.40197587013245L592.8333333333334,303.40197587013245L604.6899999999999,303.40197587013245L616.5466666666666,303.40197587013245L628.4033333333333,303.40197587013245L640.26,303.40197587013245" style="fill: none;" fill="none"></path></g><g><path stroke="rgb(238, 51, 119)" stroke-width="2px" d="M59.28333333333333,284.5371227860451L71.14,294.8274284005165L82.99666666666667,300.9675023853779L94.85333333333332,303.487986266613L106.71,304.73700517416L118.56666666666666,305.1628983914852L130.42333333333332,305.4742988348007L142.28,305.84807136654854L154.13666666666666,306.19137132167816L165.99333333333334,306.389053478837L177.85,306.3364446312189L189.70666666666665,306.4101007729769L201.56333333333333,306.43765376508236L213.42,306.4686661362648L225.27666666666664,306.4899011850357L237.13333333333333,306.4920415878296L248.98999999999998,306.48697221279144L260.84666666666664,306.49098546803L272.7033333333333,306.49166138470173L284.56,306.4927268922329L296.4166666666667,306.4930930137634L308.2733333333333,306.4939754605293L320.13,306.4939003586769L331.9866666666667,306.493961378932L343.8433333333333,306.49413035809994L355.7,306.494233623147L367.5566666666667,306.4942570924759L379.4133333333333,306.494275867939L391.27000000000004,306.49428525567055L403.12666666666667,306.49428056180477L414.98333333333335,306.49428525567055L426.84,306.49428056180477L438.69666666666666,306.49428056180477L450.5533333333333,306.49428056180477L462.41,306.49428056180477L474.26666666666665,306.494275867939L486.12333333333333,306.494275867939L497.97999999999996,306.494275867939L509.83666666666664,306.494275867939L521.6933333333333,306.494275867939L533.55,306.494275867939L545.4066666666666,306.494275867939L557.2633333333333,306.494275867939L569.12,306.494275867939L580.9766666666667,306.494275867939L592.8333333333334,306.494275867939L604.6899999999999,306.494275867939L616.5466666666666,306.494275867939L628.4033333333333,306.494275867939L640.26,306.494275867939" style="fill: none;" fill="none"></path></g><g><path stroke="rgb(255, 112, 67)" stroke-width="2px" d="M71.14,-50.41832184791562L82.99666666666667,11.349759936332731L94.85333333333332,30.975864171981854L106.71,55.500505506992354L118.56666666666666,76.69650131464009L130.42333333333332,83.98907893896107L142.28,84.67143559455877L154.13666666666666,85.11710876226432L165.99333333333334,87.87548714876179L177.85,87.30259144306187L189.70666666666665,87.87518674135215L201.56333333333333,88.49443906545646L213.42,88.5044276118279L225.27666666666664,88.34462964534764L237.13333333333333,88.56163644790657L248.98999999999998,88.58110660314566L260.84666666666664,88.58734005689625L272.7033333333333,88.62842077016836L284.56,88.64180767536168L296.4166666666667,88.65267866849904L308.2733333333333,88.6547627449036L320.13,88.66103374958044L331.9866666666667,88.66467618942265L343.8433333333333,88.66413170099264L355.7,88.66544598340995L367.5566666666667,88.6661594510079L379.4133333333333,88.66600924730308L391.27000000000004,88.6661219000817L403.12666666666667,88.66617822647102L414.98333333333335,88.66614067554478L426.84,88.66610312461859L438.69666666666666,88.66614067554478L450.5533333333333,88.66614067554478L462.41,88.66614067554478L474.26666666666665,88.66614067554478L486.12333333333333,88.66614067554478L497.97999999999996,88.66614067554478L509.83666666666664,88.66614067554478L521.6933333333333,88.66614067554478L533.55,88.66614067554478L545.4066666666666,88.66614067554478L557.2633333333333,88.66614067554478L569.12,88.66614067554478L580.9766666666667,88.66614067554478L592.8333333333334,88.66614067554478L604.6899999999999,88.66614067554478L616.5466666666666,88.66614067554478L628.4033333333333,88.66614067554478L640.26,88.66614067554478" style="fill: none;" fill="none"></path></g></g></g></g></g><g><g><span fill="rgb(0, 0, 0)" stroke="none" stroke-width="1px">Alt + Scroll to Zoom</span></g></g></g><g transform="translate(50, 378)" clip-path="url(#clip_1)"><clipPath id="clip_1"><rect width="711" height="22"></rect></clipPath><g><g><line x1="0" y1="0" x2="0" y2="5" style="visibility: inherit;" fill="rgb(0, 0, 0)" stroke="rgb(204, 204, 204)" stroke-width="1px"></line><line x1="59.28333333333333" y1="0" x2="59.28333333333333" y2="5" style="visibility: inherit;" fill="rgb(0, 0, 0)" stroke="rgb(204, 204, 204)" stroke-width="1px"></line><line x1="118.56666666666666" y1="0" x2="118.56666666666666" y2="5" style="visibility: inherit;" fill="rgb(0, 0, 0)" stroke="rgb(204, 204, 204)" stroke-width="1px"></line><line x1="177.85" y1="0" x2="177.85" y2="5" style="visibility: inherit;" fill="rgb(0, 0, 0)" stroke="rgb(204, 204, 204)" stroke-width="1px"></line><line x1="237.13333333333333" y1="0" x2="237.13333333333333" y2="5" style="visibility: inherit;" fill="rgb(0, 0, 0)" stroke="rgb(204, 204, 204)" stroke-width="1px"></line><line x1="296.4166666666667" y1="0" x2="296.4166666666667" y2="5" style="visibility: inherit;" fill="rgb(0, 0, 0)" stroke="rgb(204, 204, 204)" stroke-width="1px"></line><line x1="355.7" y1="0" x2="355.7" y2="5" style="visibility: inherit;" fill="rgb(0, 0, 0)" stroke="rgb(204, 204, 204)" stroke-width="1px"></line><line x1="414.98333333333335" y1="0" x2="414.98333333333335" y2="5" style="visibility: inherit;" fill="rgb(0, 0, 0)" stroke="rgb(204, 204, 204)" stroke-width="1px"></line><line x1="474.26666666666665" y1="0" x2="474.26666666666665" y2="5" style="visibility: inherit;" fill="rgb(0, 0, 0)" stroke="rgb(204, 204, 204)" stroke-width="1px"></line><line x1="533.55" y1="0" x2="533.55" y2="5" style="visibility: inherit;" fill="rgb(0, 0, 0)" stroke="rgb(204, 204, 204)" stroke-width="1px"></line><line x1="592.8333333333334" y1="0" x2="592.8333333333334" y2="5" style="visibility: inherit;" fill="rgb(0, 0, 0)" stroke="rgb(204, 204, 204)" stroke-width="1px"></line><line x1="652.1166666666667" y1="0" x2="652.1166666666667" y2="5" style="visibility: inherit;" fill="rgb(0, 0, 0)" stroke="rgb(204, 204, 204)" stroke-width="1px"></line><line x1="711.4" y1="0" x2="711.4" y2="5" style="visibility: inherit;" fill="rgb(0, 0, 0)" stroke="rgb(204, 204, 204)" stroke-width="1px"></line></g><g transform="translate(0, 8)"><text x="0" y="0" dx="0em" dy="0.95em" style="text-anchor: middle; visibility: hidden; font-family: Roboto, sans-serif; font-size: 12px; font-weight: 200;" fill="rgb(50, 49, 63)" stroke="none" stroke-width="1px">-5</text><text x="59.28333333333333" y="0" dx="0em" dy="0.95em" style="text-anchor: middle; visibility: inherit; font-family: Roboto, sans-serif; font-size: 12px; font-weight: 200;" fill="rgb(50, 49, 63)" stroke="none" stroke-width="1px">0</text><text x="118.56666666666666" y="0" dx="0em" dy="0.95em" style="text-anchor: middle; visibility: inherit; font-family: Roboto, sans-serif; font-size: 12px; font-weight: 200;" fill="rgb(50, 49, 63)" stroke="none" stroke-width="1px">5</text><text x="177.85" y="0" dx="0em" dy="0.95em" style="text-anchor: middle; visibility: inherit; font-family: Roboto, sans-serif; font-size: 12px; font-weight: 200;" fill="rgb(50, 49, 63)" stroke="none" stroke-width="1px">10</text><text x="237.13333333333333" y="0" dx="0em" dy="0.95em" style="text-anchor: middle; visibility: inherit; font-family: Roboto, sans-serif; font-size: 12px; font-weight: 200;" fill="rgb(50, 49, 63)" stroke="none" stroke-width="1px">15</text><text x="296.4166666666667" y="0" dx="0em" dy="0.95em" style="text-anchor: middle; visibility: inherit; font-family: Roboto, sans-serif; font-size: 12px; font-weight: 200;" fill="rgb(50, 49, 63)" stroke="none" stroke-width="1px">20</text><text x="355.7" y="0" dx="0em" dy="0.95em" style="text-anchor: middle; visibility: inherit; font-family: Roboto, sans-serif; font-size: 12px; font-weight: 200;" fill="rgb(50, 49, 63)" stroke="none" stroke-width="1px">25</text><text x="414.98333333333335" y="0" dx="0em" dy="0.95em" style="text-anchor: middle; visibility: inherit; font-family: Roboto, sans-serif; font-size: 12px; font-weight: 200;" fill="rgb(50, 49, 63)" stroke="none" stroke-width="1px">30</text><text x="474.26666666666665" y="0" dx="0em" dy="0.95em" style="text-anchor: middle; visibility: inherit; font-family: Roboto, sans-serif; font-size: 12px; font-weight: 200;" fill="rgb(50, 49, 63)" stroke="none" stroke-width="1px">35</text><text x="533.55" y="0" dx="0em" dy="0.95em" style="text-anchor: middle; visibility: inherit; font-family: Roboto, sans-serif; font-size: 12px; font-weight: 200;" fill="rgb(50, 49, 63)" stroke="none" stroke-width="1px">40</text><text x="592.8333333333334" y="0" dx="0em" dy="0.95em" style="text-anchor: middle; visibility: inherit; font-family: Roboto, sans-serif; font-size: 12px; font-weight: 200;" fill="rgb(50, 49, 63)" stroke="none" stroke-width="1px">45</text><text x="652.1166666666667" y="0" dx="0em" dy="0.95em" style="text-anchor: middle; visibility: inherit; font-family: Roboto, sans-serif; font-size: 12px; font-weight: 200;" fill="rgb(50, 49, 63)" stroke="none" stroke-width="1px">50</text><text x="711.4" y="0" dx="0em" dy="0.95em" style="text-anchor: middle; visibility: hidden; font-family: Roboto, sans-serif; font-size: 12px; font-weight: 200;" fill="rgb(50, 49, 63)" stroke="none" stroke-width="1px">55</text></g><line x1="0" y1="0" x2="711.4" y2="0" fill="rgb(0, 0, 0)" stroke="rgb(204, 204, 204)" stroke-width="1px"></line></g></g></g></g></svg>