<svg viewBox="0 0 761.4000244140625 400" xmlns="http://www.w3.org/2000/svg"><g><g><g><g><g><line x1="50" y1="378" x2="45" y2="378" style="visibility: inherit;" fill="rgb(0, 0, 0)" stroke="rgb(204, 204, 204)" stroke-width="1px"></line><line x1="50" y1="343.6363636363636" x2="45" y2="343.6363636363636" style="visibility: inherit;" fill="rgb(0, 0, 0)" stroke="rgb(204, 204, 204)" stroke-width="1px"></line><line x1="50" y1="309.27272727272725" x2="45" y2="309.27272727272725" style="visibility: inherit;" fill="rgb(0, 0, 0)" stroke="rgb(204, 204, 204)" stroke-width="1px"></line><line x1="50" y1="274.90909090909093" x2="45" y2="274.90909090909093" style="visibility: inherit;" fill="rgb(0, 0, 0)" stroke="rgb(204, 204, 204)" stroke-width="1px"></line><line x1="50" y1="240.54545454545453" x2="45" y2="240.54545454545453" style="visibility: inherit;" fill="rgb(0, 0, 0)" stroke="rgb(204, 204, 204)" stroke-width="1px"></line><line x1="50" y1="206.18181818181816" x2="45" y2="206.18181818181816" style="visibility: inherit;" fill="rgb(0, 0, 0)" stroke="rgb(204, 204, 204)" stroke-width="1px"></line><line x1="50" y1="171.81818181818184" x2="45" y2="171.81818181818184" style="visibility: inherit;" fill="rgb(0, 0, 0)" stroke="rgb(204, 204, 204)" stroke-width="1px"></line><line x1="50" y1="137.4545454545455" x2="45" y2="137.4545454545455" style="visibility: inherit;" fill="rgb(0, 0, 0)" stroke="rgb(204, 204, 204)" stroke-width="1px"></line><line x1="50" y1="103.09090909090912" x2="45" y2="103.09090909090912" style="visibility: inherit;" fill="rgb(0, 0, 0)" stroke="rgb(204, 204, 204)" stroke-width="1px"></line><line x1="50" y1="68.72727272727275" x2="45" y2="68.72727272727275" style="visibility: inherit;" fill="rgb(0, 0, 0)" stroke="rgb(204, 204, 204)" stroke-width="1px"></line><line x1="50" y1="34.363636363636374" x2="45" y2="34.363636363636374" style="visibility: inherit;" fill="rgb(0, 0, 0)" stroke="rgb(204, 204, 204)" stroke-width="1px"></line><line x1="50" y1="0" x2="45" y2="0" style="visibility: inherit;" fill="rgb(0, 0, 0)" stroke="rgb(204, 204, 204)" stroke-width="1px"></line></g><g transform="translate(40, 0)"><text x="0" y="378" dx="0em" dy="0.3em" style="text-anchor: end; visibility: hidden; font-family: Roboto, sans-serif; font-size: 12px; font-weight: 200;" fill="rgb(50, 49, 63)" stroke="none" stroke-width="1px">-0.2</text><text x="0" y="343.6363636363636" dx="0em" dy="0.3em" style="text-anchor: end; visibility: inherit; font-family: Roboto, sans-serif; font-size: 12px; font-weight: 200;" fill="rgb(50, 49, 63)" stroke="none" stroke-width="1px">0</text><text x="0" y="309.27272727272725" dx="0em" dy="0.3em" style="text-anchor: end; visibility: inherit; font-family: Roboto, sans-serif; font-size: 12px; font-weight: 200;" fill="rgb(50, 49, 63)" stroke="none" stroke-width="1px">0.2</text><text x="0" y="274.90909090909093" dx="0em" dy="0.3em" style="text-anchor: end; visibility: inherit; font-family: Roboto, sans-serif; font-size: 12px; font-weight: 200;" fill="rgb(50, 49, 63)" stroke="none" stroke-width="1px">0.4</text><text x="0" y="240.54545454545453" dx="0em" dy="0.3em" style="text-anchor: end; visibility: inherit; font-family: Roboto, sans-serif; font-size: 12px; font-weight: 200;" fill="rgb(50, 49, 63)" stroke="none" stroke-width="1px">0.6</text><text x="0" y="206.18181818181816" dx="0em" dy="0.3em" style="text-anchor: end; visibility: inherit; font-family: Roboto, sans-serif; font-size: 12px; font-weight: 200;" fill="rgb(50, 49, 63)" stroke="none" stroke-width="1px">0.8</text><text x="0" y="171.81818181818184" dx="0em" dy="0.3em" style="text-anchor: end; visibility: inherit; font-family: Roboto, sans-serif; font-size: 12px; font-weight: 200;" fill="rgb(50, 49, 63)" stroke="none" stroke-width="1px">1</text><text x="0" y="137.4545454545455" dx="0em" dy="0.3em" style="text-anchor: end; visibility: inherit; font-family: Roboto, sans-serif; font-size: 12px; font-weight: 200;" fill="rgb(50, 49, 63)" stroke="none" stroke-width="1px">1.2</text><text x="0" y="103.09090909090912" dx="0em" dy="0.3em" style="text-anchor: end; visibility: inherit; font-family: Roboto, sans-serif; font-size: 12px; font-weight: 200;" fill="rgb(50, 49, 63)" stroke="none" stroke-width="1px">1.4</text><text x="0" y="68.72727272727275" dx="0em" dy="0.3em" style="text-anchor: end; visibility: inherit; font-family: Roboto, sans-serif; font-size: 12px; font-weight: 200;" fill="rgb(50, 49, 63)" stroke="none" stroke-width="1px">1.6</text><text x="0" y="34.363636363636374" dx="0em" dy="0.3em" style="text-anchor: end; visibility: inherit; font-family: Roboto, sans-serif; font-size: 12px; font-weight: 200;" fill="rgb(50, 49, 63)" stroke="none" stroke-width="1px">1.8</text><text x="0" y="0" dx="0em" dy="0.3em" style="text-anchor: end; visibility: hidden; font-family: Roboto, sans-serif; font-size: 12px; font-weight: 200;" fill="rgb(50, 49, 63)" stroke="none" stroke-width="1px">2</text></g><line x1="50" y1="0" x2="50" y2="378" fill="rgb(0, 0, 0)" stroke="rgb(204, 204, 204)" stroke-width="1px"></line></g></g><g transform="translate(50, 0)" clip-path="url(#clip_0)"><clipPath id="clip_0"><rect width="711" height="378"></rect></clipPath><g><g><g><line x1="0" y1="0" x2="0" y2="378" fill="rgb(0, 0, 0)" stroke="rgb(60, 60, 60)" stroke-width="1px" opacity="0.25"></line><line x1="59.28333333333333" y1="0" x2="59.28333333333333" y2="378" fill="rgb(0, 0, 0)" stroke="rgb(60, 60, 60)" stroke-width="1px" opacity="0.25"></line><line x1="118.56666666666666" y1="0" x2="118.56666666666666" y2="378" fill="rgb(0, 0, 0)" stroke="rgb(60, 60, 60)" stroke-width="1px" opacity="0.25"></line><line x1="177.85" y1="0" x2="177.85" y2="378" fill="rgb(0, 0, 0)" stroke="rgb(60, 60, 60)" stroke-width="1px" opacity="0.25"></line><line x1="237.13333333333333" y1="0" x2="237.13333333333333" y2="378" fill="rgb(0, 0, 0)" stroke="rgb(60, 60, 60)" stroke-width="1px" opacity="0.25"></line><line x1="296.4166666666667" y1="0" x2="296.4166666666667" y2="378" fill="rgb(0, 0, 0)" stroke="rgb(60, 60, 60)" stroke-width="1px" opacity="0.25"></line><line x1="355.7" y1="0" x2="355.7" y2="378" fill="rgb(0, 0, 0)" stroke="rgb(60, 60, 60)" stroke-width="1px" opacity="0.25"></line><line x1="414.98333333333335" y1="0" x2="414.98333333333335" y2="378" fill="rgb(0, 0, 0)" stroke="rgb(60, 60, 60)" stroke-width="1px" opacity="0.25"></line><line x1="474.26666666666665" y1="0" x2="474.26666666666665" y2="378" fill="rgb(0, 0, 0)" stroke="rgb(60, 60, 60)" stroke-width="1px" opacity="0.25"></line><line x1="533.55" y1="0" x2="533.55" y2="378" fill="rgb(0, 0, 0)" stroke="rgb(60, 60, 60)" stroke-width="1px" opacity="0.25"></line><line x1="592.8333333333334" y1="0" x2="592.8333333333334" y2="378" fill="rgb(0, 0, 0)" stroke="rgb(60, 60, 60)" stroke-width="1px" opacity="0.25"></line><line x1="652.1166666666667" y1="0" x2="652.1166666666667" y2="378" fill="rgb(0, 0, 0)" stroke="rgb(60, 60, 60)" stroke-width="1px" opacity="0.25"></line><line x1="711.4" y1="0" x2="711.4" y2="378" fill="rgb(0, 0, 0)" stroke="rgb(60, 60, 60)" stroke-width="1px" opacity="0.25"></line></g><g><line x1="0" y1="378" x2="711.4" y2="378" fill="rgb(0, 0, 0)" stroke="rgb(60, 60, 60)" stroke-width="1px" opacity="0.25"></line><line x1="0" y1="343.6363636363636" x2="711.4" y2="343.6363636363636" fill="rgb(0, 0, 0)" stroke="rgb(60, 60, 60)" stroke-width="1px" opacity="0.25"></line><line x1="0" y1="309.27272727272725" x2="711.4" y2="309.27272727272725" fill="rgb(0, 0, 0)" stroke="rgb(60, 60, 60)" stroke-width="1px" opacity="0.25"></line><line x1="0" y1="274.90909090909093" x2="711.4" y2="274.90909090909093" fill="rgb(0, 0, 0)" stroke="rgb(60, 60, 60)" stroke-width="1px" opacity="0.25"></line><line x1="0" y1="240.54545454545453" x2="711.4" y2="240.54545454545453" fill="rgb(0, 0, 0)" stroke="rgb(60, 60, 60)" stroke-width="1px" opacity="0.25"></line><line x1="0" y1="206.18181818181816" x2="711.4" y2="206.18181818181816" fill="rgb(0, 0, 0)" stroke="rgb(60, 60, 60)" stroke-width="1px" opacity="0.25"></line><line x1="0" y1="171.81818181818184" x2="711.4" y2="171.81818181818184" fill="rgb(0, 0, 0)" stroke="rgb(60, 60, 60)" stroke-width="1px" opacity="0.25"></line><line x1="0" y1="137.4545454545455" x2="711.4" y2="137.4545454545455" fill="rgb(0, 0, 0)" stroke="rgb(60, 60, 60)" stroke-width="1px" opacity="0.25"></line><line x1="0" y1="103.09090909090912" x2="711.4" y2="103.09090909090912" fill="rgb(0, 0, 0)" stroke="rgb(60, 60, 60)" stroke-width="1px" opacity="0.25"></line><line x1="0" y1="68.72727272727275" x2="711.4" y2="68.72727272727275" fill="rgb(0, 0, 0)" stroke="rgb(60, 60, 60)" stroke-width="1px" opacity="0.25"></line><line x1="0" y1="34.363636363636374" x2="711.4" y2="34.363636363636374" fill="rgb(0, 0, 0)" stroke="rgb(60, 60, 60)" stroke-width="1px" opacity="0.25"></line><line x1="0" y1="0" x2="711.4" y2="0" fill="rgb(0, 0, 0)" stroke="rgb(60, 60, 60)" stroke-width="1px" opacity="0.25"></line></g></g></g><g><g><line x1="0" y1="343.6363636363636" x2="711.4" y2="343.6363636363636" fill="rgb(0, 0, 0)" stroke="rgb(153, 153, 153)" stroke-width="1.5px"></line></g></g><g><g><line x1="59.28333333333333" y1="0" x2="59.28333333333333" y2="378" fill="rgb(0, 0, 0)" stroke="rgb(153, 153, 153)" stroke-width="1.5px"></line></g></g><g><g><g><g><g><path stroke="rgb(0, 119, 187)" stroke-width="2px" d="M59.28333333333333,272.7843867919662L71.14,292.47272827408534L82.99666666666667,298.39683066714895L94.85333333333332,301.08759093013674L106.71,301.19290847669953L118.56666666666666,301.3820550523021L130.42333333333332,301.72197457064283L142.28,301.66309557177806L154.13666666666666,301.82394325733185L165.99333333333334,301.89793821085584L177.85,301.93321901288897L189.70666666666665,301.9840023734353L201.56333333333333,302.04937170852315L213.42,302.05503763122994L225.27666666666664,302.05261303619903L237.13333333333333,302.0593901249495L248.98999999999998,302.057088423859L260.84666666666664,302.05888574773616L272.7033333333333,302.0603297515349L284.56,302.0602555031126L296.4166666666667,302.05951301888985L308.2733333333333,302.05936964262617L320.13,302.05916481939227L331.9866666666667,302.05926723100924L343.8433333333333,302.0592825927518L355.7,302.05932611768895L367.5566666666667,302.0593414794315L379.4133333333333,302.0593517205932L391.27000000000004,302.05936196175486L403.12666666666667,302.05936708233577L414.98333333333335,302.05936196175486L426.84,302.05936708233577L438.69666666666666,302.05936708233577L450.5533333333333,302.05936708233577L462.41,302.05936708233577L474.26666666666665,302.05936708233577L486.12333333333333,302.05936708233577L497.97999999999996,302.05936708233577L509.83666666666664,302.05936708233577L521.6933333333333,302.05936708233577L533.55,302.05936708233577L545.4066666666666,302.05936708233577L557.2633333333333,302.05936708233577L569.12,302.05936708233577L580.9766666666667,302.05936708233577L592.8333333333334,302.05936708233577L604.6899999999999,302.05936708233577L616.5466666666666,302.05936708233577L628.4033333333333,302.05936708233577L640.26,302.05936708233577" style="fill: none;" fill="none"></path></g><g><path stroke="rgb(51, 187, 238)" stroke-width="2px" d="M59.28333333333333,274.7257474877618L71.14,289.99588795683604L82.99666666666667,298.5966510935263L94.85333333333332,300.31531260772186L106.71,301.19630086151034L118.56666666666666,301.66437315669924L130.42333333333332,301.82944788174194L142.28,301.9659958508882L154.13666666666666,302.0484653657133L165.99333333333334,302.16537590731275L177.85,302.22392718900335L189.70666666666665,302.2560690749775L201.56333333333333,302.2879651730711L213.42,302.2920974818143L225.27666666666664,302.29545146226883L237.13333333333333,302.29504693638194L248.98999999999998,302.2951493479989L260.84666666666664,302.296129939231L272.7033333333333,302.2961376201023L284.56,302.2958713498983L296.4166666666667,302.2960096055811L308.2733333333333,302.295996804129L320.13,302.2960659319704L331.9866666666667,302.2961401803927L343.8433333333333,302.2961862656203L355.7,302.29620930823415L367.5566666666667,302.2962297905575L379.4133333333333,302.2962400317192L391.27000000000004,302.2962477125905L403.12666666666667,302.2962374714288L414.98333333333335,302.2962425920096L426.84,302.2962425920096L438.69666666666666,302.2962400317192L450.5533333333333,302.2962425920096L462.41,302.2962425920096L474.26666666666665,302.2962425920096L486.12333333333333,302.2962425920096L497.97999999999996,302.2962425920096L509.83666666666664,302.2962425920096L521.6933333333333,302.2962425920096L533.55,302.2962425920096L545.4066666666666,302.2962425920096L557.2633333333333,302.2962425920096L569.12,302.2962425920096L580.9766666666667,302.2962425920096L592.8333333333334,302.2962425920096L604.6899999999999,302.2962425920096L616.5466666666666,302.2962425920096L628.4033333333333,302.2962425920096L640.26,302.2962425920096" style="fill: none;" fill="none"></path></g><g><path stroke="rgb(238, 51, 119)" stroke-width="2px" d="M59.28333333333333,279.9857259067622L71.14,290.22750206969005L82.99666666666667,298.1228079037233L94.85333333333332,300.21729956973684L106.71,300.29668393460184L118.56666666666666,301.1215455017307L130.42333333333332,301.0787169635296L142.28,301.38071858070117L154.13666666666666,301.4733729308302L165.99333333333334,301.56050217422575L177.85,301.61054305054927L189.70666666666665,301.6508061777462L201.56333333333333,301.6982765224847L213.42,301.69186043468386L225.27666666666664,301.7161729525436L237.13333333333333,301.7223586142063L248.98999999999998,301.72188752076846L260.84666666666664,301.7235261066393L272.7033333333333,301.72547448765147L284.56,301.72629634087735L296.4166666666667,301.7266419800845L308.2733333333333,301.7269364134832L320.13,301.7266368595037L331.9866666666667,301.72691081057894L343.8433333333333,301.7269364134832L355.7,301.72702090306717L367.5566666666667,301.7270618677139L379.4133333333333,301.7270618677139L391.27000000000004,301.7270669882948L403.12666666666667,301.72707210887563L414.98333333333335,301.7270772294565L426.84,301.7270772294565L438.69666666666666,301.7270772294565L450.5533333333333,301.72707466916603L462.41,301.72707466916603L474.26666666666665,301.72707466916603L486.12333333333333,301.72707466916603L497.97999999999996,301.72707466916603L509.83666666666664,301.72707466916603L521.6933333333333,301.72707466916603L533.55,301.72707466916603L545.4066666666666,301.72707466916603L557.2633333333333,301.72707466916603L569.12,301.72707466916603L580.9766666666667,301.72707466916603L592.8333333333334,301.72707466916603L604.6899999999999,301.72707466916603L616.5466666666666,301.72707466916603L628.4033333333333,301.72707466916603L640.26,301.72707466916603" style="fill: none;" fill="none"></path></g><g><path stroke="rgb(204, 51, 17)" stroke-width="2px" d="M59.28333333333333,277.89153123443776L71.14,292.4782943454656L82.99666666666667,298.2511040568352L94.85333333333332,300.2566973187707L106.71,300.31574273651296L118.56666666666666,301.2228536334905L130.42333333333332,301.30573535507375L142.28,301.68635324998337L154.13666666666666,301.83610207655215L165.99333333333334,301.82254277847034L177.85,301.87351047992706L189.70666666666665,301.93132183768535L201.56333333333333,301.95305614308876L213.42,301.9692704623396L225.27666666666664,301.9743680005724L237.13333333333333,301.981992545453L248.98999999999998,301.9842993671244L260.84666666666664,301.9869287853891L272.7033333333333,301.9881935688582L284.56,301.988585293293L296.4166666666667,301.989486515522L308.2733333333333,301.99062584476036L320.13,301.9907103343443L331.9866666666667,301.9907717813145L343.8433333333333,301.9909202781591L355.7,301.99097404425794L367.5566666666667,301.9909996471622L379.4133333333333,301.99100988832384L391.27000000000004,301.9910124486143L403.12666666666667,301.99101500890475L414.98333333333335,301.99101756919515L426.84,301.99101756919515L438.69666666666666,301.99101756919515L450.5533333333333,301.99101756919515L462.41,301.99101756919515L474.26666666666665,301.99101756919515L486.12333333333333,301.99101756919515L497.97999999999996,301.99101756919515L509.83666666666664,301.99101756919515L521.6933333333333,301.99101756919515L533.55,301.99101756919515L545.4066666666666,301.99101756919515L557.2633333333333,301.99101756919515L569.12,301.99101756919515L580.9766666666667,301.99101756919515L592.8333333333334,301.99101756919515L604.6899999999999,301.99101756919515L616.5466666666666,301.99101756919515L628.4033333333333,301.99101756919515L640.26,301.99101756919515" style="fill: none;" fill="none"></path></g><g><path stroke="rgb(255, 112, 67)" stroke-width="2px" d="M94.85333333333332,-0.5717845396562438L106.71,26.182369643991628L118.56666666666666,49.30527416142555L130.42333333333332,57.26081338795753L142.28,58.00520246679135L154.13666666666666,58.491391377015596L165.99333333333334,61.50053143501286L177.85,60.875554301522016L189.70666666666665,61.50020371783869L201.56333333333333,62.17575170777063L213.42,62.18664830381223L225.27666666666664,62.01232324947016L237.13333333333333,62.24905794317075L248.98999999999998,62.270298112522525L260.84666666666664,62.27709824388679L272.7033333333333,62.32191356745636L284.56,62.336517464030905L296.4166666666667,62.34837672927165L308.2733333333333,62.35065026716757L320.13,62.35749136317865L331.9866666666667,62.36146493391562L343.8433333333333,62.36087094653742L355.7,62.36230470917444L367.5566666666667,62.36308303746315L379.4133333333333,62.36291917887604L391.27000000000004,62.36304207281638L403.12666666666667,62.36310351978652L414.98333333333335,62.36306255513974L426.84,62.36302159049296L438.69666666666666,62.36306255513974L450.5533333333333,62.36306255513974L462.41,62.36306255513974L474.26666666666665,62.36306255513974L486.12333333333333,62.36306255513974L497.97999999999996,62.36306255513974L509.83666666666664,62.36306255513974L521.6933333333333,62.36306255513974L533.55,62.36306255513974L545.4066666666666,62.36306255513974L557.2633333333333,62.36306255513974L569.12,62.36306255513974L580.9766666666667,62.36306255513974L592.8333333333334,62.36306255513974L604.6899999999999,62.36306255513974L616.5466666666666,62.36306255513974L628.4033333333333,62.36306255513974L640.26,62.36306255513974" style="fill: none;" fill="none"></path></g></g></g></g></g><g><g opacity="0.967448"><span fill="rgb(0, 0, 0)" stroke="none" stroke-width="1px">Alt + Scroll to Zoom</span></g></g></g><g transform="translate(50, 378)" clip-path="url(#clip_1)"><clipPath id="clip_1"><rect width="711" height="22"></rect></clipPath><g><g><line x1="0" y1="0" x2="0" y2="5" style="visibility: inherit;" fill="rgb(0, 0, 0)" stroke="rgb(204, 204, 204)" stroke-width="1px"></line><line x1="59.28333333333333" y1="0" x2="59.28333333333333" y2="5" style="visibility: inherit;" fill="rgb(0, 0, 0)" stroke="rgb(204, 204, 204)" stroke-width="1px"></line><line x1="118.56666666666666" y1="0" x2="118.56666666666666" y2="5" style="visibility: inherit;" fill="rgb(0, 0, 0)" stroke="rgb(204, 204, 204)" stroke-width="1px"></line><line x1="177.85" y1="0" x2="177.85" y2="5" style="visibility: inherit;" fill="rgb(0, 0, 0)" stroke="rgb(204, 204, 204)" stroke-width="1px"></line><line x1="237.13333333333333" y1="0" x2="237.13333333333333" y2="5" style="visibility: inherit;" fill="rgb(0, 0, 0)" stroke="rgb(204, 204, 204)" stroke-width="1px"></line><line x1="296.4166666666667" y1="0" x2="296.4166666666667" y2="5" style="visibility: inherit;" fill="rgb(0, 0, 0)" stroke="rgb(204, 204, 204)" stroke-width="1px"></line><line x1="355.7" y1="0" x2="355.7" y2="5" style="visibility: inherit;" fill="rgb(0, 0, 0)" stroke="rgb(204, 204, 204)" stroke-width="1px"></line><line x1="414.98333333333335" y1="0" x2="414.98333333333335" y2="5" style="visibility: inherit;" fill="rgb(0, 0, 0)" stroke="rgb(204, 204, 204)" stroke-width="1px"></line><line x1="474.26666666666665" y1="0" x2="474.26666666666665" y2="5" style="visibility: inherit;" fill="rgb(0, 0, 0)" stroke="rgb(204, 204, 204)" stroke-width="1px"></line><line x1="533.55" y1="0" x2="533.55" y2="5" style="visibility: inherit;" fill="rgb(0, 0, 0)" stroke="rgb(204, 204, 204)" stroke-width="1px"></line><line x1="592.8333333333334" y1="0" x2="592.8333333333334" y2="5" style="visibility: inherit;" fill="rgb(0, 0, 0)" stroke="rgb(204, 204, 204)" stroke-width="1px"></line><line x1="652.1166666666667" y1="0" x2="652.1166666666667" y2="5" style="visibility: inherit;" fill="rgb(0, 0, 0)" stroke="rgb(204, 204, 204)" stroke-width="1px"></line><line x1="711.4" y1="0" x2="711.4" y2="5" style="visibility: inherit;" fill="rgb(0, 0, 0)" stroke="rgb(204, 204, 204)" stroke-width="1px"></line></g><g transform="translate(0, 8)"><text x="0" y="0" dx="0em" dy="0.95em" style="text-anchor: middle; visibility: hidden; font-family: Roboto, sans-serif; font-size: 12px; font-weight: 200;" fill="rgb(50, 49, 63)" stroke="none" stroke-width="1px">-5</text><text x="59.28333333333333" y="0" dx="0em" dy="0.95em" style="text-anchor: middle; visibility: inherit; font-family: Roboto, sans-serif; font-size: 12px; font-weight: 200;" fill="rgb(50, 49, 63)" stroke="none" stroke-width="1px">0</text><text x="118.56666666666666" y="0" dx="0em" dy="0.95em" style="text-anchor: middle; visibility: inherit; font-family: Roboto, sans-serif; font-size: 12px; font-weight: 200;" fill="rgb(50, 49, 63)" stroke="none" stroke-width="1px">5</text><text x="177.85" y="0" dx="0em" dy="0.95em" style="text-anchor: middle; visibility: inherit; font-family: Roboto, sans-serif; font-size: 12px; font-weight: 200;" fill="rgb(50, 49, 63)" stroke="none" stroke-width="1px">10</text><text x="237.13333333333333" y="0" dx="0em" dy="0.95em" style="text-anchor: middle; visibility: inherit; font-family: Roboto, sans-serif; font-size: 12px; font-weight: 200;" fill="rgb(50, 49, 63)" stroke="none" stroke-width="1px">15</text><text x="296.4166666666667" y="0" dx="0em" dy="0.95em" style="text-anchor: middle; visibility: inherit; font-family: Roboto, sans-serif; font-size: 12px; font-weight: 200;" fill="rgb(50, 49, 63)" stroke="none" stroke-width="1px">20</text><text x="355.7" y="0" dx="0em" dy="0.95em" style="text-anchor: middle; visibility: inherit; font-family: Roboto, sans-serif; font-size: 12px; font-weight: 200;" fill="rgb(50, 49, 63)" stroke="none" stroke-width="1px">25</text><text x="414.98333333333335" y="0" dx="0em" dy="0.95em" style="text-anchor: middle; visibility: inherit; font-family: Roboto, sans-serif; font-size: 12px; font-weight: 200;" fill="rgb(50, 49, 63)" stroke="none" stroke-width="1px">30</text><text x="474.26666666666665" y="0" dx="0em" dy="0.95em" style="text-anchor: middle; visibility: inherit; font-family: Roboto, sans-serif; font-size: 12px; font-weight: 200;" fill="rgb(50, 49, 63)" stroke="none" stroke-width="1px">35</text><text x="533.55" y="0" dx="0em" dy="0.95em" style="text-anchor: middle; visibility: inherit; font-family: Roboto, sans-serif; font-size: 12px; font-weight: 200;" fill="rgb(50, 49, 63)" stroke="none" stroke-width="1px">40</text><text x="592.8333333333334" y="0" dx="0em" dy="0.95em" style="text-anchor: middle; visibility: inherit; font-family: Roboto, sans-serif; font-size: 12px; font-weight: 200;" fill="rgb(50, 49, 63)" stroke="none" stroke-width="1px">45</text><text x="652.1166666666667" y="0" dx="0em" dy="0.95em" style="text-anchor: middle; visibility: inherit; font-family: Roboto, sans-serif; font-size: 12px; font-weight: 200;" fill="rgb(50, 49, 63)" stroke="none" stroke-width="1px">50</text><text x="711.4" y="0" dx="0em" dy="0.95em" style="text-anchor: middle; visibility: hidden; font-family: Roboto, sans-serif; font-size: 12px; font-weight: 200;" fill="rgb(50, 49, 63)" stroke="none" stroke-width="1px">55</text></g><line x1="0" y1="0" x2="711.4" y2="0" fill="rgb(0, 0, 0)" stroke="rgb(204, 204, 204)" stroke-width="1px"></line></g></g></g></g></svg>