<svg viewBox="0 0 761.4000244140625 400" xmlns="http://www.w3.org/2000/svg"><g><g><g><g><g><line x1="60" y1="378" x2="55" y2="378" style="visibility: inherit;" fill="rgb(0, 0, 0)" stroke="rgb(204, 204, 204)" stroke-width="1px"></line><line x1="60" y1="336" x2="55" y2="336" style="visibility: inherit;" fill="rgb(0, 0, 0)" stroke="rgb(204, 204, 204)" stroke-width="1px"></line><line x1="60" y1="294" x2="55" y2="294" style="visibility: inherit;" fill="rgb(0, 0, 0)" stroke="rgb(204, 204, 204)" stroke-width="1px"></line><line x1="60" y1="252.00000000000003" x2="55" y2="252.00000000000003" style="visibility: inherit;" fill="rgb(0, 0, 0)" stroke="rgb(204, 204, 204)" stroke-width="1px"></line><line x1="60" y1="210" x2="55" y2="210" style="visibility: inherit;" fill="rgb(0, 0, 0)" stroke="rgb(204, 204, 204)" stroke-width="1px"></line><line x1="60" y1="168" x2="55" y2="168" style="visibility: inherit;" fill="rgb(0, 0, 0)" stroke="rgb(204, 204, 204)" stroke-width="1px"></line><line x1="60" y1="126.00000000000001" x2="55" y2="126.00000000000001" style="visibility: inherit;" fill="rgb(0, 0, 0)" stroke="rgb(204, 204, 204)" stroke-width="1px"></line><line x1="60" y1="84" x2="55" y2="84" style="visibility: inherit;" fill="rgb(0, 0, 0)" stroke="rgb(204, 204, 204)" stroke-width="1px"></line><line x1="60" y1="42.00000000000002" x2="55" y2="42.00000000000002" style="visibility: inherit;" fill="rgb(0, 0, 0)" stroke="rgb(204, 204, 204)" stroke-width="1px"></line><line x1="60" y1="0" x2="55" y2="0" style="visibility: inherit;" fill="rgb(0, 0, 0)" stroke="rgb(204, 204, 204)" stroke-width="1px"></line></g><g transform="translate(50, 0)"><text x="0" y="378" dx="0em" dy="0.3em" style="text-anchor: end; visibility: hidden; font-family: Roboto, sans-serif; font-size: 12px; font-weight: 200;" fill="rgb(50, 49, 63)" stroke="none" stroke-width="1px">0.85</text><text x="0" y="336" dx="0em" dy="0.3em" style="text-anchor: end; visibility: inherit; font-family: Roboto, sans-serif; font-size: 12px; font-weight: 200;" fill="rgb(50, 49, 63)" stroke="none" stroke-width="1px">0.855</text><text x="0" y="294" dx="0em" dy="0.3em" style="text-anchor: end; visibility: inherit; font-family: Roboto, sans-serif; font-size: 12px; font-weight: 200;" fill="rgb(50, 49, 63)" stroke="none" stroke-width="1px">0.86</text><text x="0" y="252.00000000000003" dx="0em" dy="0.3em" style="text-anchor: end; visibility: inherit; font-family: Roboto, sans-serif; font-size: 12px; font-weight: 200;" fill="rgb(50, 49, 63)" stroke="none" stroke-width="1px">0.865</text><text x="0" y="210" dx="0em" dy="0.3em" style="text-anchor: end; visibility: inherit; font-family: Roboto, sans-serif; font-size: 12px; font-weight: 200;" fill="rgb(50, 49, 63)" stroke="none" stroke-width="1px">0.87</text><text x="0" y="168" dx="0em" dy="0.3em" style="text-anchor: end; visibility: inherit; font-family: Roboto, sans-serif; font-size: 12px; font-weight: 200;" fill="rgb(50, 49, 63)" stroke="none" stroke-width="1px">0.875</text><text x="0" y="126.00000000000001" dx="0em" dy="0.3em" style="text-anchor: end; visibility: inherit; font-family: Roboto, sans-serif; font-size: 12px; font-weight: 200;" fill="rgb(50, 49, 63)" stroke="none" stroke-width="1px">0.88</text><text x="0" y="84" dx="0em" dy="0.3em" style="text-anchor: end; visibility: inherit; font-family: Roboto, sans-serif; font-size: 12px; font-weight: 200;" fill="rgb(50, 49, 63)" stroke="none" stroke-width="1px">0.885</text><text x="0" y="42.00000000000002" dx="0em" dy="0.3em" style="text-anchor: end; visibility: inherit; font-family: Roboto, sans-serif; font-size: 12px; font-weight: 200;" fill="rgb(50, 49, 63)" stroke="none" stroke-width="1px">0.89</text><text x="0" y="0" dx="0em" dy="0.3em" style="text-anchor: end; visibility: hidden; font-family: Roboto, sans-serif; font-size: 12px; font-weight: 200;" fill="rgb(50, 49, 63)" stroke="none" stroke-width="1px">0.895</text></g><line x1="60" y1="0" x2="60" y2="378" fill="rgb(0, 0, 0)" stroke="rgb(204, 204, 204)" stroke-width="1px"></line></g></g><g transform="translate(60, 0)" clip-path="url(#clip_0)"><clipPath id="clip_0"><rect width="701" height="378"></rect></clipPath><g><g><g><line x1="0" y1="0" x2="0" y2="378" fill="rgb(0, 0, 0)" stroke="rgb(60, 60, 60)" stroke-width="1px" opacity="0.25"></line><line x1="58.449999999999996" y1="0" x2="58.449999999999996" y2="378" fill="rgb(0, 0, 0)" stroke="rgb(60, 60, 60)" stroke-width="1px" opacity="0.25"></line><line x1="116.89999999999999" y1="0" x2="116.89999999999999" y2="378" fill="rgb(0, 0, 0)" stroke="rgb(60, 60, 60)" stroke-width="1px" opacity="0.25"></line><line x1="175.35" y1="0" x2="175.35" y2="378" fill="rgb(0, 0, 0)" stroke="rgb(60, 60, 60)" stroke-width="1px" opacity="0.25"></line><line x1="233.79999999999998" y1="0" x2="233.79999999999998" y2="378" fill="rgb(0, 0, 0)" stroke="rgb(60, 60, 60)" stroke-width="1px" opacity="0.25"></line><line x1="292.25" y1="0" x2="292.25" y2="378" fill="rgb(0, 0, 0)" stroke="rgb(60, 60, 60)" stroke-width="1px" opacity="0.25"></line><line x1="350.7" y1="0" x2="350.7" y2="378" fill="rgb(0, 0, 0)" stroke="rgb(60, 60, 60)" stroke-width="1px" opacity="0.25"></line><line x1="409.15000000000003" y1="0" x2="409.15000000000003" y2="378" fill="rgb(0, 0, 0)" stroke="rgb(60, 60, 60)" stroke-width="1px" opacity="0.25"></line><line x1="467.59999999999997" y1="0" x2="467.59999999999997" y2="378" fill="rgb(0, 0, 0)" stroke="rgb(60, 60, 60)" stroke-width="1px" opacity="0.25"></line><line x1="526.05" y1="0" x2="526.05" y2="378" fill="rgb(0, 0, 0)" stroke="rgb(60, 60, 60)" stroke-width="1px" opacity="0.25"></line><line x1="584.5" y1="0" x2="584.5" y2="378" fill="rgb(0, 0, 0)" stroke="rgb(60, 60, 60)" stroke-width="1px" opacity="0.25"></line><line x1="642.9499999999999" y1="0" x2="642.9499999999999" y2="378" fill="rgb(0, 0, 0)" stroke="rgb(60, 60, 60)" stroke-width="1px" opacity="0.25"></line><line x1="701.4" y1="0" x2="701.4" y2="378" fill="rgb(0, 0, 0)" stroke="rgb(60, 60, 60)" stroke-width="1px" opacity="0.25"></line></g><g><line x1="0" y1="378" x2="701.4" y2="378" fill="rgb(0, 0, 0)" stroke="rgb(60, 60, 60)" stroke-width="1px" opacity="0.25"></line><line x1="0" y1="336" x2="701.4" y2="336" fill="rgb(0, 0, 0)" stroke="rgb(60, 60, 60)" stroke-width="1px" opacity="0.25"></line><line x1="0" y1="294" x2="701.4" y2="294" fill="rgb(0, 0, 0)" stroke="rgb(60, 60, 60)" stroke-width="1px" opacity="0.25"></line><line x1="0" y1="252.00000000000003" x2="701.4" y2="252.00000000000003" fill="rgb(0, 0, 0)" stroke="rgb(60, 60, 60)" stroke-width="1px" opacity="0.25"></line><line x1="0" y1="210" x2="701.4" y2="210" fill="rgb(0, 0, 0)" stroke="rgb(60, 60, 60)" stroke-width="1px" opacity="0.25"></line><line x1="0" y1="168" x2="701.4" y2="168" fill="rgb(0, 0, 0)" stroke="rgb(60, 60, 60)" stroke-width="1px" opacity="0.25"></line><line x1="0" y1="126.00000000000001" x2="701.4" y2="126.00000000000001" fill="rgb(0, 0, 0)" stroke="rgb(60, 60, 60)" stroke-width="1px" opacity="0.25"></line><line x1="0" y1="84" x2="701.4" y2="84" fill="rgb(0, 0, 0)" stroke="rgb(60, 60, 60)" stroke-width="1px" opacity="0.25"></line><line x1="0" y1="42.00000000000002" x2="701.4" y2="42.00000000000002" fill="rgb(0, 0, 0)" stroke="rgb(60, 60, 60)" stroke-width="1px" opacity="0.25"></line><line x1="0" y1="0" x2="701.4" y2="0" fill="rgb(0, 0, 0)" stroke="rgb(60, 60, 60)" stroke-width="1px" opacity="0.25"></line></g></g></g><g><g><line x1="0" y1="7517.999999999994" x2="701.4" y2="7517.999999999994" fill="rgb(0, 0, 0)" stroke="rgb(153, 153, 153)" stroke-width="1.5px"></line></g></g><g><g><line x1="58.449999999999996" y1="0" x2="58.449999999999996" y2="378" fill="rgb(0, 0, 0)" stroke="rgb(153, 153, 153)" stroke-width="1.5px"></line></g></g><g><g><g><g><g><path stroke="rgb(0, 119, 187)" stroke-width="2px" d="M58.449999999999996,559.3687705993649L70.14,326.39831829071034L81.83,197.93760108947754L93.52,123.9097051620484L105.21,117.37784671783452L116.89999999999999,113.02344131469732L128.58999999999997,128.2646112442017L140.28,117.37784671783452L151.97,108.66853523254402L163.66,113.02344131469732L175.35,106.49158287048347L187.04,97.78227138519294L198.73,102.13667678833013L210.42,102.13667678833013L222.10999999999999,102.13667678833013L233.79999999999998,102.13667678833013L245.48999999999998,102.13667678833013L257.17999999999995,102.13667678833013L268.87,102.13667678833013L280.56,102.13667678833013L292.25,102.13667678833013L303.94,102.13667678833013L315.63,102.13667678833013L327.32,102.13667678833013L339.01,102.13667678833013L350.7,102.13667678833013L362.39000000000004,102.13667678833013L374.08,102.13667678833013L385.77000000000004,102.13667678833013L397.46,102.13667678833013L409.15000000000003,102.13667678833013L420.84,102.13667678833013L432.53000000000003,102.13667678833013L444.21999999999997,102.13667678833013L455.91,102.13667678833013L467.59999999999997,102.13667678833013L479.29,102.13667678833013L490.97999999999996,102.13667678833013L502.67,102.13667678833013L514.3599999999999,102.13667678833013L526.05,102.13667678833013L537.74,102.13667678833013L549.43,102.13667678833013L561.12,102.13667678833013L572.81,102.13667678833013L584.5,102.13667678833013L596.1899999999999,102.13667678833013L607.88,102.13667678833013L619.5699999999999,102.13667678833013L631.26,102.13667678833013" style="fill: none;" fill="none"></path></g><g><path stroke="rgb(51, 187, 238)" stroke-width="2px" d="M58.449999999999996,507.11340236663784L70.14,328.5752706527709L81.83,202.29250717163083L93.52,156.5689973831177L105.21,134.79646968841553L116.89999999999999,108.66853523254402L128.58999999999997,108.66853523254402L140.28,99.95972442626959L151.97,108.66853523254402L163.66,104.31412982940678L175.35,106.49158287048347L187.04,97.78227138519294L198.73,97.78227138519294L210.42,97.78227138519294L222.10999999999999,97.78227138519294L233.79999999999998,97.78227138519294L245.48999999999998,97.78227138519294L257.17999999999995,97.78227138519294L268.87,97.78227138519294L280.56,97.78227138519294L292.25,97.78227138519294L303.94,97.78227138519294L315.63,97.78227138519294L327.32,97.78227138519294L339.01,97.78227138519294L350.7,97.78227138519294L362.39000000000004,97.78227138519294L374.08,97.78227138519294L385.77000000000004,97.78227138519294L397.46,97.78227138519294L409.15000000000003,97.78227138519294L420.84,97.78227138519294L432.53000000000003,97.78227138519294L444.21999999999997,97.78227138519294L455.91,97.78227138519294L467.59999999999997,97.78227138519294L479.29,97.78227138519294L490.97999999999996,97.78227138519294L502.67,97.78227138519294L514.3599999999999,97.78227138519294L526.05,97.78227138519294L537.74,97.78227138519294L549.43,97.78227138519294L561.12,97.78227138519294L572.81,97.78227138519294L584.5,97.78227138519294L596.1899999999999,97.78227138519294L607.88,97.78227138519294L619.5699999999999,97.78227138519294L631.26,97.78227138519294" style="fill: none;" fill="none"></path></g><g><path stroke="rgb(238, 51, 119)" stroke-width="2px" d="M58.449999999999996,450.5041294097898L70.14,313.3346014022826L81.83,187.05133724212646L93.52,143.50528049468997L105.21,130.44156360626224L116.89999999999999,123.9097051620484L128.58999999999997,136.97342205047607L140.28,115.20039367675786L151.97,106.49158287048347L163.66,95.60481834411628L175.35,99.95972442626959L187.04,99.95972442626959L198.73,95.60481834411628L210.42,95.60481834411628L222.10999999999999,95.60481834411628L233.79999999999998,95.60481834411628L245.48999999999998,95.60481834411628L257.17999999999995,95.60481834411628L268.87,95.60481834411628L280.56,95.60481834411628L292.25,95.60481834411628L303.94,95.60481834411628L315.63,95.60481834411628L327.32,95.60481834411628L339.01,95.60481834411628L350.7,95.60481834411628L362.39000000000004,95.60481834411628L374.08,95.60481834411628L385.77000000000004,95.60481834411628L397.46,95.60481834411628L409.15000000000003,95.60481834411628L420.84,95.60481834411628L432.53000000000003,95.60481834411628L444.21999999999997,95.60481834411628L455.91,95.60481834411628L467.59999999999997,95.60481834411628L479.29,95.60481834411628L490.97999999999996,95.60481834411628L502.67,95.60481834411628L514.3599999999999,95.60481834411628L526.05,95.60481834411628L537.74,95.60481834411628L549.43,95.60481834411628L561.12,95.60481834411628L572.81,95.60481834411628L584.5,95.60481834411628L596.1899999999999,95.60481834411628L607.88,95.60481834411628L619.5699999999999,95.60481834411628L631.26,95.60481834411628" style="fill: none;" fill="none"></path></g><g><path stroke="rgb(204, 51, 17)" stroke-width="2px" d="M58.449999999999996,494.04968547821017L70.14,280.67480850219715L81.83,197.93760108947754L93.52,169.63321495056152L105.21,171.81016731262207L116.89999999999999,136.97342205047607L128.58999999999997,147.86018657684326L140.28,134.79646968841553L151.97,128.2646112442017L163.66,123.9097051620484L175.35,113.02344131469732L187.04,115.20039367675786L198.73,106.49158287048347L210.42,108.66853523254402L222.10999999999999,108.66853523254402L233.79999999999998,108.66853523254402L245.48999999999998,110.84598827362066L257.17999999999995,110.84598827362066L268.87,110.84598827362066L280.56,110.84598827362066L292.25,110.84598827362066L303.94,110.84598827362066L315.63,110.84598827362066L327.32,110.84598827362066L339.01,110.84598827362066L350.7,110.84598827362066L362.39000000000004,110.84598827362066L374.08,110.84598827362066L385.77000000000004,110.84598827362066L397.46,110.84598827362066L409.15000000000003,110.84598827362066L420.84,110.84598827362066L432.53000000000003,110.84598827362066L444.21999999999997,110.84598827362066L455.91,110.84598827362066L467.59999999999997,110.84598827362066L479.29,110.84598827362066L490.97999999999996,110.84598827362066L502.67,110.84598827362066L514.3599999999999,110.84598827362066L526.05,110.84598827362066L537.74,110.84598827362066L549.43,110.84598827362066L561.12,110.84598827362066L572.81,110.84598827362066L584.5,110.84598827362066L596.1899999999999,110.84598827362066L607.88,110.84598827362066L619.5699999999999,110.84598827362066L631.26,110.84598827362066" style="fill: none;" fill="none"></path></g><g><path stroke="rgb(255, 112, 67)" stroke-width="2px" d="M70.14,392.64866638183577L81.83,298.6351661682128L93.52,250.53493309020985L105.21,174.01265430450437L116.89999999999999,110.60816574096685L128.58999999999997,106.23523521423347L140.28,112.79413032531743L151.97,97.48987483978277L163.66,60.321467399597246L175.35,60.321467399597246L187.04,66.88086318969737L198.73,69.06732845306405L210.42,69.06732845306405L222.10999999999999,71.25329303741464L233.79999999999998,71.25329303741464L245.48999999999998,69.06732845306405L257.17999999999995,69.06732845306405L268.87,69.06732845306405L280.56,69.06732845306405L292.25,69.06732845306405L303.94,69.06732845306405L315.63,69.06732845306405L327.32,69.06732845306405L339.01,69.06732845306405L350.7,69.06732845306405L362.39000000000004,69.06732845306405L374.08,69.06732845306405L385.77000000000004,69.06732845306405L397.46,69.06732845306405L409.15000000000003,69.06732845306405L420.84,69.06732845306405L432.53000000000003,69.06732845306405L444.21999999999997,69.06732845306405L455.91,69.06732845306405L467.59999999999997,69.06732845306405L479.29,69.06732845306405L490.97999999999996,69.06732845306405L502.67,69.06732845306405L514.3599999999999,69.06732845306405L526.05,69.06732845306405L537.74,69.06732845306405L549.43,69.06732845306405L561.12,69.06732845306405L572.81,69.06732845306405L584.5,69.06732845306405L596.1899999999999,69.06732845306405L607.88,69.06732845306405L619.5699999999999,69.06732845306405L631.26,69.06732845306405" style="fill: none;" fill="none"></path></g></g></g></g></g></g><g transform="translate(60, 378)" clip-path="url(#clip_1)"><clipPath id="clip_1"><rect width="701" height="22"></rect></clipPath><g><g><line x1="0" y1="0" x2="0" y2="5" style="visibility: inherit;" fill="rgb(0, 0, 0)" stroke="rgb(204, 204, 204)" stroke-width="1px"></line><line x1="58.449999999999996" y1="0" x2="58.449999999999996" y2="5" style="visibility: inherit;" fill="rgb(0, 0, 0)" stroke="rgb(204, 204, 204)" stroke-width="1px"></line><line x1="116.89999999999999" y1="0" x2="116.89999999999999" y2="5" style="visibility: inherit;" fill="rgb(0, 0, 0)" stroke="rgb(204, 204, 204)" stroke-width="1px"></line><line x1="175.35" y1="0" x2="175.35" y2="5" style="visibility: inherit;" fill="rgb(0, 0, 0)" stroke="rgb(204, 204, 204)" stroke-width="1px"></line><line x1="233.79999999999998" y1="0" x2="233.79999999999998" y2="5" style="visibility: inherit;" fill="rgb(0, 0, 0)" stroke="rgb(204, 204, 204)" stroke-width="1px"></line><line x1="292.25" y1="0" x2="292.25" y2="5" style="visibility: inherit;" fill="rgb(0, 0, 0)" stroke="rgb(204, 204, 204)" stroke-width="1px"></line><line x1="350.7" y1="0" x2="350.7" y2="5" style="visibility: inherit;" fill="rgb(0, 0, 0)" stroke="rgb(204, 204, 204)" stroke-width="1px"></line><line x1="409.15000000000003" y1="0" x2="409.15000000000003" y2="5" style="visibility: inherit;" fill="rgb(0, 0, 0)" stroke="rgb(204, 204, 204)" stroke-width="1px"></line><line x1="467.59999999999997" y1="0" x2="467.59999999999997" y2="5" style="visibility: inherit;" fill="rgb(0, 0, 0)" stroke="rgb(204, 204, 204)" stroke-width="1px"></line><line x1="526.05" y1="0" x2="526.05" y2="5" style="visibility: inherit;" fill="rgb(0, 0, 0)" stroke="rgb(204, 204, 204)" stroke-width="1px"></line><line x1="584.5" y1="0" x2="584.5" y2="5" style="visibility: inherit;" fill="rgb(0, 0, 0)" stroke="rgb(204, 204, 204)" stroke-width="1px"></line><line x1="642.9499999999999" y1="0" x2="642.9499999999999" y2="5" style="visibility: inherit;" fill="rgb(0, 0, 0)" stroke="rgb(204, 204, 204)" stroke-width="1px"></line><line x1="701.4" y1="0" x2="701.4" y2="5" style="visibility: inherit;" fill="rgb(0, 0, 0)" stroke="rgb(204, 204, 204)" stroke-width="1px"></line></g><g transform="translate(0, 8)"><text x="0" y="0" dx="0em" dy="0.95em" style="text-anchor: middle; visibility: hidden; font-family: Roboto, sans-serif; font-size: 12px; font-weight: 200;" fill="rgb(50, 49, 63)" stroke="none" stroke-width="1px">-5</text><text x="58.449999999999996" y="0" dx="0em" dy="0.95em" style="text-anchor: middle; visibility: inherit; font-family: Roboto, sans-serif; font-size: 12px; font-weight: 200;" fill="rgb(50, 49, 63)" stroke="none" stroke-width="1px">0</text><text x="116.89999999999999" y="0" dx="0em" dy="0.95em" style="text-anchor: middle; visibility: inherit; font-family: Roboto, sans-serif; font-size: 12px; font-weight: 200;" fill="rgb(50, 49, 63)" stroke="none" stroke-width="1px">5</text><text x="175.35" y="0" dx="0em" dy="0.95em" style="text-anchor: middle; visibility: inherit; font-family: Roboto, sans-serif; font-size: 12px; font-weight: 200;" fill="rgb(50, 49, 63)" stroke="none" stroke-width="1px">10</text><text x="233.79999999999998" y="0" dx="0em" dy="0.95em" style="text-anchor: middle; visibility: inherit; font-family: Roboto, sans-serif; font-size: 12px; font-weight: 200;" fill="rgb(50, 49, 63)" stroke="none" stroke-width="1px">15</text><text x="292.25" y="0" dx="0em" dy="0.95em" style="text-anchor: middle; visibility: inherit; font-family: Roboto, sans-serif; font-size: 12px; font-weight: 200;" fill="rgb(50, 49, 63)" stroke="none" stroke-width="1px">20</text><text x="350.7" y="0" dx="0em" dy="0.95em" style="text-anchor: middle; visibility: inherit; font-family: Roboto, sans-serif; font-size: 12px; font-weight: 200;" fill="rgb(50, 49, 63)" stroke="none" stroke-width="1px">25</text><text x="409.15000000000003" y="0" dx="0em" dy="0.95em" style="text-anchor: middle; visibility: inherit; font-family: Roboto, sans-serif; font-size: 12px; font-weight: 200;" fill="rgb(50, 49, 63)" stroke="none" stroke-width="1px">30</text><text x="467.59999999999997" y="0" dx="0em" dy="0.95em" style="text-anchor: middle; visibility: inherit; font-family: Roboto, sans-serif; font-size: 12px; font-weight: 200;" fill="rgb(50, 49, 63)" stroke="none" stroke-width="1px">35</text><text x="526.05" y="0" dx="0em" dy="0.95em" style="text-anchor: middle; visibility: inherit; font-family: Roboto, sans-serif; font-size: 12px; font-weight: 200;" fill="rgb(50, 49, 63)" stroke="none" stroke-width="1px">40</text><text x="584.5" y="0" dx="0em" dy="0.95em" style="text-anchor: middle; visibility: inherit; font-family: Roboto, sans-serif; font-size: 12px; font-weight: 200;" fill="rgb(50, 49, 63)" stroke="none" stroke-width="1px">45</text><text x="642.9499999999999" y="0" dx="0em" dy="0.95em" style="text-anchor: middle; visibility: inherit; font-family: Roboto, sans-serif; font-size: 12px; font-weight: 200;" fill="rgb(50, 49, 63)" stroke="none" stroke-width="1px">50</text><text x="701.4" y="0" dx="0em" dy="0.95em" style="text-anchor: middle; visibility: hidden; font-family: Roboto, sans-serif; font-size: 12px; font-weight: 200;" fill="rgb(50, 49, 63)" stroke="none" stroke-width="1px">55</text></g><line x1="0" y1="0" x2="701.4" y2="0" fill="rgb(0, 0, 0)" stroke="rgb(204, 204, 204)" stroke-width="1px"></line></g></g></g></g></svg>